<?xml version="1.0" standalone="no"?>
<!DOCTYPE svg PUBLIC "-//W3C//DTD SVG 1.1//EN" "http://www.w3.org/Graphics/SVG/1.1/DTD/svg11.dtd" >
<svg xmlns="http://www.w3.org/2000/svg">
<metadata>
<json>
<![CDATA[
{
	"fontFamily": "vawec",
	"majorVersion": 1,
	"minorVersion": 0,
	"fontURL": "https://github.com/sachinchoolur/lightGallery",
	"license": "MLT",
	"licenseURL": "http://opensource.org/licenses/MIT",
	"description": "Font generated by IcoMoon.",
	"copyright": "sachin",
	"version": "Version 1.0",
	"fontId": "vawec",
	"psName": "vawec",
	"subFamily": "Regular",
	"fullName": "vawec"
}
]]>
</json>
</metadata>
<defs>
<font id="vawec" horiz-adv-x="1024">
<font-face units-per-em="1024" ascent="877.7142857142858" descent="-146.28571428571428" />
<missing-glyph horiz-adv-x="1024" />
<glyph unicode="&#x20;" horiz-adv-x="256" d="" />
<glyph unicode="&#xe01a;" glyph-name="pause_circle_outline" data-tags="pause_circle_outline" d="M554 160.667v340h86v-340h-86zM512-11.333q140 0 241 101t101 241-101 241-241 101-241-101-101-241 101-241 241-101zM512 756.667q176 0 301-125t125-301-125-301-301-125-301 125-125 301 125 301 301 125zM384 160.667v340h86v-340h-86z" />
<glyph unicode="&#xe01d;" glyph-name="play_circle_outline" data-tags="play_circle_outline" d="M512-11.333q140 0 241 101t101 241-101 241-241 101-241-101-101-241 101-241 241-101zM512 756.667q176 0 301-125t125-301-125-301-301-125-301 125-125 301 125 301 301 125zM426 138.667v384l256-192z" />
<glyph unicode="&#xe033;" glyph-name="stack-2" data-tags="stack-2" d="M384 757.334h426.667q53 0 90.5-37.5t37.5-90.5v-426.667q0-53-37.5-90.5t-90.5-37.5h-426.667q-53 0-90.5 37.5t-37.5 90.5v426.667q0 53 37.5 90.5t90.5 37.5zM170.667 579.334v-547.333q0-17.667 12.5-30.167t30.167-12.5h547.333q-13.333-37.667-46.333-61.5t-74.333-23.833h-426.667q-53 0-90.5 37.5t-37.5 90.5v426.667q0 41.333 23.833 74.333t61.5 46.333zM810.667 672h-426.667q-17.667 0-30.167-12.5t-12.5-30.167v-426.667q0-17.667 12.5-30.167t30.167-12.5h426.667q17.667 0 30.167 12.5t12.5 30.167v426.667q0 17.667-12.5 30.167t-30.167 12.5z" />
<glyph unicode="&#xe070;" glyph-name="clear" data-tags="clear" d="M810 568.667l-238-238 238-238-60-60-238 238-238-238-60 60 238 238-238 238 60 60 238-238 238 238z" />
<glyph unicode="&#xe094;" glyph-name="arrow-left" data-tags="arrow-left" d="M426.667 672q17.667 0 30.167-12.5t12.5-30.167q0-18-12.667-30.333l-225.667-225.667h665q17.667 0 30.167-12.5t12.5-30.167-12.5-30.167-30.167-12.5h-665l225.667-225.667q12.667-12.333 12.667-30.333 0-17.667-12.5-30.167t-30.167-12.5q-18 0-30.333 12.333l-298.667 298.667q-12.333 13-12.333 30.333t12.333 30.333l298.667 298.667q12.667 12.333 30.333 12.333z" />
<glyph unicode="&#xe095;" glyph-name="arrow-right" data-tags="arrow-right" d="M597.333 672q18 0 30.333-12.333l298.667-298.667q12.333-12.333 12.333-30.333t-12.333-30.333l-298.667-298.667q-12.333-12.333-30.333-12.333-18.333 0-30.5 12.167t-12.167 30.5q0 18 12.333 30.333l226 225.667h-665q-17.667 0-30.167 12.5t-12.5 30.167 12.5 30.167 30.167 12.5h665l-226 225.667q-12.333 12.333-12.333 30.333 0 18.333 12.167 30.5t30.5 12.167z" />
<glyph unicode="&#xe0f2;" glyph-name="vertical_align_bottom" data-tags="vertical_align_bottom" d="M170 32.667h684v-86h-684v86zM682 288.667l-170-172-170 172h128v426h84v-426h128z" />
<glyph unicode="&#xe1ff;" glyph-name="apps" data-tags="apps" d="M682-11.333v172h172v-172h-172zM682 244.667v172h172v-172h-172zM426 500.667v172h172v-172h-172zM682 672.667h172v-172h-172v172zM426 244.667v172h172v-172h-172zM170 244.667v172h172v-172h-172zM170-11.333v172h172v-172h-172zM426-11.333v172h172v-172h-172zM170 500.667v172h172v-172h-172z" />
<glyph unicode="&#xe20c;" glyph-name="fullscreen" data-tags="fullscreen" d="M598 628.667h212v-212h-84v128h-128v84zM726 116.667v128h84v-212h-212v84h128zM214 416.667v212h212v-84h-128v-128h-84zM298 244.667v-128h128v-84h-212v212h84z" />
<glyph unicode="&#xe20d;" glyph-name="fullscreen_exit" data-tags="fullscreen_exit" d="M682 500.667h128v-84h-212v212h84v-128zM598 32.667v212h212v-84h-128v-128h-84zM342 500.667v128h84v-212h-212v84h128zM214 160.667v84h212v-212h-84v128h-128z" />
<glyph unicode="&#xe311;" glyph-name="zoom_in" data-tags="zoom_in" d="M512 416.667h-86v-86h-42v86h-86v42h86v86h42v-86h86v-42zM406 244.667q80 0 136 56t56 136-56 136-136 56-136-56-56-136 56-136 136-56zM662 244.667l212-212-64-64-212 212v34l-12 12q-76-66-180-66-116 0-197 80t-81 196 81 197 197 81 196-81 80-197q0-104-66-180l12-12h34z" />
<glyph unicode="&#xe312;" glyph-name="zoom_out" data-tags="zoom_out" d="M298 458.667h214v-42h-214v42zM406 244.667q80 0 136 56t56 136-56 136-136 56-136-56-56-136 56-136 136-56zM662 244.667l212-212-64-64-212 212v34l-12 12q-76-66-180-66-116 0-197 80t-81 196 81 197 197 81 196-81 80-197q0-104-66-180l12-12h34z" />
<glyph unicode="&#xf000;" glyph-name="uniF000" d="M970.857 757.714q0-20-24.571-44.571l-361.143-361.143v-438.857h182.857q14.857 0 25.714-10.857t10.857-25.714-10.857-25.714-25.714-10.857h-512q-14.857 0-25.714 10.857t-10.857 25.714 10.857 25.714 25.714 10.857h182.857v438.857l-361.143 361.143q-24.571 24.571-24.571 44.571 0 13.143 10.286 20.857t21.714 10 24.571 2.286h804.571q13.143 0 24.571-2.286t21.714-10 10.286-20.857z" />
<glyph unicode="&#xf001;" glyph-name="uniF001" d="M877.714 736v-640q0-28.571-19.429-50.857t-49.143-34.571-59.143-18.286-55.143-6-55.143 6-59.143 18.286-49.143 34.571-19.429 50.857 19.429 50.857 49.143 34.571 59.143 18.286 55.143 6q60 0 109.714-22.286v306.857l-438.857-135.429v-405.143q0-28.571-19.429-50.857t-49.143-34.571-59.143-18.286-55.143-6-55.143 6-59.143 18.286-49.143 34.571-19.429 50.857 19.429 50.857 49.143 34.571 59.143 18.286 55.143 6q60 0 109.714-22.286v552.571q0 17.714 10.857 32.286t28 20.286l475.429 146.286q6.857 2.286 16 2.286 22.857 0 38.857-16t16-38.857z" />
<glyph unicode="&#xf002;" glyph-name="uniF002" horiz-adv-x="951" d="M658.286 388.571q0 105.714-75.143 180.857t-180.857 75.143-180.857-75.143-75.143-180.857 75.143-180.857 180.857-75.143 180.857 75.143 75.143 180.857zM950.857-86.857q0-29.714-21.714-51.429t-51.429-21.714q-30.857 0-51.429 21.714l-196 195.429q-102.286-70.857-228-70.857-81.714 0-156.286 31.714t-128.571 85.714-85.714 128.571-31.714 156.286 31.714 156.286 85.714 128.571 128.571 85.714 156.286 31.714 156.286-31.714 128.571-85.714 85.714-128.571 31.714-156.286q0-125.714-70.857-228l196-196q21.143-21.143 21.143-51.429z" />
<glyph unicode="&#xf003;" glyph-name="uniF003" d="M950.857 4.571v438.857q-18.286-20.571-39.429-37.714-153.143-117.714-243.429-193.143-29.143-24.571-47.429-38.286t-49.429-27.714-58.571-14h-1.143q-27.429 0-58.571 14t-49.429 27.714-47.429 38.286q-90.286 75.429-243.429 193.143-21.143 17.143-39.429 37.714v-438.857q0-7.429 5.429-12.857t12.857-5.429h841.143q7.429 0 12.857 5.429t5.429 12.857zM950.857 605.143v14t-0.286 7.429-1.714 7.143-3.143 5.143-5.143 4.286-8 1.429h-841.143q-7.429 0-12.857-5.429t-5.429-12.857q0-96 84-162.286 110.286-86.857 229.143-181.143 3.429-2.857 20-16.857t26.286-21.429 25.429-18 28.857-15.714 24.571-5.143h1.143q11.429 0 24.571 5.143t28.857 15.714 25.429 18 26.286 21.429 20 16.857q118.857 94.286 229.143 181.143 30.857 24.571 57.429 66t26.571 75.143zM1024 626.286v-621.714q0-37.714-26.857-64.571t-64.571-26.857h-841.143q-37.714 0-64.571 26.857t-26.857 64.571v621.714q0 37.714 26.857 64.571t64.571 26.857h841.143q37.714 0 64.571-26.857t26.857-64.571z" />
<glyph unicode="&#xf004;" glyph-name="uniF004" d="M512-86.857q-14.857 0-25.143 10.286l-356.571 344q-5.714 4.571-15.714 14.857t-31.714 37.429-38.857 55.714-30.571 69.143-13.429 78.857q0 125.714 72.571 196.571t200.571 70.857q35.429 0 72.286-12.286t68.571-33.143 54.571-39.143 43.429-38.857q20.571 20.571 43.429 38.857t54.571 39.143 68.571 33.143 72.286 12.286q128 0 200.571-70.857t72.571-196.571q0-126.286-130.857-257.143l-356-342.857q-10.286-10.286-25.143-10.286z" />
<glyph unicode="&#xf005;" glyph-name="uniF005" horiz-adv-x="951" d="M950.857 494.286q0-12.571-14.857-27.429l-207.429-202.286 49.143-285.714q0.571-4 0.571-11.429 0-12-6-20.286t-17.429-8.286q-10.857 0-22.857 6.857l-256.571 134.857-256.571-134.857q-12.571-6.857-22.857-6.857-12 0-18 8.286t-6 20.286q0 3.429 1.143 11.429l49.143 285.714-208 202.286q-14.286 15.429-14.286 27.429 0 21.143 32 26.286l286.857 41.714 128.571 260q10.857 23.429 28 23.429t28-23.429l128.571-260 286.857-41.714q32-5.143 32-26.286z" />
<glyph unicode="&#xf006;" glyph-name="uniF006" horiz-adv-x="951" d="M649.714 290.286l174.857 169.714-241.143 35.429-108 218.286-108-218.286-241.143-35.429 174.857-169.714-41.714-240.571 216 113.714 215.429-113.714zM950.857 494.286q0-12.571-14.857-27.429l-207.429-202.286 49.143-285.714q0.571-4 0.571-11.429 0-28.571-23.429-28.571-10.857 0-22.857 6.857l-256.571 134.857-256.571-134.857q-12.571-6.857-22.857-6.857-12 0-18 8.286t-6 20.286q0 3.429 1.143 11.429l49.143 285.714-208 202.286q-14.286 15.429-14.286 27.429 0 21.143 32 26.286l286.857 41.714 128.571 260q10.857 23.429 28 23.429t28-23.429l128.571-260 286.857-41.714q32-5.143 32-26.286z" />
<glyph unicode="&#xf007;" glyph-name="uniF007" horiz-adv-x="805" d="M804.571 61.143q0-68.571-41.714-108.286t-110.857-39.714h-499.429q-69.143 0-110.857 39.714t-41.714 108.286q0 30.286 2 59.143t8 62.286 15.143 62 24.571 55.714 35.429 46.286 48.857 30.571 63.714 11.429q5.143 0 24-12.286t42.571-27.429 61.714-27.429 76.286-12.286 76.286 12.286 61.714 27.429 42.571 27.429 24 12.286q34.857 0 63.714-11.429t48.857-30.571 35.429-46.286 24.571-55.714 15.143-62 8-62.286 2-59.143zM621.714 571.429q0-90.857-64.286-155.143t-155.143-64.286-155.143 64.286-64.286 155.143 64.286 155.143 155.143 64.286 155.143-64.286 64.286-155.143z" />
<glyph unicode="&#xf008;" glyph-name="uniF008" horiz-adv-x="1097" d="M219.429-50.286v73.143q0 14.857-10.857 25.714t-25.714 10.857h-73.143q-14.857 0-25.714-10.857t-10.857-25.714v-73.143q0-14.857 10.857-25.714t25.714-10.857h73.143q14.857 0 25.714 10.857t10.857 25.714zM219.429 169.143v73.143q0 14.857-10.857 25.714t-25.714 10.857h-73.143q-14.857 0-25.714-10.857t-10.857-25.714v-73.143q0-14.857 10.857-25.714t25.714-10.857h73.143q14.857 0 25.714 10.857t10.857 25.714zM219.429 388.571v73.143q0 14.857-10.857 25.714t-25.714 10.857h-73.143q-14.857 0-25.714-10.857t-10.857-25.714v-73.143q0-14.857 10.857-25.714t25.714-10.857h73.143q14.857 0 25.714 10.857t10.857 25.714zM804.571-50.286v292.571q0 14.857-10.857 25.714t-25.714 10.857h-438.857q-14.857 0-25.714-10.857t-10.857-25.714v-292.571q0-14.857 10.857-25.714t25.714-10.857h438.857q14.857 0 25.714 10.857t10.857 25.714zM219.429 608v73.143q0 14.857-10.857 25.714t-25.714 10.857h-73.143q-14.857 0-25.714-10.857t-10.857-25.714v-73.143q0-14.857 10.857-25.714t25.714-10.857h73.143q14.857 0 25.714 10.857t10.857 25.714zM1024-50.286v73.143q0 14.857-10.857 25.714t-25.714 10.857h-73.143q-14.857 0-25.714-10.857t-10.857-25.714v-73.143q0-14.857 10.857-25.714t25.714-10.857h73.143q14.857 0 25.714 10.857t10.857 25.714zM804.571 388.571v292.571q0 14.857-10.857 25.714t-25.714 10.857h-438.857q-14.857 0-25.714-10.857t-10.857-25.714v-292.571q0-14.857 10.857-25.714t25.714-10.857h438.857q14.857 0 25.714 10.857t10.857 25.714zM1024 169.143v73.143q0 14.857-10.857 25.714t-25.714 10.857h-73.143q-14.857 0-25.714-10.857t-10.857-25.714v-73.143q0-14.857 10.857-25.714t25.714-10.857h73.143q14.857 0 25.714 10.857t10.857 25.714zM1024 388.571v73.143q0 14.857-10.857 25.714t-25.714 10.857h-73.143q-14.857 0-25.714-10.857t-10.857-25.714v-73.143q0-14.857 10.857-25.714t25.714-10.857h73.143q14.857 0 25.714 10.857t10.857 25.714zM1024 608v73.143q0 14.857-10.857 25.714t-25.714 10.857h-73.143q-14.857 0-25.714-10.857t-10.857-25.714v-73.143q0-14.857 10.857-25.714t25.714-10.857h73.143q14.857 0 25.714 10.857t10.857 25.714zM1097.143 699.429v-768q0-37.714-26.857-64.571t-64.571-26.857h-914.286q-37.714 0-64.571 26.857t-26.857 64.571v768q0 37.714 26.857 64.571t64.571 26.857h914.286q37.714 0 64.571-26.857t26.857-64.571z" />
<glyph unicode="&#xf009;" glyph-name="uniF009" horiz-adv-x="951" d="M438.857 278.857v-219.429q0-29.714-21.714-51.429t-51.429-21.714h-292.571q-29.714 0-51.429 21.714t-21.714 51.429v219.429q0 29.714 21.714 51.429t51.429 21.714h292.571q29.714 0 51.429-21.714t21.714-51.429zM438.857 717.714v-219.429q0-29.714-21.714-51.429t-51.429-21.714h-292.571q-29.714 0-51.429 21.714t-21.714 51.429v219.429q0 29.714 21.714 51.429t51.429 21.714h292.571q29.714 0 51.429-21.714t21.714-51.429zM950.857 278.857v-219.429q0-29.714-21.714-51.429t-51.429-21.714h-292.571q-29.714 0-51.429 21.714t-21.714 51.429v219.429q0 29.714 21.714 51.429t51.429 21.714h292.571q29.714 0 51.429-21.714t21.714-51.429zM950.857 717.714v-219.429q0-29.714-21.714-51.429t-51.429-21.714h-292.571q-29.714 0-51.429 21.714t-21.714 51.429v219.429q0 29.714 21.714 51.429t51.429 21.714h292.571q29.714 0 51.429-21.714t21.714-51.429z" />
<glyph unicode="&#xf00a;" glyph-name="uniF00A" d="M292.571 150.857v-109.714q0-22.857-16-38.857t-38.857-16h-182.857q-22.857 0-38.857 16t-16 38.857v109.714q0 22.857 16 38.857t38.857 16h182.857q22.857 0 38.857-16t16-38.857zM292.571 443.429v-109.714q0-22.857-16-38.857t-38.857-16h-182.857q-22.857 0-38.857 16t-16 38.857v109.714q0 22.857 16 38.857t38.857 16h182.857q22.857 0 38.857-16t16-38.857zM658.286 150.857v-109.714q0-22.857-16-38.857t-38.857-16h-182.857q-22.857 0-38.857 16t-16 38.857v109.714q0 22.857 16 38.857t38.857 16h182.857q22.857 0 38.857-16t16-38.857zM292.571 736v-109.714q0-22.857-16-38.857t-38.857-16h-182.857q-22.857 0-38.857 16t-16 38.857v109.714q0 22.857 16 38.857t38.857 16h182.857q22.857 0 38.857-16t16-38.857zM658.286 443.429v-109.714q0-22.857-16-38.857t-38.857-16h-182.857q-22.857 0-38.857 16t-16 38.857v109.714q0 22.857 16 38.857t38.857 16h182.857q22.857 0 38.857-16t16-38.857zM1024 150.857v-109.714q0-22.857-16-38.857t-38.857-16h-182.857q-22.857 0-38.857 16t-16 38.857v109.714q0 22.857 16 38.857t38.857 16h182.857q22.857 0 38.857-16t16-38.857zM658.286 736v-109.714q0-22.857-16-38.857t-38.857-16h-182.857q-22.857 0-38.857 16t-16 38.857v109.714q0 22.857 16 38.857t38.857 16h182.857q22.857 0 38.857-16t16-38.857zM1024 443.429v-109.714q0-22.857-16-38.857t-38.857-16h-182.857q-22.857 0-38.857 16t-16 38.857v109.714q0 22.857 16 38.857t38.857 16h182.857q22.857 0 38.857-16t16-38.857zM1024 736v-109.714q0-22.857-16-38.857t-38.857-16h-182.857q-22.857 0-38.857 16t-16 38.857v109.714q0 22.857 16 38.857t38.857 16h182.857q22.857 0 38.857-16t16-38.857z" />
<glyph unicode="&#xf00b;" glyph-name="uniF00B" d="M292.571 150.857v-109.714q0-22.857-16-38.857t-38.857-16h-182.857q-22.857 0-38.857 16t-16 38.857v109.714q0 22.857 16 38.857t38.857 16h182.857q22.857 0 38.857-16t16-38.857zM292.571 443.429v-109.714q0-22.857-16-38.857t-38.857-16h-182.857q-22.857 0-38.857 16t-16 38.857v109.714q0 22.857 16 38.857t38.857 16h182.857q22.857 0 38.857-16t16-38.857zM1024 150.857v-109.714q0-22.857-16-38.857t-38.857-16h-548.571q-22.857 0-38.857 16t-16 38.857v109.714q0 22.857 16 38.857t38.857 16h548.571q22.857 0 38.857-16t16-38.857zM292.571 736v-109.714q0-22.857-16-38.857t-38.857-16h-182.857q-22.857 0-38.857 16t-16 38.857v109.714q0 22.857 16 38.857t38.857 16h182.857q22.857 0 38.857-16t16-38.857zM1024 443.429v-109.714q0-22.857-16-38.857t-38.857-16h-548.571q-22.857 0-38.857 16t-16 38.857v109.714q0 22.857 16 38.857t38.857 16h548.571q22.857 0 38.857-16t16-38.857zM1024 736v-109.714q0-22.857-16-38.857t-38.857-16h-548.571q-22.857 0-38.857 16t-16 38.857v109.714q0 22.857 16 38.857t38.857 16h548.571q22.857 0 38.857-16t16-38.857z" />
<glyph unicode="&#xf00c;" glyph-name="uniF00C" d="M954.857 540.571q0-22.857-16-38.857l-491.429-491.429q-16-16-38.857-16t-38.857 16l-284.571 284.571q-16 16-16 38.857t16 38.857l77.714 77.714q16 16 38.857 16t38.857-16l168-168.571 374.857 375.429q16 16 38.857 16t38.857-16l77.714-77.714q16-16 16-38.857z" />
<glyph unicode="&#xf00d;" glyph-name="uniF00D" horiz-adv-x="805" d="M741.714 108.571q0-22.857-16-38.857l-77.714-77.714q-16-16-38.857-16t-38.857 16l-168 168-168-168q-16-16-38.857-16t-38.857 16l-77.714 77.714q-16 16-16 38.857t16 38.857l168 168-168 168q-16 16-16 38.857t16 38.857l77.714 77.714q16 16 38.857 16t38.857-16l168-168 168 168q16 16 38.857 16t38.857-16l77.714-77.714q16-16 16-38.857t-16-38.857l-168-168 168-168q16-16 16-38.857z" />
<glyph unicode="&#xf00e;" glyph-name="uniF00E" horiz-adv-x="951" d="M585.143 406.857v-36.571q0-7.429-5.429-12.857t-12.857-5.429h-128v-128q0-7.429-5.429-12.857t-12.857-5.429h-36.571q-7.429 0-12.857 5.429t-5.429 12.857v128h-128q-7.429 0-12.857 5.429t-5.429 12.857v36.571q0 7.429 5.429 12.857t12.857 5.429h128v128q0 7.429 5.429 12.857t12.857 5.429h36.571q7.429 0 12.857-5.429t5.429-12.857v-128h128q7.429 0 12.857-5.429t5.429-12.857zM658.286 388.571q0 105.714-75.143 180.857t-180.857 75.143-180.857-75.143-75.143-180.857 75.143-180.857 180.857-75.143 180.857 75.143 75.143 180.857zM950.857-86.857q0-30.286-21.429-51.714t-51.714-21.429q-30.857 0-51.429 21.714l-196 195.429q-102.286-70.857-228-70.857-81.714 0-156.286 31.714t-128.571 85.714-85.714 128.571-31.714 156.286 31.714 156.286 85.714 128.571 128.571 85.714 156.286 31.714 156.286-31.714 128.571-85.714 85.714-128.571 31.714-156.286q0-125.714-70.857-228l196-196q21.143-21.143 21.143-51.429z" />
<glyph unicode="&#xf010;" glyph-name="uniF010" horiz-adv-x="951" d="M585.143 406.857v-36.571q0-7.429-5.429-12.857t-12.857-5.429h-329.143q-7.429 0-12.857 5.429t-5.429 12.857v36.571q0 7.429 5.429 12.857t12.857 5.429h329.143q7.429 0 12.857-5.429t5.429-12.857zM658.286 388.571q0 105.714-75.143 180.857t-180.857 75.143-180.857-75.143-75.143-180.857 75.143-180.857 180.857-75.143 180.857 75.143 75.143 180.857zM950.857-86.857q0-30.286-21.429-51.714t-51.714-21.429q-30.857 0-51.429 21.714l-196 195.429q-102.286-70.857-228-70.857-81.714 0-156.286 31.714t-128.571 85.714-85.714 128.571-31.714 156.286 31.714 156.286 85.714 128.571 128.571 85.714 156.286 31.714 156.286-31.714 128.571-85.714 85.714-128.571 31.714-156.286q0-125.714-70.857-228l196-196q21.143-21.143 21.143-51.429z" />
<glyph unicode="&#xf011;" glyph-name="uniF011" d="M877.714 352q0-89.143-34.857-170.286t-93.714-140-140-93.714-170.286-34.857-170.286 34.857-140 93.714-93.714 140-34.857 170.286q0 104 46 196t129.429 154.286q24.571 18.286 54.571 14.286t47.714-28.571q18.286-24 14-54t-28.286-48.286q-56-42.286-86.571-103.429t-30.571-130.286q0-59.429 23.143-113.429t62.571-93.429 93.429-62.571 113.429-23.143 113.429 23.143 93.429 62.571 62.571 93.429 23.143 113.429q0 69.143-30.571 130.286t-86.571 103.429q-24 18.286-28.286 48.286t14 54q17.714 24.571 48 28.571t54.286-14.286q83.429-62.286 129.429-154.286t46-196zM512 790.857v-365.714q0-29.714-21.714-51.429t-51.429-21.714-51.429 21.714-21.714 51.429v365.714q0 29.714 21.714 51.429t51.429 21.714 51.429-21.714 21.714-51.429z" />
<glyph unicode="&#xf012;" glyph-name="uniF012" d="M146.286 41.143v-109.714q0-8-5.143-13.143t-13.143-5.143h-109.714q-8 0-13.143 5.143t-5.143 13.143v109.714q0 8 5.143 13.143t13.143 5.143h109.714q8 0 13.143-5.143t5.143-13.143zM365.714 114.286v-182.857q0-8-5.143-13.143t-13.143-5.143h-109.714q-8 0-13.143 5.143t-5.143 13.143v182.857q0 8 5.143 13.143t13.143 5.143h109.714q8 0 13.143-5.143t5.143-13.143zM585.143 260.571v-329.143q0-8-5.143-13.143t-13.143-5.143h-109.714q-8 0-13.143 5.143t-5.143 13.143v329.143q0 8 5.143 13.143t13.143 5.143h109.714q8 0 13.143-5.143t5.143-13.143zM804.571 480v-548.571q0-8-5.143-13.143t-13.143-5.143h-109.714q-8 0-13.143 5.143t-5.143 13.143v548.571q0 8 5.143 13.143t13.143 5.143h109.714q8 0 13.143-5.143t5.143-13.143zM1024 772.571v-841.143q0-8-5.143-13.143t-13.143-5.143h-109.714q-8 0-13.143 5.143t-5.143 13.143v841.143q0 8 5.143 13.143t13.143 5.143h109.714q8 0 13.143-5.143t5.143-13.143z" />
<glyph unicode="&#xf013;" glyph-name="uniF013" d="M585.143 352q0 60.571-42.857 103.429t-103.429 42.857-103.429-42.857-42.857-103.429 42.857-103.429 103.429-42.857 103.429 42.857 42.857 103.429zM877.714 414.286v-126.857q0-6.857-4.571-13.143t-11.429-7.429l-105.714-16q-10.857-30.857-22.286-52 20-28.571 61.143-78.857 5.714-6.857 5.714-14.286t-5.143-13.143q-15.429-21.143-56.571-61.714t-53.714-40.571q-6.857 0-14.857 5.143l-78.857 61.714q-25.143-13.143-52-21.714-9.143-77.714-16.571-106.286-4-16-20.571-16h-126.857q-8 0-14 4.857t-6.571 12.286l-16 105.143q-28 9.143-51.429 21.143l-80.571-61.143q-5.714-5.143-14.286-5.143-8 0-14.286 6.286-72 65.143-94.286 96-4 5.714-4 13.143 0 6.857 4.571 13.143 8.571 12 29.143 38t30.857 40.286q-15.429 28.571-23.429 56.571l-104.571 15.429q-7.429 1.143-12 7.143t-4.571 13.429v126.857q0 6.857 4.571 13.143t10.857 7.429l106.286 16q8 26.286 22.286 52.571-22.857 32.571-61.143 78.857-5.714 6.857-5.714 13.714 0 5.714 5.143 13.143 14.857 20.571 56.286 61.429t54 40.857q7.429 0 14.857-5.714l78.857-61.143q25.143 13.143 52 21.714 9.143 77.714 16.571 106.286 4 16 20.571 16h126.857q8 0 14-4.857t6.571-12.286l16-105.143q28-9.143 51.429-21.143l81.143 61.143q5.143 5.143 13.714 5.143 7.429 0 14.286-5.714 73.714-68 94.286-97.143 4-4.571 4-12.571 0-6.857-4.571-13.143-8.571-12-29.143-38t-30.857-40.286q14.857-28.571 23.429-56l104.571-16q7.429-1.143 12-7.143t4.571-13.429z" />
<glyph unicode="&#xf014;" glyph-name="uniF014" horiz-adv-x="805" d="M292.571 443.429v-329.143q0-8-5.143-13.143t-13.143-5.143h-36.571q-8 0-13.143 5.143t-5.143 13.143v329.143q0 8 5.143 13.143t13.143 5.143h36.571q8 0 13.143-5.143t5.143-13.143zM438.857 443.429v-329.143q0-8-5.143-13.143t-13.143-5.143h-36.571q-8 0-13.143 5.143t-5.143 13.143v329.143q0 8 5.143 13.143t13.143 5.143h36.571q8 0 13.143-5.143t5.143-13.143zM585.143 443.429v-329.143q0-8-5.143-13.143t-13.143-5.143h-36.571q-8 0-13.143 5.143t-5.143 13.143v329.143q0 8 5.143 13.143t13.143 5.143h36.571q8 0 13.143-5.143t5.143-13.143zM658.286 29.714v541.714h-512v-541.714q0-12.571 4-23.143t8.286-15.429 6-4.857h475.429q1.714 0 6 4.857t8.286 15.429 4 23.143zM274.286 644.571h256l-27.429 66.857q-4 5.143-9.714 6.286h-181.143q-5.714-1.143-9.714-6.286zM804.571 626.286v-36.571q0-8-5.143-13.143t-13.143-5.143h-54.857v-541.714q0-47.429-26.857-82t-64.571-34.571h-475.429q-37.714 0-64.571 33.429t-26.857 80.857v544h-54.857q-8 0-13.143 5.143t-5.143 13.143v36.571q0 8 5.143 13.143t13.143 5.143h176.571l40 95.429q8.571 21.143 30.857 36t45.143 14.857h182.857q22.857 0 45.143-14.857t30.857-36l40-95.429h176.571q8 0 13.143-5.143t5.143-13.143z" />
<glyph unicode="&#xf015;" glyph-name="uniF015" horiz-adv-x="951" d="M804.571 297.143v-274.286q0-14.857-10.857-25.714t-25.714-10.857h-219.429v219.429h-146.286v-219.429h-219.429q-14.857 0-25.714 10.857t-10.857 25.714v274.286q0 0.571 0.286 1.714t0.286 1.714l328.571 270.857 328.571-270.857q0.571-1.143 0.571-3.429zM932 336.571l-35.429-42.286q-4.571-5.143-12-6.286h-1.714q-7.429 0-12 4l-395.429 329.714-395.429-329.714q-6.857-4.571-13.714-4-7.429 1.143-12 6.286l-35.429 42.286q-4.571 5.714-4 13.429t6.286 12.286l410.857 342.286q18.286 14.857 43.429 14.857t43.429-14.857l139.429-116.571v111.429q0 8 5.143 13.143t13.143 5.143h109.714q8 0 13.143-5.143t5.143-13.143v-233.143l125.143-104q5.714-4.571 6.286-12.286t-4-13.429z" />
<glyph unicode="&#xf016;" glyph-name="uniF016" d="M838.857 646.857q16-16 27.429-43.429t11.429-50.286v-658.286q0-22.857-16-38.857t-38.857-16h-768q-22.857 0-38.857 16t-16 38.857v914.286q0 22.857 16 38.857t38.857 16h512q22.857 0 50.286-11.429t43.429-27.429zM585.143 786.286v-214.857h214.857q-5.714 16.571-12.571 23.429l-178.857 178.857q-6.857 6.857-23.429 12.571zM804.571-86.857v585.143h-237.714q-22.857 0-38.857 16t-16 38.857v237.714h-438.857v-877.714h731.429z" />
<glyph unicode="&#xf017;" glyph-name="uniF017" d="M512 553.143v-256q0-8-5.143-13.143t-13.143-5.143h-182.857q-8 0-13.143 5.143t-5.143 13.143v36.571q0 8 5.143 13.143t13.143 5.143h128v201.143q0 8 5.143 13.143t13.143 5.143h36.571q8 0 13.143-5.143t5.143-13.143zM749.714 352q0 84.571-41.714 156t-113.143 113.143-156 41.714-156-41.714-113.143-113.143-41.714-156 41.714-156 113.143-113.143 156-41.714 156 41.714 113.143 113.143 41.714 156zM877.714 352q0-119.429-58.857-220.286t-159.714-159.714-220.286-58.857-220.286 58.857-159.714 159.714-58.857 220.286 58.857 220.286 159.714 159.714 220.286 58.857 220.286-58.857 159.714-159.714 58.857-220.286z" />
<glyph unicode="&#xf018;" glyph-name="uniF018" horiz-adv-x="1097" d="M634.857 294.857v2.286l-13.714 182.857q-0.571 7.429-6.286 12.857t-13.143 5.429h-106.286q-7.429 0-13.143-5.429t-6.286-12.857l-13.714-182.857v-2.286q-0.571-6.857 4.571-11.429t12-4.571h139.429q6.857 0 12 4.571t4.571 11.429zM1068.571 28q0-41.714-26.286-41.714h-402.286q7.429 0 12.571 5.429t4.571 12.857l-11.429 146.286q-0.571 7.429-6.286 12.857t-13.143 5.429h-155.429q-7.429 0-13.143-5.429t-6.286-12.857l-11.429-146.286q-0.571-7.429 4.571-12.857t12.571-5.429h-402.286q-26.286 0-26.286 41.714 0 30.857 14.857 66.286l238.286 596.571q4.571 10.857 14.857 18.857t21.714 8h193.714q-7.429 0-13.143-5.429t-6.286-12.857l-8.571-109.714q-0.571-8 4.571-13.143t12.571-5.143h94.857q7.429 0 12.571 5.143t4.571 13.143l-8.571 109.714q-0.571 7.429-6.286 12.857t-13.143 5.429h193.714q11.429 0 21.714-8t14.857-18.857l238.286-596.571q14.857-35.429 14.857-66.286z" />
<glyph unicode="&#xf019;" glyph-name="uniF019" horiz-adv-x="951" d="M731.429 96q0 14.857-10.857 25.714t-25.714 10.857-25.714-10.857-10.857-25.714 10.857-25.714 25.714-10.857 25.714 10.857 10.857 25.714zM877.714 96q0 14.857-10.857 25.714t-25.714 10.857-25.714-10.857-10.857-25.714 10.857-25.714 25.714-10.857 25.714 10.857 10.857 25.714zM950.857 224v-182.857q0-22.857-16-38.857t-38.857-16h-841.143q-22.857 0-38.857 16t-16 38.857v182.857q0 22.857 16 38.857t38.857 16h265.714l77.143-77.714q33.143-32 77.714-32t77.714 32l77.714 77.714h265.143q22.857 0 38.857-16t16-38.857zM765.143 549.143q9.714-23.429-8-40l-256-256q-10.286-10.857-25.714-10.857t-25.714 10.857l-256 256q-17.714 16.571-8 40 9.714 22.286 33.714 22.286h146.286v256q0 14.857 10.857 25.714t25.714 10.857h146.286q14.857 0 25.714-10.857t10.857-25.714v-256h146.286q24 0 33.714-22.286z" />
<glyph unicode="&#xf01a;" glyph-name="uniF01A" d="M640 333.714q0-6.857-5.714-13.714l-182.286-182.286q-6.286-5.143-13.143-5.143t-13.143 5.143l-182.857 182.857q-8.571 9.143-4 20 4.571 11.429 17.143 11.429h109.714v201.143q0 8 5.143 13.143t13.143 5.143h109.714q8 0 13.143-5.143t5.143-13.143v-201.143h109.714q8 0 13.143-5.143t5.143-13.143zM438.857 662.857q-84.571 0-156-41.714t-113.143-113.143-41.714-156 41.714-156 113.143-113.143 156-41.714 156 41.714 113.143 113.143 41.714 156-41.714 156-113.143 113.143-156 41.714zM877.714 352q0-119.429-58.857-220.286t-159.714-159.714-220.286-58.857-220.286 58.857-159.714 159.714-58.857 220.286 58.857 220.286 159.714 159.714 220.286 58.857 220.286-58.857 159.714-159.714 58.857-220.286z" />
<glyph unicode="&#xf01b;" glyph-name="uniF01B" d="M638.857 363.429q-4.571-11.429-17.143-11.429h-109.714v-201.143q0-8-5.143-13.143t-13.143-5.143h-109.714q-8 0-13.143 5.143t-5.143 13.143v201.143h-109.714q-8 0-13.143 5.143t-5.143 13.143q0 6.857 5.714 13.714l182.286 182.286q6.286 5.143 13.143 5.143t13.143-5.143l182.857-182.857q8.571-9.143 4-20zM438.857 662.857q-84.571 0-156-41.714t-113.143-113.143-41.714-156 41.714-156 113.143-113.143 156-41.714 156 41.714 113.143 113.143 41.714 156-41.714 156-113.143 113.143-156 41.714zM877.714 352q0-119.429-58.857-220.286t-159.714-159.714-220.286-58.857-220.286 58.857-159.714 159.714-58.857 220.286 58.857 220.286 159.714 159.714 220.286 58.857 220.286-58.857 159.714-159.714 58.857-220.286z" />
<glyph unicode="&#xf01c;" glyph-name="uniF01C" d="M584.571 315.429h180.571q-0.571 1.714-1.429 4.571t-1.429 4.571l-121.143 283.429h-404.571l-121.143-283.429q-0.571-1.143-1.429-4.571t-1.429-4.571h180.571l54.286-109.714h182.857zM877.714 298.286v-275.429q0-14.857-10.857-25.714t-25.714-10.857h-804.571q-14.857 0-25.714 10.857t-10.857 25.714v275.429q0 35.429 14.286 70.286l136 315.429q5.714 14.286 20.857 24t30 9.714h475.429q14.857 0 30-9.714t20.857-24l136-315.429q14.286-34.857 14.286-70.286z" />
<glyph unicode="&#xf01d;" glyph-name="uniF01D" d="M676.571 352q0-21.143-18.286-31.429l-310.857-182.857q-8.571-5.143-18.286-5.143-9.143 0-18.286 4.571-18.286 10.857-18.286 32v365.714q0 21.143 18.286 32 18.857 10.286 36.571-0.571l310.857-182.857q18.286-10.286 18.286-31.429zM749.714 352q0 84.571-41.714 156t-113.143 113.143-156 41.714-156-41.714-113.143-113.143-41.714-156 41.714-156 113.143-113.143 156-41.714 156 41.714 113.143 113.143 41.714 156zM877.714 352q0-119.429-58.857-220.286t-159.714-159.714-220.286-58.857-220.286 58.857-159.714 159.714-58.857 220.286 58.857 220.286 159.714 159.714 220.286 58.857 220.286-58.857 159.714-159.714 58.857-220.286z" />
<glyph unicode="&#xf01e;" glyph-name="uniF01E" d="M877.714 717.714v-256q0-14.857-10.857-25.714t-25.714-10.857h-256q-24 0-33.714 22.857-9.714 22.286 8 39.429l78.857 78.857q-84.571 78.286-199.429 78.286-59.429 0-113.429-23.143t-93.429-62.571-62.571-93.429-23.143-113.429 23.143-113.429 62.571-93.429 93.429-62.571 113.429-23.143q68 0 128.571 29.714t102.286 84q4 5.714 13.143 6.857 8 0 14.286-5.143l78.286-78.857q5.143-4.571 5.429-11.714t-4.286-12.857q-62.286-75.429-150.857-116.857t-186.857-41.429q-89.143 0-170.286 34.857t-140 93.714-93.714 140-34.857 170.286 34.857 170.286 93.714 140 140 93.714 170.286 34.857q84 0 162.571-31.714t139.714-89.429l74.286 73.714q16.571 17.714 40 8 22.286-9.714 22.286-33.714z" />
<glyph unicode="&#xf021;" glyph-name="uniF021" d="M863.429 260.571q0-2.857-0.571-4-36.571-153.143-153.143-248.286t-273.143-95.143q-83.429 0-161.429 31.429t-139.143 89.714l-73.714-73.714q-10.857-10.857-25.714-10.857t-25.714 10.857-10.857 25.714v256q0 14.857 10.857 25.714t25.714 10.857h256q14.857 0 25.714-10.857t10.857-25.714-10.857-25.714l-78.286-78.286q40.571-37.714 92-58.286t106.857-20.571q76.571 0 142.857 37.143t106.286 102.286q6.286 9.714 30.286 66.857 4.571 13.143 17.143 13.143h109.714q7.429 0 12.857-5.429t5.429-12.857zM877.714 717.714v-256q0-14.857-10.857-25.714t-25.714-10.857h-256q-14.857 0-25.714 10.857t-10.857 25.714 10.857 25.714l78.857 78.857q-84.571 78.286-199.429 78.286-76.571 0-142.857-37.143t-106.286-102.286q-6.286-9.714-30.286-66.857-4.571-13.143-17.143-13.143h-113.714q-7.429 0-12.857 5.429t-5.429 12.857v4q37.143 153.143 154.286 248.286t274.286 95.143q83.429 0 162.286-31.714t140-89.429l74.286 73.714q10.857 10.857 25.714 10.857t25.714-10.857 10.857-25.714z" />
<glyph unicode="&#xf022;" glyph-name="uniF022" d="M219.429 187.429v-36.571q0-7.429-5.429-12.857t-12.857-5.429h-36.571q-7.429 0-12.857 5.429t-5.429 12.857v36.571q0 7.429 5.429 12.857t12.857 5.429h36.571q7.429 0 12.857-5.429t5.429-12.857zM219.429 333.714v-36.571q0-7.429-5.429-12.857t-12.857-5.429h-36.571q-7.429 0-12.857 5.429t-5.429 12.857v36.571q0 7.429 5.429 12.857t12.857 5.429h36.571q7.429 0 12.857-5.429t5.429-12.857zM219.429 480v-36.571q0-7.429-5.429-12.857t-12.857-5.429h-36.571q-7.429 0-12.857 5.429t-5.429 12.857v36.571q0 7.429 5.429 12.857t12.857 5.429h36.571q7.429 0 12.857-5.429t5.429-12.857zM877.714 187.429v-36.571q0-7.429-5.429-12.857t-12.857-5.429h-548.571q-7.429 0-12.857 5.429t-5.429 12.857v36.571q0 7.429 5.429 12.857t12.857 5.429h548.571q7.429 0 12.857-5.429t5.429-12.857zM877.714 333.714v-36.571q0-7.429-5.429-12.857t-12.857-5.429h-548.571q-7.429 0-12.857 5.429t-5.429 12.857v36.571q0 7.429 5.429 12.857t12.857 5.429h548.571q7.429 0 12.857-5.429t5.429-12.857zM877.714 480v-36.571q0-7.429-5.429-12.857t-12.857-5.429h-548.571q-7.429 0-12.857 5.429t-5.429 12.857v36.571q0 7.429 5.429 12.857t12.857 5.429h548.571q7.429 0 12.857-5.429t5.429-12.857zM950.857 77.714v475.429q0 7.429-5.429 12.857t-12.857 5.429h-841.143q-7.429 0-12.857-5.429t-5.429-12.857v-475.429q0-7.429 5.429-12.857t12.857-5.429h841.143q7.429 0 12.857 5.429t5.429 12.857zM1024 699.429v-621.714q0-37.714-26.857-64.571t-64.571-26.857h-841.143q-37.714 0-64.571 26.857t-26.857 64.571v621.714q0 37.714 26.857 64.571t64.571 26.857h841.143q37.714 0 64.571-26.857t26.857-64.571z" />
<glyph unicode="&#xf023;" glyph-name="uniF023" horiz-adv-x="658" d="M182.857 425.143h292.571v109.714q0 60.571-42.857 103.429t-103.429 42.857-103.429-42.857-42.857-103.429v-109.714zM658.286 370.286v-329.143q0-22.857-16-38.857t-38.857-16h-548.571q-22.857 0-38.857 16t-16 38.857v329.143q0 22.857 16 38.857t38.857 16h18.286v109.714q0 105.143 75.429 180.571t180.571 75.429 180.571-75.429 75.429-180.571v-109.714h18.286q22.857 0 38.857-16t16-38.857z" />
<glyph unicode="&#xf024;" glyph-name="uniF024" d="M182.857 717.714q0-41.143-36.571-62.857v-723.429q0-7.429-5.429-12.857t-12.857-5.429h-36.571q-7.429 0-12.857 5.429t-5.429 12.857v723.429q-36.571 21.714-36.571 62.857 0 30.286 21.429 51.714t51.714 21.429 51.714-21.429 21.429-51.714zM1024 681.143v-436q0-14.286-7.143-22t-22.571-15.714q-122.857-66.286-210.857-66.286-34.857 0-70.571 12.571t-62 27.429-66 27.429-81.429 12.571q-109.714 0-265.143-83.429-9.714-5.143-18.857-5.143-14.857 0-25.714 10.857t-10.857 25.714v424q0 18.286 17.714 31.429 12 8 45.143 24.571 134.857 68.571 240.571 68.571 61.143 0 114.286-16.571t125.143-50.286q21.714-10.857 50.286-10.857 30.857 0 67.143 12t62.857 26.857 50.286 26.857 31.143 12q14.857 0 25.714-10.857t10.857-25.714z" />
<glyph unicode="&#xf025;" glyph-name="uniF025" horiz-adv-x="951" d="M950.857 357.714q0-94.857-34.286-179.429l-11.429-28-105.714-18.857q-12.571-47.429-51.714-78t-89.429-30.571v-18.286q0-8-5.143-13.143t-13.143-5.143h-36.571q-8 0-13.143 5.143t-5.143 13.143v329.143q0 8 5.143 13.143t13.143 5.143h36.571q8 0 13.143-5.143t5.143-13.143v-18.286q40.571 0 74.286-20.286t53.143-54.571l38.857 6.857q16.571 54.286 16.571 110.286 0 84.571-50.286 159.429t-135.143 119.429-180.286 44.571-180.286-44.571-135.143-119.429-50.286-159.429q0-56 16.571-110.286l38.857-6.857q19.429 34.286 53.143 54.571t74.286 20.286v18.286q0 8 5.143 13.143t13.143 5.143h36.571q8 0 13.143-5.143t5.143-13.143v-329.143q0-8-5.143-13.143t-13.143-5.143h-36.571q-8 0-13.143 5.143t-5.143 13.143v18.286q-50.286 0-89.429 30.571t-51.714 78l-105.714 18.857-11.429 28q-34.286 84.571-34.286 179.429 0 86.286 38.286 166.286t102.286 138.571 152 93.429 182.857 34.857 182.857-34.857 152-93.429 102.286-138.571 38.286-166.286z" />
<glyph unicode="&#xf026;" glyph-name="uniF026" horiz-adv-x="439" d="M438.857 662.857v-621.714q0-14.857-10.857-25.714t-25.714-10.857-25.714 10.857l-190.286 190.286h-149.714q-14.857 0-25.714 10.857t-10.857 25.714v219.429q0 14.857 10.857 25.714t25.714 10.857h149.714l190.286 190.286q10.857 10.857 25.714 10.857t25.714-10.857 10.857-25.714z" />
<glyph unicode="&#xf027;" glyph-name="uniF027" horiz-adv-x="658" d="M438.857 662.857v-621.714q0-14.857-10.857-25.714t-25.714-10.857-25.714 10.857l-190.286 190.286h-149.714q-14.857 0-25.714 10.857t-10.857 25.714v219.429q0 14.857 10.857 25.714t25.714 10.857h149.714l190.286 190.286q10.857 10.857 25.714 10.857t25.714-10.857 10.857-25.714zM658.286 352q0-43.429-24.286-80.857t-64.286-53.429q-5.714-2.857-14.286-2.857-14.857 0-25.714 10.571t-10.857 26q0 12 6.857 20.286t16.571 14.286 19.429 13.143 16.571 20.286 6.857 32.571-6.857 32.571-16.571 20.286-19.429 13.143-16.571 14.286-6.857 20.286q0 15.429 10.857 26t25.714 10.571q8.571 0 14.286-2.857 40-15.429 64.286-53.143t24.286-81.143z" />
<glyph unicode="&#xf028;" glyph-name="uniF028" horiz-adv-x="951" d="M438.857 662.857v-621.714q0-14.857-10.857-25.714t-25.714-10.857-25.714 10.857l-190.286 190.286h-149.714q-14.857 0-25.714 10.857t-10.857 25.714v219.429q0 14.857 10.857 25.714t25.714 10.857h149.714l190.286 190.286q10.857 10.857 25.714 10.857t25.714-10.857 10.857-25.714zM658.286 352q0-43.429-24.286-80.857t-64.286-53.429q-5.714-2.857-14.286-2.857-14.857 0-25.714 10.571t-10.857 26q0 12 6.857 20.286t16.571 14.286 19.429 13.143 16.571 20.286 6.857 32.571-6.857 32.571-16.571 20.286-19.429 13.143-16.571 14.286-6.857 20.286q0 15.429 10.857 26t25.714 10.571q8.571 0 14.286-2.857 40-15.429 64.286-53.143t24.286-81.143zM804.571 352q0-87.429-48.571-161.429t-128.571-107.714q-7.429-2.857-14.286-2.857-15.429 0-26.286 10.857t-10.857 25.714q0 22.286 22.286 33.714 32 16.571 43.429 25.143 42.286 30.857 66 77.429t23.714 99.143-23.714 99.143-66 77.429q-11.429 8.571-43.429 25.143-22.286 11.429-22.286 33.714 0 14.857 10.857 25.714t25.714 10.857q7.429 0 14.857-2.857 80-33.714 128.571-107.714t48.571-161.429zM950.857 352q0-131.429-72.571-241.429t-193.143-162q-7.429-2.857-14.857-2.857-14.857 0-25.714 10.857t-10.857 25.714q0 20.571 22.286 33.714 4 2.286 12.857 6t12.857 6q26.286 14.286 46.857 29.143 70.286 52 109.714 129.714t39.429 165.143-39.429 165.143-109.714 129.714q-20.571 14.857-46.857 29.143-4 2.286-12.857 6t-12.857 6q-22.286 13.143-22.286 33.714 0 14.857 10.857 25.714t25.714 10.857q7.429 0 14.857-2.857 120.571-52 193.143-162t72.571-241.429z" />
<glyph unicode="&#xf029;" glyph-name="uniF029" horiz-adv-x="805" d="M219.429 205.714v-73.143h-73.143v73.143h73.143zM219.429 644.571v-73.143h-73.143v73.143h73.143zM658.286 644.571v-73.143h-73.143v73.143h73.143zM73.143 60h219.429v218.857h-219.429v-218.857zM73.143 498.286h219.429v219.429h-219.429v-219.429zM512 498.286h219.429v219.429h-219.429v-219.429zM365.714 352v-365.714h-365.714v365.714h365.714zM658.286 59.429v-73.143h-73.143v73.143h73.143zM804.571 59.429v-73.143h-73.143v73.143h73.143zM804.571 352v-219.429h-219.429v73.143h-73.143v-219.429h-73.143v365.714h219.429v-73.143h73.143v73.143h73.143zM365.714 790.857v-365.714h-365.714v365.714h365.714zM804.571 790.857v-365.714h-365.714v365.714h365.714z" />
<glyph unicode="&#xf02a;" glyph-name="uniF02A" d="M36-13.714h-36v804.571h36v-804.571zM72-13.143h-18.286v804h18.286v-804zM125.714-13.143h-17.714v804h17.714v-804zM215.429-13.143h-17.714v804h17.714v-804zM305.143-13.143h-35.429v804h35.429v-804zM377.143-13.143h-17.714v804h17.714v-804zM413.143-13.143h-17.714v804h17.714v-804zM449.143-13.143h-17.714v804h17.714v-804zM538.857-13.143h-36v804h36v-804zM628.571-13.143h-36v804h36v-804zM700.571-13.143h-36v804h36v-804zM772.571-13.143h-36v804h36v-804zM826.286-13.143h-36v804h36v-804zM934.286-13.143h-53.714v804h53.714v-804zM970.286-13.143h-18.286v804h18.286v-804zM1024-13.714h-36v804.571h36v-804.571z" />
<glyph unicode="&#xf02b;" glyph-name="uniF02B" d="M256 608q0 30.286-21.429 51.714t-51.714 21.429-51.714-21.429-21.429-51.714 21.429-51.714 51.714-21.429 51.714 21.429 21.429 51.714zM865.714 278.857q0-30.286-21.143-51.429l-280.571-281.143q-22.286-21.143-52-21.143-30.286 0-51.429 21.143l-408.571 409.143q-21.714 21.143-36.857 57.714t-15.143 66.857v237.714q0 29.714 21.714 51.429t51.429 21.714h237.714q30.286 0 66.857-15.143t58.286-36.857l408.571-408q21.143-22.286 21.143-52z" />
<glyph unicode="&#xf02c;" glyph-name="uniF02C" horiz-adv-x="1097" d="M256 608q0 30.286-21.429 51.714t-51.714 21.429-51.714-21.429-21.429-51.714 21.429-51.714 51.714-21.429 51.714 21.429 21.429 51.714zM865.714 278.857q0-30.286-21.143-51.429l-280.571-281.143q-22.286-21.143-52-21.143-30.286 0-51.429 21.143l-408.571 409.143q-21.714 21.143-36.857 57.714t-15.143 66.857v237.714q0 29.714 21.714 51.429t51.429 21.714h237.714q30.286 0 66.857-15.143t58.286-36.857l408.571-408q21.143-22.286 21.143-52zM1085.143 278.857q0-30.286-21.143-51.429l-280.571-281.143q-22.286-21.143-52-21.143-20.571 0-33.714 8t-30.286 25.714l268.571 268.571q21.143 21.143 21.143 51.429 0 29.714-21.143 52l-408.571 408q-21.714 21.714-58.286 36.857t-66.857 15.143h128q30.286 0 66.857-15.143t58.286-36.857l408.571-408q21.143-22.286 21.143-52z" />
<glyph unicode="&#xf02d;" glyph-name="uniF02D" horiz-adv-x="951" d="M936.571 590.857q22.857-32.571 10.286-73.714l-157.143-517.714q-10.857-36.571-43.714-61.429t-70-24.857h-527.429q-44 0-84.857 30.571t-56.857 75.143q-13.714 38.286-1.143 72.571 0 2.286 1.714 15.429t2.286 21.143q0.571 4.571-1.714 12.286t-1.714 11.143q1.143 6.286 4.571 12t9.429 13.429 9.429 13.429q13.143 21.714 25.714 52.286t17.143 52.286q1.714 5.714 0.286 17.143t-0.286 16q1.714 6.286 9.714 16t9.714 13.143q12 20.571 24 52.571t14.286 51.429q0.571 5.143-1.429 18.286t0.286 16q2.286 7.429 12.571 17.429t12.571 12.857q10.857 14.857 24.286 48.286t15.714 55.143q0.571 4.571-1.714 14.571t-1.143 15.143q1.143 4.571 5.143 10.286t10.286 13.143 9.714 12q4.571 6.857 9.429 17.429t8.571 20 9.143 20.571 11.143 18.286 15.143 13.429 20.571 6.571 27.143-3.143l-0.571-1.714q21.714 5.143 29.143 5.143h434.857q42.286 0 65.143-32t10.286-74.286l-156.571-517.714q-20.571-68-40.857-87.714t-73.429-19.714h-496.571q-15.429 0-21.714-8.571-6.286-9.143-0.571-24.571 13.714-40 82.286-40h527.429q16.571 0 32 8.857t20 23.714l171.429 564q4 12.571 2.857 32.571 21.714-8.571 33.714-24.571zM328.571 589.714q-2.286-7.429 1.143-12.857t11.429-5.429h347.429q7.429 0 14.571 5.429t9.429 12.857l12 36.571q2.286 7.429-1.143 12.857t-11.429 5.429h-347.429q-7.429 0-14.571-5.429t-9.429-12.857zM281.143 443.429q-2.286-7.429 1.143-12.857t11.429-5.429h347.429q7.429 0 14.571 5.429t9.429 12.857l12 36.571q2.286 7.429-1.143 12.857t-11.429 5.429h-347.429q-7.429 0-14.571-5.429t-9.429-12.857z" />
<glyph unicode="&#xf02e;" glyph-name="uniF02E" horiz-adv-x="731" d="M665.143 790.857q13.143 0 25.143-5.143 18.857-7.429 30-23.429t11.143-35.429v-736.571q0-19.429-11.143-35.429t-30-23.429q-10.857-4.571-25.143-4.571-27.429 0-47.429 18.286l-252 242.286-252-242.286q-20.571-18.857-47.429-18.857-13.143 0-25.143 5.143-18.857 7.429-30 23.429t-11.143 35.429v736.571q0 19.429 11.143 35.429t30 23.429q12 5.143 25.143 5.143h598.857z" />
<glyph unicode="&#xf02f;" glyph-name="uniF02F" horiz-adv-x="951" d="M219.429-13.714h512v146.286h-512v-146.286zM219.429 352h512v219.429h-91.429q-22.857 0-38.857 16t-16 38.857v91.429h-365.714v-365.714zM877.714 315.429q0 14.857-10.857 25.714t-25.714 10.857-25.714-10.857-10.857-25.714 10.857-25.714 25.714-10.857 25.714 10.857 10.857 25.714zM950.857 315.429v-237.714q0-7.429-5.429-12.857t-12.857-5.429h-128v-91.429q0-22.857-16-38.857t-38.857-16h-548.571q-22.857 0-38.857 16t-16 38.857v91.429h-128q-7.429 0-12.857 5.429t-5.429 12.857v237.714q0 45.143 32.286 77.429t77.429 32.286h36.571v310.857q0 22.857 16 38.857t38.857 16h384q22.857 0 50.286-11.429t43.429-27.429l86.857-86.857q16-16 27.429-43.429t11.429-50.286v-146.286h36.571q45.143 0 77.429-32.286t32.286-77.429z" />
<glyph unicode="&#xf030;" glyph-name="uniF030" horiz-adv-x="1097" d="M548.571 480q68 0 116.286-48.286t48.286-116.286-48.286-116.286-116.286-48.286-116.286 48.286-48.286 116.286 48.286 116.286 116.286 48.286zM950.857 717.714q60.571 0 103.429-42.857t42.857-103.429v-512q0-60.571-42.857-103.429t-103.429-42.857h-804.571q-60.571 0-103.429 42.857t-42.857 103.429v512q0 60.571 42.857 103.429t103.429 42.857h128l29.143 77.714q10.857 28 39.714 48.286t59.143 20.286h292.571q30.286 0 59.143-20.286t39.714-48.286l29.143-77.714h128zM548.571 59.429q105.714 0 180.857 75.143t75.143 180.857-75.143 180.857-180.857 75.143-180.857-75.143-75.143-180.857 75.143-180.857 180.857-75.143z" />
<glyph unicode="&#xf031;" glyph-name="uniF031" horiz-adv-x="951" d="M414.286 544.571l-97.143-257.143q18.857 0 78-1.143t91.714-1.143q10.857 0 32.571 1.143-49.714 144.571-105.143 258.286zM0-86.857l1.143 45.143q13.143 4 32 7.143t32.571 6 28.286 8.286 25.429 16.571 17.714 28.857l135.429 352 160 413.714h73.143q4.571-8 6.286-12l117.143-274.286q18.857-44.571 60.571-147.143t65.143-156.857q8.571-19.429 33.143-82.571t41.143-96.286q11.429-25.714 20-32.571 10.857-8.571 50.286-16.857t48-11.714q3.429-21.714 3.429-32.571 0-2.286-0.286-7.429t-0.286-7.429q-36 0-108.571 4.571t-109.143 4.571q-43.429 0-122.857-4t-101.714-4.571q0 24.571 2.286 44.571l74.857 16q0.571 0 7.143 1.429t8.857 2 8.286 2.571 8.571 3.714 6.286 4.571 5.143 6.286 1.429 8q0 9.143-17.714 55.143t-41.143 101.429-24 57.143l-257.143 1.143q-14.857-33.143-43.714-111.714t-28.857-92.857q0-12.571 8-21.429t24.857-14 27.714-7.714 32.571-4.857 23.429-2.286q0.571-10.857 0.571-33.143 0-5.143-1.143-15.429-33.143 0-99.714 5.714t-99.714 5.714q-4.571 0-15.143-2.286t-12.286-2.286q-45.714-8-107.429-8z" />
<glyph unicode="&#xf032;" glyph-name="uniF032" horiz-adv-x="805" d="M317.143-5.143q42.286-18.286 80-18.286 214.857 0 214.857 191.429 0 65.143-23.429 102.857-15.429 25.143-35.143 42.286t-38.571 26.571-46 14.286-48 6-54 1.143q-41.714 0-57.714-5.714 0-30.286-0.286-90.857t-0.286-90.286q0-4.571-0.571-38.571t-0.286-55.143 2.571-47.714 6.857-38zM309.143 421.143q24-4 62.286-4 46.857 0 81.714 7.429t62.857 25.429 42.571 51.143 14.571 81.143q0 40-16.571 70t-45.143 46.857-61.714 24.857-70.857 8q-28.571 0-74.286-7.429 0-28.571 2.286-86.286t2.286-86.857q0-15.429-0.286-45.714t-0.286-45.143q0-26.286 0.571-39.429zM0-86.857l1.143 53.714q8.571 2.286 48.571 9.143t60.571 15.429q4 6.857 7.143 15.429t4.857 19.143 3.143 18.571 1.714 21.429 0.286 19.429v37.429q0 561.143-12.571 585.714-2.286 4.571-12.571 8.286t-25.429 6.286-28.286 4-27.714 2.571-17.429 1.714l-2.286 47.429q56 1.143 194.286 6.571t213.143 5.429q13.143 0 39.143-0.286t38.571-0.286q40 0 78-7.429t73.429-24 61.714-40.571 42.286-59.714 16-78.571q0-29.714-9.429-54.571t-22.286-41.143-36.857-32.857-41.714-25.714-48-22.857q88-20 146.571-76.571t58.571-141.714q0-57.143-20-102.571t-53.429-74.571-78.857-48.857-93.429-27.714-100.571-8q-25.143 0-75.429 1.714t-75.429 1.714q-60.571 0-175.429-6.286t-132-6.857z" />
<glyph unicode="&#xf033;" glyph-name="uniF033" horiz-adv-x="585" d="M0-85.714l9.714 48.571q3.429 1.143 46.571 12.286t63.714 21.429q16 20 23.429 57.714 0.571 4 35.429 165.143t65.143 310.571 29.714 169.429v14.286q-13.714 7.429-31.143 10.571t-39.714 4.571-33.143 3.143l10.857 58.857q18.857-1.143 68.571-3.714t85.429-4 68.857-1.429q27.429 0 56.286 1.429t69.143 4 56.286 3.714q-2.857-22.286-10.857-50.857-17.143-5.714-58-16.286t-62-19.143q-4.571-10.857-8-24.286t-5.143-22.857-4.286-26-3.714-24q-15.429-84.571-50-239.714t-44.286-203.143q-1.143-5.143-7.429-33.143t-11.429-51.429-9.143-47.714-3.429-32.857l0.571-10.286q9.714-2.286 105.714-17.714-1.714-25.143-9.143-56.571-6.286 0-18.571-0.857t-18.571-0.857q-16.571 0-49.714 5.714t-49.143 5.714q-78.857 1.143-117.714 1.143-29.143 0-81.714-5.143t-69.143-6.286z" />
<glyph unicode="&#xf034;" glyph-name="uniF034" d="M996.571 59.429q18.857 0 24-10.571t-6.286-25.429l-72-92.571q-11.429-14.857-28-14.857t-28 14.857l-72 92.571q-11.429 14.857-6.286 25.429t24 10.571h45.714v585.143h-45.714q-18.857 0-24 10.571t6.286 25.429l72 92.571q11.429 14.857 28 14.857t28-14.857l72-92.571q11.429-14.857 6.286-25.429t-24-10.571h-45.714v-585.143h45.714zM46.286 790.286l30.857-15.429q6.857-2.857 120.571-2.857 25.143 0 75.429 1.143t75.429 1.143q20.571 0 61.429-0.286t61.429-0.286h167.429q3.429 0 12-0.286t11.714 0 9.143 1.714 10 5.143 8.571 10l24 0.571q2.286 0 8-0.286t8-0.286q1.143-64 1.143-192 0-45.714-2.857-62.286-22.286-8-38.857-10.286-14.286 25.143-30.857 73.143-1.714 5.143-6.286 27.429t-8.286 42-4.286 20.286q-3.429 4.571-6.857 7.143t-8.857 3.429-7.429 1.429-10.286 0.286-9.429-0.286q-9.714 0-38 0.286t-42.571 0.286-36.571-1.143-40.571-3.429q-5.143-46.286-4.571-77.714 0-53.714 1.143-221.714t1.143-260q0-9.143-1.429-40.857t0-52.286 7.143-39.429q22.857-12 70.857-24.286t68.571-21.429q2.857-22.857 2.857-28.571 0-8-1.714-16.571l-19.429-0.571q-43.429-1.143-124.571 4.571t-118.286 5.714q-28.571 0-86.286-5.143t-86.857-5.143q-1.714 29.143-1.714 29.714v5.143q9.714 15.429 35.143 24.571t56.286 16.571 44.571 15.429q10.857 24 10.857 218.857 0 57.714-1.714 173.143t-1.714 173.143v66.857q0 1.143 0.286 8.857t0.286 14.286-0.571 14.571-1.714 13.714-2.857 8q-6.286 6.857-92.571 6.857-18.857 0-53.143-6.857t-45.714-14.857q-10.857-7.429-19.429-41.429t-18-63.429-24.286-30.571q-24 14.857-32 25.143v218.857z" />
<glyph unicode="&#xf035;" glyph-name="uniF035" d="M46.286 790.286l30.857-15.429q6.857-2.857 120.571-2.857 25.143 0 75.429 1.143t75.429 1.143q40 0 140.857 0.571t174 0.286 141.143-2.571q18.857-0.571 32 17.714l24 0.571q2.286 0 8-0.286t8-0.286q1.143-64 1.143-192 0-45.714-2.857-62.286-22.286-8-38.857-10.286-14.286 25.143-30.857 73.143-1.714 5.143-6.286 27.143t-8.571 42-4 20.571q-5.714 7.429-15.429 10.857-2.857 1.143-37.714 1.143-17.143 0-53.143 0.571t-58.857 0.571-53.714-1.143-54.857-4q-5.143-46.286-4.571-77.714l0.571-86.857v29.714q0-31.429 0.571-88t0.857-102.857 0.286-87.429q0-9.143-1.429-40.857t0-52.286 7.143-39.429q22.857-12 70.857-24.286t68.571-21.429q2.857-22.857 2.857-28.571 0-8-1.714-16.571l-19.429-0.571q-43.429-1.143-124.571 4.571t-118.286 5.714q-28.571 0-86.286-5.143t-86.857-5.143q-1.714 29.143-1.714 29.714v5.143q9.714 15.429 35.143 24.571t56.286 16.571 44.571 15.429q4 9.143 6.571 42.286t3.429 83.143 0.857 88.571-0.286 87.714-0.286 50.857q0 4-1.429 12.286t-1.429 12.857q0 4 0.286 25.143t0.571 41.714 0 43.714-1.714 38.571-3.714 18.286q-6.286 6.857-92.571 6.857-23.429 0-93.143-7.714t-78.857-14q-10.857-6.857-19.429-40.857t-18-63.714-24.286-30.857q-24 14.857-32 25.143v218.857zM748.571 57.714q6.857 0 24-11.143t32.857-23.714 34-28 20.571-17.143q14.857-12 14.857-28t-14.857-28q-2.286-1.714-20.571-17.143t-34-28-32.857-23.714-24-11.143q-7.429 0-11.714 6t-5.714 16.286-1.429 19.143 0.857 18.857 0.857 11.143h-585.143q0-1.143 0.857-11.143t0.857-18.857-1.429-19.143-5.714-16.286-11.714-6q-6.857 0-24 11.143t-32.857 23.714-34 28-20.571 17.143q-14.857 12-14.857 28t14.857 28q2.286 1.714 20.571 17.143t34 28 32.857 23.714 24 11.143q7.429 0 11.714-6t5.714-16.286 1.429-19.143-0.857-18.857-0.857-11.143h585.143q0 1.143-0.857 11.143t-0.857 18.857 1.429 19.143 5.714 16.286 11.714 6z" />
<glyph unicode="&#xf036;" glyph-name="uniF036" d="M1024 96v-73.143q0-14.857-10.857-25.714t-25.714-10.857h-950.857q-14.857 0-25.714 10.857t-10.857 25.714v73.143q0 14.857 10.857 25.714t25.714 10.857h950.857q14.857 0 25.714-10.857t10.857-25.714zM804.571 315.429v-73.143q0-14.857-10.857-25.714t-25.714-10.857h-731.429q-14.857 0-25.714 10.857t-10.857 25.714v73.143q0 14.857 10.857 25.714t25.714 10.857h731.429q14.857 0 25.714-10.857t10.857-25.714zM950.857 534.857v-73.143q0-14.857-10.857-25.714t-25.714-10.857h-877.714q-14.857 0-25.714 10.857t-10.857 25.714v73.143q0 14.857 10.857 25.714t25.714 10.857h877.714q14.857 0 25.714-10.857t10.857-25.714zM731.429 754.286v-73.143q0-14.857-10.857-25.714t-25.714-10.857h-658.286q-14.857 0-25.714 10.857t-10.857 25.714v73.143q0 14.857 10.857 25.714t25.714 10.857h658.286q14.857 0 25.714-10.857t10.857-25.714z" />
<glyph unicode="&#xf037;" glyph-name="uniF037" d="M1024 96v-73.143q0-14.857-10.857-25.714t-25.714-10.857h-950.857q-14.857 0-25.714 10.857t-10.857 25.714v73.143q0 14.857 10.857 25.714t25.714 10.857h950.857q14.857 0 25.714-10.857t10.857-25.714zM804.571 315.429v-73.143q0-14.857-10.857-25.714t-25.714-10.857h-512q-14.857 0-25.714 10.857t-10.857 25.714v73.143q0 14.857 10.857 25.714t25.714 10.857h512q14.857 0 25.714-10.857t10.857-25.714zM950.857 534.857v-73.143q0-14.857-10.857-25.714t-25.714-10.857h-804.571q-14.857 0-25.714 10.857t-10.857 25.714v73.143q0 14.857 10.857 25.714t25.714 10.857h804.571q14.857 0 25.714-10.857t10.857-25.714zM731.429 754.286v-73.143q0-14.857-10.857-25.714t-25.714-10.857h-365.714q-14.857 0-25.714 10.857t-10.857 25.714v73.143q0 14.857 10.857 25.714t25.714 10.857h365.714q14.857 0 25.714-10.857t10.857-25.714z" />
<glyph unicode="&#xf038;" glyph-name="uniF038" d="M1024 96v-73.143q0-14.857-10.857-25.714t-25.714-10.857h-950.857q-14.857 0-25.714 10.857t-10.857 25.714v73.143q0 14.857 10.857 25.714t25.714 10.857h950.857q14.857 0 25.714-10.857t10.857-25.714zM1024 315.429v-73.143q0-14.857-10.857-25.714t-25.714-10.857h-731.429q-14.857 0-25.714 10.857t-10.857 25.714v73.143q0 14.857 10.857 25.714t25.714 10.857h731.429q14.857 0 25.714-10.857t10.857-25.714zM1024 534.857v-73.143q0-14.857-10.857-25.714t-25.714-10.857h-877.714q-14.857 0-25.714 10.857t-10.857 25.714v73.143q0 14.857 10.857 25.714t25.714 10.857h877.714q14.857 0 25.714-10.857t10.857-25.714zM1024 754.286v-73.143q0-14.857-10.857-25.714t-25.714-10.857h-658.286q-14.857 0-25.714 10.857t-10.857 25.714v73.143q0 14.857 10.857 25.714t25.714 10.857h658.286q14.857 0 25.714-10.857t10.857-25.714z" />
<glyph unicode="&#xf039;" glyph-name="uniF039" d="M1024 96v-73.143q0-14.857-10.857-25.714t-25.714-10.857h-950.857q-14.857 0-25.714 10.857t-10.857 25.714v73.143q0 14.857 10.857 25.714t25.714 10.857h950.857q14.857 0 25.714-10.857t10.857-25.714zM1024 315.429v-73.143q0-14.857-10.857-25.714t-25.714-10.857h-950.857q-14.857 0-25.714 10.857t-10.857 25.714v73.143q0 14.857 10.857 25.714t25.714 10.857h950.857q14.857 0 25.714-10.857t10.857-25.714zM1024 534.857v-73.143q0-14.857-10.857-25.714t-25.714-10.857h-950.857q-14.857 0-25.714 10.857t-10.857 25.714v73.143q0 14.857 10.857 25.714t25.714 10.857h950.857q14.857 0 25.714-10.857t10.857-25.714zM1024 754.286v-73.143q0-14.857-10.857-25.714t-25.714-10.857h-950.857q-14.857 0-25.714 10.857t-10.857 25.714v73.143q0 14.857 10.857 25.714t25.714 10.857h950.857q14.857 0 25.714-10.857t10.857-25.714z" />
<glyph unicode="&#xf03a;" glyph-name="uniF03A" d="M146.286 114.286v-109.714q0-7.429-5.429-12.857t-12.857-5.429h-109.714q-7.429 0-12.857 5.429t-5.429 12.857v109.714q0 7.429 5.429 12.857t12.857 5.429h109.714q7.429 0 12.857-5.429t5.429-12.857zM146.286 333.714v-109.714q0-7.429-5.429-12.857t-12.857-5.429h-109.714q-7.429 0-12.857 5.429t-5.429 12.857v109.714q0 7.429 5.429 12.857t12.857 5.429h109.714q7.429 0 12.857-5.429t5.429-12.857zM146.286 553.143v-109.714q0-7.429-5.429-12.857t-12.857-5.429h-109.714q-7.429 0-12.857 5.429t-5.429 12.857v109.714q0 7.429 5.429 12.857t12.857 5.429h109.714q7.429 0 12.857-5.429t5.429-12.857zM1024 114.286v-109.714q0-7.429-5.429-12.857t-12.857-5.429h-768q-7.429 0-12.857 5.429t-5.429 12.857v109.714q0 7.429 5.429 12.857t12.857 5.429h768q7.429 0 12.857-5.429t5.429-12.857zM146.286 772.571v-109.714q0-7.429-5.429-12.857t-12.857-5.429h-109.714q-7.429 0-12.857 5.429t-5.429 12.857v109.714q0 7.429 5.429 12.857t12.857 5.429h109.714q7.429 0 12.857-5.429t5.429-12.857zM1024 333.714v-109.714q0-7.429-5.429-12.857t-12.857-5.429h-768q-7.429 0-12.857 5.429t-5.429 12.857v109.714q0 7.429 5.429 12.857t12.857 5.429h768q7.429 0 12.857-5.429t5.429-12.857zM1024 553.143v-109.714q0-7.429-5.429-12.857t-12.857-5.429h-768q-7.429 0-12.857 5.429t-5.429 12.857v109.714q0 7.429 5.429 12.857t12.857 5.429h768q7.429 0 12.857-5.429t5.429-12.857zM1024 772.571v-109.714q0-7.429-5.429-12.857t-12.857-5.429h-768q-7.429 0-12.857 5.429t-5.429 12.857v109.714q0 7.429 5.429 12.857t12.857 5.429h768q7.429 0 12.857-5.429t5.429-12.857z" />
<glyph unicode="&#xf03b;" glyph-name="uniF03B" d="M219.429 553.143v-329.143q0-7.429-5.429-12.857t-12.857-5.429q-8 0-13.143 5.143l-164.571 164.571q-5.143 5.143-5.143 13.143t5.143 13.143l164.571 164.571q5.143 5.143 13.143 5.143 7.429 0 12.857-5.429t5.429-12.857zM1024 114.286v-109.714q0-7.429-5.429-12.857t-12.857-5.429h-987.429q-7.429 0-12.857 5.429t-5.429 12.857v109.714q0 7.429 5.429 12.857t12.857 5.429h987.429q7.429 0 12.857-5.429t5.429-12.857zM1024 333.714v-109.714q0-7.429-5.429-12.857t-12.857-5.429h-621.714q-7.429 0-12.857 5.429t-5.429 12.857v109.714q0 7.429 5.429 12.857t12.857 5.429h621.714q7.429 0 12.857-5.429t5.429-12.857zM1024 553.143v-109.714q0-7.429-5.429-12.857t-12.857-5.429h-621.714q-7.429 0-12.857 5.429t-5.429 12.857v109.714q0 7.429 5.429 12.857t12.857 5.429h621.714q7.429 0 12.857-5.429t5.429-12.857zM1024 772.571v-109.714q0-7.429-5.429-12.857t-12.857-5.429h-987.429q-7.429 0-12.857 5.429t-5.429 12.857v109.714q0 7.429 5.429 12.857t12.857 5.429h987.429q7.429 0 12.857-5.429t5.429-12.857z" />
<glyph unicode="&#xf03c;" glyph-name="uniF03C" d="M201.143 388.571q0-8-5.143-13.143l-164.571-164.571q-5.143-5.143-13.143-5.143-7.429 0-12.857 5.429t-5.429 12.857v329.143q0 7.429 5.429 12.857t12.857 5.429q8 0 13.143-5.143l164.571-164.571q5.143-5.143 5.143-13.143zM1024 114.286v-109.714q0-7.429-5.429-12.857t-12.857-5.429h-987.429q-7.429 0-12.857 5.429t-5.429 12.857v109.714q0 7.429 5.429 12.857t12.857 5.429h987.429q7.429 0 12.857-5.429t5.429-12.857zM1024 333.714v-109.714q0-7.429-5.429-12.857t-12.857-5.429h-621.714q-7.429 0-12.857 5.429t-5.429 12.857v109.714q0 7.429 5.429 12.857t12.857 5.429h621.714q7.429 0 12.857-5.429t5.429-12.857zM1024 553.143v-109.714q0-7.429-5.429-12.857t-12.857-5.429h-621.714q-7.429 0-12.857 5.429t-5.429 12.857v109.714q0 7.429 5.429 12.857t12.857 5.429h621.714q7.429 0 12.857-5.429t5.429-12.857zM1024 772.571v-109.714q0-7.429-5.429-12.857t-12.857-5.429h-987.429q-7.429 0-12.857 5.429t-5.429 12.857v109.714q0 7.429 5.429 12.857t12.857 5.429h987.429q7.429 0 12.857-5.429t5.429-12.857z" />
<glyph unicode="&#xf03d;" glyph-name="uniF03D" d="M1024 662.857v-621.714q0-24-22.286-33.714-7.429-2.857-14.286-2.857-15.429 0-25.714 10.857l-230.286 230.286v-94.857q0-68-48.286-116.286t-116.286-48.286h-402.286q-68 0-116.286 48.286t-48.286 116.286v402.286q0 68 48.286 116.286t116.286 48.286h402.286q68 0 116.286-48.286t48.286-116.286v-94.286l230.286 229.714q10.286 10.857 25.714 10.857 6.857 0 14.286-2.857 22.286-9.714 22.286-33.714z" />
<glyph unicode="&#xf03e;" glyph-name="uniF03E" horiz-adv-x="1097" d="M365.714 534.857q0-45.714-32-77.714t-77.714-32-77.714 32-32 77.714 32 77.714 77.714 32 77.714-32 32-77.714zM950.857 315.429v-256h-804.571v109.714l182.857 182.857 91.429-91.429 292.571 292.571zM1005.714 717.714h-914.286q-7.429 0-12.857-5.429t-5.429-12.857v-694.857q0-7.429 5.429-12.857t12.857-5.429h914.286q7.429 0 12.857 5.429t5.429 12.857v694.857q0 7.429-5.429 12.857t-12.857 5.429zM1097.143 699.429v-694.857q0-37.714-26.857-64.571t-64.571-26.857h-914.286q-37.714 0-64.571 26.857t-26.857 64.571v694.857q0 37.714 26.857 64.571t64.571 26.857h914.286q37.714 0 64.571-26.857t26.857-64.571z" />
<glyph unicode="&#xf040;" glyph-name="uniF040" d="M207.429-13.714l52 52-134.286 134.286-52-52v-61.143h73.143v-73.143h61.143zM506.286 516.571q0 12.571-12.571 12.571-5.714 0-9.714-4l-309.714-309.714q-4-4-4-9.714 0-12.571 12.571-12.571 5.714 0 9.714 4l309.714 309.714q4 4 4 9.714zM475.429 626.286l237.714-237.714-475.429-475.429h-237.714v237.714zM865.714 571.429q0-30.286-21.143-51.429l-94.857-94.857-237.714 237.714 94.857 94.286q20.571 21.714 51.429 21.714 30.286 0 52-21.714l134.286-133.714q21.143-22.286 21.143-52z" />
<glyph unicode="&#xf041;" glyph-name="uniF041" horiz-adv-x="585" d="M438.857 498.286q0 60.571-42.857 103.429t-103.429 42.857-103.429-42.857-42.857-103.429 42.857-103.429 103.429-42.857 103.429 42.857 42.857 103.429zM585.143 498.286q0-62.286-18.857-102.286l-208-442.286q-9.143-18.857-27.143-29.714t-38.571-10.857-38.571 10.857-26.571 29.714l-208.571 442.286q-18.857 40-18.857 102.286 0 121.143 85.714 206.857t206.857 85.714 206.857-85.714 85.714-206.857z" />
<glyph unicode="&#xf042;" glyph-name="uniF042" d="M438.857 41.143v621.714q-84.571 0-156-41.714t-113.143-113.143-41.714-156 41.714-156 113.143-113.143 156-41.714zM877.714 352q0-119.429-58.857-220.286t-159.714-159.714-220.286-58.857-220.286 58.857-159.714 159.714-58.857 220.286 58.857 220.286 159.714 159.714 220.286 58.857 220.286-58.857 159.714-159.714 58.857-220.286z" />
<glyph unicode="&#xf043;" glyph-name="uniF043" horiz-adv-x="585" d="M292.571 205.714q0 20.571-11.429 39.429-0.571 0.571-8.857 12.857t-14.571 21.714-14.286 25.143-12 28.857q-2.286 9.143-12 9.143t-12-9.143q-4-13.143-12-28.857t-14.286-25.143-14.571-21.714-8.857-12.857q-11.429-18.857-11.429-39.429 0-30.286 21.429-51.714t51.714-21.429 51.714 21.429 21.429 51.714zM585.143 278.857q0-121.143-85.714-206.857t-206.857-85.714-206.857 85.714-85.714 206.857q0 82.857 46.286 157.143 3.429 5.143 35.714 51.714t57.714 86.286 56.857 101.714 47.429 115.143q5.143 17.143 19.429 26.857t29.143 9.714 29.429-9.714 19.143-26.857q16-53.143 47.429-115.143t56.857-101.714 57.714-86.286 35.714-51.714q46.286-72.571 46.286-157.143z" />
<glyph unicode="&#xf044;" glyph-name="uniF044" d="M507.429 187.429l66.286 66.286-86.857 86.857-66.286-66.286v-32h54.857v-54.857h32zM758.857 598.857q-9.143 9.143-18.857-0.571l-200-200q-9.714-9.714-0.571-18.857t18.857 0.571l200 200q9.714 9.714 0.571 18.857zM804.571 259.429v-108.571q0-68-48.286-116.286t-116.286-48.286h-475.429q-68 0-116.286 48.286t-48.286 116.286v475.429q0 68 48.286 116.286t116.286 48.286h475.429q36 0 66.857-14.286 8.571-4 10.286-13.143 1.714-9.714-5.143-16.571l-28-28q-8-8-18.286-4.571-13.143 3.429-25.714 3.429h-475.429q-37.714 0-64.571-26.857t-26.857-64.571v-475.429q0-37.714 26.857-64.571t64.571-26.857h475.429q37.714 0 64.571 26.857t26.857 64.571v72q0 7.429 5.143 12.571l36.571 36.571q8.571 8.571 20 4t11.429-16.571zM749.714 681.143l164.571-164.571-384-384h-164.571v164.571zM1003.429 605.714l-52.571-52.571-164.571 164.571 52.571 52.571q16 16 38.857 16t38.857-16l86.857-86.857q16-16 16-38.857t-16-38.857z" />
<glyph unicode="&#xf045;" glyph-name="uniF045" horiz-adv-x="951" d="M804.571 298.857v-148q0-68-48.286-116.286t-116.286-48.286h-475.429q-68 0-116.286 48.286t-48.286 116.286v475.429q0 68 48.286 116.286t116.286 48.286h145.714q7.429 0 12.857-5.429t5.429-12.857q0-15.429-14.857-18.286-44-14.857-76-34.286-5.714-2.286-9.143-2.286h-64q-37.714 0-64.571-26.857t-26.857-64.571v-475.429q0-37.714 26.857-64.571t64.571-26.857h475.429q37.714 0 64.571 26.857t26.857 64.571v122.286q0 10.857 10.286 16.571 16 7.429 30.857 21.143 9.143 9.143 20 4.571 12-5.143 12-16.571zM940 582.286l-219.429-219.429q-10.286-10.857-25.714-10.857-6.857 0-14.286 2.857-22.286 9.714-22.286 33.714v109.714h-91.429q-184.571 0-250.286-74.857-68-78.286-42.286-270.286 1.714-13.143-11.429-19.429-4.571-1.143-6.857-1.143-9.143 0-14.857 7.429-5.714 8-12 17.714t-22.571 39.143-28.286 56.857-22 65.143-10 69.714q0 28 2 52t8 51.429 16 50.286 26.857 46.571 39.143 42.286 54 35.143 71.143 27.714 91.143 17.429 112.286 6.286h91.429v109.714q0 24 22.286 33.714 7.429 2.857 14.286 2.857 14.857 0 25.714-10.857l219.429-219.429q10.857-10.857 10.857-25.714t-10.857-25.714z" />
<glyph unicode="&#xf046;" glyph-name="uniF046" horiz-adv-x="951" d="M804.571 332.571v-181.714q0-68-48.286-116.286t-116.286-48.286h-475.429q-68 0-116.286 48.286t-48.286 116.286v475.429q0 68 48.286 116.286t116.286 48.286h475.429q36 0 66.857-14.286 8.571-4 10.286-13.143 1.714-9.714-5.143-16.571l-28-28q-5.714-5.714-13.143-5.714-1.714 0-5.143 1.143-13.143 3.429-25.714 3.429h-475.429q-37.714 0-64.571-26.857t-26.857-64.571v-475.429q0-37.714 26.857-64.571t64.571-26.857h475.429q37.714 0 64.571 26.857t26.857 64.571v145.143q0 7.429 5.143 12.571l36.571 36.571q5.714 5.714 13.143 5.714 3.429 0 6.857-1.714 11.429-4.571 11.429-16.571zM936.571 612l-465.143-465.143q-13.714-13.714-32.571-13.714t-32.571 13.714l-245.714 245.714q-13.714 13.714-13.714 32.571t13.714 32.571l62.857 62.857q13.714 13.714 32.571 13.714t32.571-13.714l150.286-150.286 369.714 369.714q13.714 13.714 32.571 13.714t32.571-13.714l62.857-62.857q13.714-13.714 13.714-32.571t-13.714-32.571z" />
<glyph unicode="&#xf047;" glyph-name="uniF047" d="M1024 352q0-14.857-10.857-25.714l-146.286-146.286q-10.857-10.857-25.714-10.857t-25.714 10.857-10.857 25.714v73.143h-219.429v-219.429h73.143q14.857 0 25.714-10.857t10.857-25.714-10.857-25.714l-146.286-146.286q-10.857-10.857-25.714-10.857t-25.714 10.857l-146.286 146.286q-10.857 10.857-10.857 25.714t10.857 25.714 25.714 10.857h73.143v219.429h-219.429v-73.143q0-14.857-10.857-25.714t-25.714-10.857-25.714 10.857l-146.286 146.286q-10.857 10.857-10.857 25.714t10.857 25.714l146.286 146.286q10.857 10.857 25.714 10.857t25.714-10.857 10.857-25.714v-73.143h219.429v219.429h-73.143q-14.857 0-25.714 10.857t-10.857 25.714 10.857 25.714l146.286 146.286q10.857 10.857 25.714 10.857t25.714-10.857l146.286-146.286q10.857-10.857 10.857-25.714t-10.857-25.714-25.714-10.857h-73.143v-219.429h219.429v73.143q0 14.857 10.857 25.714t25.714 10.857 25.714-10.857l146.286-146.286q10.857-10.857 10.857-25.714z" />
<glyph unicode="&#xf048;" glyph-name="uniF048" horiz-adv-x="585" d="M559.429 783.429q10.857 10.857 18.286 7.429t7.429-18.286v-841.143q0-14.857-7.429-18.286t-18.286 7.429l-405.714 405.714q-5.143 5.143-7.429 10.857v-387.429q0-14.857-10.857-25.714t-25.714-10.857h-73.143q-14.857 0-25.714 10.857t-10.857 25.714v804.571q0 14.857 10.857 25.714t25.714 10.857h73.143q14.857 0 25.714-10.857t10.857-25.714v-387.429q2.286 6.286 7.429 10.857z" />
<glyph unicode="&#xf049;" glyph-name="uniF049" d="M998.286 783.429q10.857 10.857 18.286 7.429t7.429-18.286v-841.143q0-14.857-7.429-18.286t-18.286 7.429l-405.714 405.714q-5.143 5.143-7.429 10.857v-405.714q0-14.857-7.429-18.286t-18.286 7.429l-405.714 405.714q-5.143 5.143-7.429 10.857v-387.429q0-14.857-10.857-25.714t-25.714-10.857h-73.143q-14.857 0-25.714 10.857t-10.857 25.714v804.571q0 14.857 10.857 25.714t25.714 10.857h73.143q14.857 0 25.714-10.857t10.857-25.714v-387.429q2.286 6.286 7.429 10.857l405.714 405.714q10.857 10.857 18.286 7.429t7.429-18.286v-405.714q2.286 6.286 7.429 10.857z" />
<glyph unicode="&#xf04a;" glyph-name="uniF04A" horiz-adv-x="951" d="M925.143 783.429q10.857 10.857 18.286 7.429t7.429-18.286v-841.143q0-14.857-7.429-18.286t-18.286 7.429l-405.714 405.714q-4.571 5.143-7.429 10.857v-405.714q0-14.857-7.429-18.286t-18.286 7.429l-405.714 405.714q-10.857 10.857-10.857 25.714t10.857 25.714l405.714 405.714q10.857 10.857 18.286 7.429t7.429-18.286v-405.714q2.857 6.286 7.429 10.857z" />
<glyph unicode="&#xf04b;" glyph-name="uniF04B" horiz-adv-x="805" d="M790.857 334.286l-758.857-421.714q-13.143-7.429-22.571-1.714t-9.429 20.571v841.143q0 14.857 9.429 20.571t22.571-1.714l758.857-421.714q13.143-7.429 13.143-17.714t-13.143-17.714z" />
<glyph unicode="&#xf04c;" glyph-name="uniF04C" d="M877.714 754.286v-804.571q0-14.857-10.857-25.714t-25.714-10.857h-292.571q-14.857 0-25.714 10.857t-10.857 25.714v804.571q0 14.857 10.857 25.714t25.714 10.857h292.571q14.857 0 25.714-10.857t10.857-25.714zM365.714 754.286v-804.571q0-14.857-10.857-25.714t-25.714-10.857h-292.571q-14.857 0-25.714 10.857t-10.857 25.714v804.571q0 14.857 10.857 25.714t25.714 10.857h292.571q14.857 0 25.714-10.857t10.857-25.714z" />
<glyph unicode="&#xf04d;" glyph-name="uniF04D" d="M877.714 754.286v-804.571q0-14.857-10.857-25.714t-25.714-10.857h-804.571q-14.857 0-25.714 10.857t-10.857 25.714v804.571q0 14.857 10.857 25.714t25.714 10.857h804.571q14.857 0 25.714-10.857t10.857-25.714z" />
<glyph unicode="&#xf04e;" glyph-name="uniF04E" horiz-adv-x="951" d="M25.714-79.429q-10.857-10.857-18.286-7.429t-7.429 18.286v841.143q0 14.857 7.429 18.286t18.286-7.429l405.714-405.714q4.571-4.571 7.429-10.857v405.714q0 14.857 7.429 18.286t18.286-7.429l405.714-405.714q10.857-10.857 10.857-25.714t-10.857-25.714l-405.714-405.714q-10.857-10.857-18.286-7.429t-7.429 18.286v405.714q-2.857-5.714-7.429-10.857z" />
<glyph unicode="&#xf050;" glyph-name="uniF050" d="M25.714-79.429q-10.857-10.857-18.286-7.429t-7.429 18.286v841.143q0 14.857 7.429 18.286t18.286-7.429l405.714-405.714q4.571-4.571 7.429-10.857v405.714q0 14.857 7.429 18.286t18.286-7.429l405.714-405.714q4.571-4.571 7.429-10.857v387.429q0 14.857 10.857 25.714t25.714 10.857h73.143q14.857 0 25.714-10.857t10.857-25.714v-804.571q0-14.857-10.857-25.714t-25.714-10.857h-73.143q-14.857 0-25.714 10.857t-10.857 25.714v387.429q-2.857-5.714-7.429-10.857l-405.714-405.714q-10.857-10.857-18.286-7.429t-7.429 18.286v405.714q-2.857-5.714-7.429-10.857z" />
<glyph unicode="&#xf051;" glyph-name="uniF051" horiz-adv-x="585" d="M25.714-79.429q-10.857-10.857-18.286-7.429t-7.429 18.286v841.143q0 14.857 7.429 18.286t18.286-7.429l405.714-405.714q4.571-4.571 7.429-10.857v387.429q0 14.857 10.857 25.714t25.714 10.857h73.143q14.857 0 25.714-10.857t10.857-25.714v-804.571q0-14.857-10.857-25.714t-25.714-10.857h-73.143q-14.857 0-25.714 10.857t-10.857 25.714v387.429q-2.857-5.714-7.429-10.857z" />
<glyph unicode="&#xf052;" glyph-name="uniF052" horiz-adv-x="879" d="M8 304.571l405.714 405.714q10.857 10.857 25.714 10.857t25.714-10.857l405.714-405.714q10.857-10.857 7.429-18.286t-18.286-7.429h-841.143q-14.857 0-18.286 7.429t7.429 18.286zM841.714-13.714h-804.571q-14.857 0-25.714 10.857t-10.857 25.714v146.286q0 14.857 10.857 25.714t25.714 10.857h804.571q14.857 0 25.714-10.857t10.857-25.714v-146.286q0-14.857-10.857-25.714t-25.714-10.857z" />
<glyph unicode="&#xf053;" glyph-name="uniF053" horiz-adv-x="731" d="M669.143 692l-303.429-303.429 303.429-303.429q10.857-10.857 10.857-25.714t-10.857-25.714l-94.857-94.857q-10.857-10.857-25.714-10.857t-25.714 10.857l-424 424q-10.857 10.857-10.857 25.714t10.857 25.714l424 424q10.857 10.857 25.714 10.857t25.714-10.857l94.857-94.857q10.857-10.857 10.857-25.714t-10.857-25.714z" />
<glyph unicode="&#xf054;" glyph-name="uniF054" horiz-adv-x="731" d="M632.571 362.857l-424-424q-10.857-10.857-25.714-10.857t-25.714 10.857l-94.857 94.857q-10.857 10.857-10.857 25.714t10.857 25.714l303.429 303.429-303.429 303.429q-10.857 10.857-10.857 25.714t10.857 25.714l94.857 94.857q10.857 10.857 25.714 10.857t25.714-10.857l424-424q10.857-10.857 10.857-25.714t-10.857-25.714z" />
<glyph unicode="&#xf055;" glyph-name="uniF055" d="M694.857 315.429v73.143q0 14.857-10.857 25.714t-25.714 10.857h-146.286v146.286q0 14.857-10.857 25.714t-25.714 10.857h-73.143q-14.857 0-25.714-10.857t-10.857-25.714v-146.286h-146.286q-14.857 0-25.714-10.857t-10.857-25.714v-73.143q0-14.857 10.857-25.714t25.714-10.857h146.286v-146.286q0-14.857 10.857-25.714t25.714-10.857h73.143q14.857 0 25.714 10.857t10.857 25.714v146.286h146.286q14.857 0 25.714 10.857t10.857 25.714zM877.714 352q0-119.429-58.857-220.286t-159.714-159.714-220.286-58.857-220.286 58.857-159.714 159.714-58.857 220.286 58.857 220.286 159.714 159.714 220.286 58.857 220.286-58.857 159.714-159.714 58.857-220.286z" />
<glyph unicode="&#xf056;" glyph-name="uniF056" d="M694.857 315.429v73.143q0 14.857-10.857 25.714t-25.714 10.857h-438.857q-14.857 0-25.714-10.857t-10.857-25.714v-73.143q0-14.857 10.857-25.714t25.714-10.857h438.857q14.857 0 25.714 10.857t10.857 25.714zM877.714 352q0-119.429-58.857-220.286t-159.714-159.714-220.286-58.857-220.286 58.857-159.714 159.714-58.857 220.286 58.857 220.286 159.714 159.714 220.286 58.857 220.286-58.857 159.714-159.714 58.857-220.286z" />
<glyph unicode="&#xf057;" glyph-name="uniF057" d="M656.571 222.857q0 14.857-10.857 25.714l-103.429 103.429 103.429 103.429q10.857 10.857 10.857 25.714 0 15.429-10.857 26.286l-51.429 51.429q-10.857 10.857-26.286 10.857-14.857 0-25.714-10.857l-103.429-103.429-103.429 103.429q-10.857 10.857-25.714 10.857-15.429 0-26.286-10.857l-51.429-51.429q-10.857-10.857-10.857-26.286 0-14.857 10.857-25.714l103.429-103.429-103.429-103.429q-10.857-10.857-10.857-25.714 0-15.429 10.857-26.286l51.429-51.429q10.857-10.857 26.286-10.857 14.857 0 25.714 10.857l103.429 103.429 103.429-103.429q10.857-10.857 25.714-10.857 15.429 0 26.286 10.857l51.429 51.429q10.857 10.857 10.857 26.286zM877.714 352q0-119.429-58.857-220.286t-159.714-159.714-220.286-58.857-220.286 58.857-159.714 159.714-58.857 220.286 58.857 220.286 159.714 159.714 220.286 58.857 220.286-58.857 159.714-159.714 58.857-220.286z" />
<glyph unicode="&#xf058;" glyph-name="uniF058" d="M733.714 444.571q0 16-10.286 26.286l-52 51.429q-10.857 10.857-25.714 10.857t-25.714-10.857l-233.143-232.571-129.143 129.143q-10.857 10.857-25.714 10.857t-25.714-10.857l-52-51.429q-10.286-10.286-10.286-26.286 0-15.429 10.286-25.714l206.857-206.857q10.857-10.857 25.714-10.857 15.429 0 26.286 10.857l310.286 310.286q10.286 10.286 10.286 25.714zM877.714 352q0-119.429-58.857-220.286t-159.714-159.714-220.286-58.857-220.286 58.857-159.714 159.714-58.857 220.286 58.857 220.286 159.714 159.714 220.286 58.857 220.286-58.857 159.714-159.714 58.857-220.286z" />
<glyph unicode="&#xf059;" glyph-name="uniF059" d="M512 77.714v109.714q0 8-5.143 13.143t-13.143 5.143h-109.714q-8 0-13.143-5.143t-5.143-13.143v-109.714q0-8 5.143-13.143t13.143-5.143h109.714q8 0 13.143 5.143t5.143 13.143zM658.286 461.714q0 50.286-31.714 93.143t-79.143 66.286-97.143 23.429q-138.857 0-212-121.714-8.571-13.714 4.571-24l75.429-57.143q4-3.429 10.857-3.429 9.143 0 14.286 6.857 30.286 38.857 49.143 52.571 19.429 13.714 49.143 13.714 27.429 0 48.857-14.857t21.429-33.714q0-21.714-11.429-34.857t-38.857-25.714q-36-16-66-49.429t-30-71.714v-20.571q0-8 5.143-13.143t13.143-5.143h109.714q8 0 13.143 5.143t5.143 13.143q0 10.857 12.286 28.286t31.143 28.286q18.286 10.286 28 16.286t26.286 20 25.429 27.429 16 34.571 7.143 46.286zM877.714 352q0-119.429-58.857-220.286t-159.714-159.714-220.286-58.857-220.286 58.857-159.714 159.714-58.857 220.286 58.857 220.286 159.714 159.714 220.286 58.857 220.286-58.857 159.714-159.714 58.857-220.286z" />
<glyph unicode="&#xf05a;" glyph-name="uniF05A" d="M585.143 77.714v91.429q0 8-5.143 13.143t-13.143 5.143h-54.857v292.571q0 8-5.143 13.143t-13.143 5.143h-182.857q-8 0-13.143-5.143t-5.143-13.143v-91.429q0-8 5.143-13.143t13.143-5.143h54.857v-182.857h-54.857q-8 0-13.143-5.143t-5.143-13.143v-91.429q0-8 5.143-13.143t13.143-5.143h256q8 0 13.143 5.143t5.143 13.143zM512 589.714v91.429q0 8-5.143 13.143t-13.143 5.143h-109.714q-8 0-13.143-5.143t-5.143-13.143v-91.429q0-8 5.143-13.143t13.143-5.143h109.714q8 0 13.143 5.143t5.143 13.143zM877.714 352q0-119.429-58.857-220.286t-159.714-159.714-220.286-58.857-220.286 58.857-159.714 159.714-58.857 220.286 58.857 220.286 159.714 159.714 220.286 58.857 220.286-58.857 159.714-159.714 58.857-220.286z" />
<glyph unicode="&#xf05b;" glyph-name="uniF05B" d="M684 278.857h-62.286q-14.857 0-25.714 10.857t-10.857 25.714v73.143q0 14.857 10.857 25.714t25.714 10.857h62.286q-18.286 61.714-64.286 107.714t-107.714 64.286v-62.286q0-14.857-10.857-25.714t-25.714-10.857h-73.143q-14.857 0-25.714 10.857t-10.857 25.714v62.286q-61.714-18.286-107.714-64.286t-64.286-107.714h62.286q14.857 0 25.714-10.857t10.857-25.714v-73.143q0-14.857-10.857-25.714t-25.714-10.857h-62.286q18.286-61.714 64.286-107.714t107.714-64.286v62.286q0 14.857 10.857 25.714t25.714 10.857h73.143q14.857 0 25.714-10.857t10.857-25.714v-62.286q61.714 18.286 107.714 64.286t64.286 107.714zM877.714 388.571v-73.143q0-14.857-10.857-25.714t-25.714-10.857h-81.714q-21.143-92-88.286-159.143t-159.143-88.286v-81.714q0-14.857-10.857-25.714t-25.714-10.857h-73.143q-14.857 0-25.714 10.857t-10.857 25.714v81.714q-92 21.143-159.143 88.286t-88.286 159.143h-81.714q-14.857 0-25.714 10.857t-10.857 25.714v73.143q0 14.857 10.857 25.714t25.714 10.857h81.714q21.143 92 88.286 159.143t159.143 88.286v81.714q0 14.857 10.857 25.714t25.714 10.857h73.143q14.857 0 25.714-10.857t10.857-25.714v-81.714q92-21.143 159.143-88.286t88.286-159.143h81.714q14.857 0 25.714-10.857t10.857-25.714z" />
<glyph unicode="&#xf05c;" glyph-name="uniF05C" d="M626.857 247.429l-83.429-83.429q-5.714-5.714-13.143-5.714t-13.143 5.714l-78.286 78.286-78.286-78.286q-5.714-5.714-13.143-5.714t-13.143 5.714l-83.429 83.429q-5.714 5.714-5.714 13.143t5.714 13.143l78.286 78.286-78.286 78.286q-5.714 5.714-5.714 13.143t5.714 13.143l83.429 83.429q5.714 5.714 13.143 5.714t13.143-5.714l78.286-78.286 78.286 78.286q5.714 5.714 13.143 5.714t13.143-5.714l83.429-83.429q5.714-5.714 5.714-13.143t-5.714-13.143l-78.286-78.286 78.286-78.286q5.714-5.714 5.714-13.143t-5.714-13.143zM749.714 352q0 84.571-41.714 156t-113.143 113.143-156 41.714-156-41.714-113.143-113.143-41.714-156 41.714-156 113.143-113.143 156-41.714 156 41.714 113.143 113.143 41.714 156zM877.714 352q0-119.429-58.857-220.286t-159.714-159.714-220.286-58.857-220.286 58.857-159.714 159.714-58.857 220.286 58.857 220.286 159.714 159.714 220.286 58.857 220.286-58.857 159.714-159.714 58.857-220.286z" />
<glyph unicode="&#xf05d;" glyph-name="uniF05D" d="M669.143 399.429l-241.143-241.143q-10.857-10.857-25.714-10.857t-25.714 10.857l-168 168q-10.857 10.857-10.857 25.714t10.857 25.714l58.286 58.286q10.857 10.857 25.714 10.857t25.714-10.857l84-84 157.143 157.143q10.857 10.857 25.714 10.857t25.714-10.857l58.286-58.286q10.857-10.857 10.857-25.714t-10.857-25.714zM749.714 352q0 84.571-41.714 156t-113.143 113.143-156 41.714-156-41.714-113.143-113.143-41.714-156 41.714-156 113.143-113.143 156-41.714 156 41.714 113.143 113.143 41.714 156zM877.714 352q0-119.429-58.857-220.286t-159.714-159.714-220.286-58.857-220.286 58.857-159.714 159.714-58.857 220.286 58.857 220.286 159.714 159.714 220.286 58.857 220.286-58.857 159.714-159.714 58.857-220.286z" />
<glyph unicode="&#xf05e;" glyph-name="uniF05E" d="M749.714 353.714q0 92-49.714 168.571l-430.857-430.286q78.286-50.857 169.714-50.857 63.429 0 120.857 24.857t99.143 66.571 66.286 99.714 24.571 121.429zM178.857 182.857l431.429 430.857q-77.143 52-171.429 52-84.571 0-156-41.714t-113.143-113.714-41.714-156.571q0-92.571 50.857-170.857zM877.714 353.714q0-89.714-34.857-171.429t-93.429-140.571-140-93.714-170.571-34.857-170.571 34.857-140 93.714-93.429 140.571-34.857 171.429 34.857 171.143 93.429 140.286 140 93.714 170.571 34.857 170.571-34.857 140-93.714 93.429-140.286 34.857-171.143z" />
<glyph unicode="&#xf060;" glyph-name="uniF060" d="M877.714 352v-73.143q0-30.286-18.571-51.714t-48.286-21.429h-402.286l167.429-168q21.714-20.571 21.714-51.429t-21.714-51.429l-42.857-43.429q-21.143-21.143-51.429-21.143-29.714 0-52 21.143l-372 372.571q-21.143 21.143-21.143 51.429 0 29.714 21.143 52l372 371.429q21.714 21.714 52 21.714 29.714 0 51.429-21.714l42.857-42.286q21.714-21.714 21.714-52t-21.714-52l-167.429-167.429h402.286q29.714 0 48.286-21.429t18.571-51.714z" />
<glyph unicode="&#xf061;" glyph-name="uniF061" d="M841.143 315.429q0-30.857-21.143-52l-372-372q-22.286-21.143-52-21.143-29.143 0-51.429 21.143l-42.857 42.857q-21.714 21.714-21.714 52t21.714 52l167.429 167.429h-402.286q-29.714 0-48.286 21.429t-18.571 51.714v73.143q0 30.286 18.571 51.714t48.286 21.429h402.286l-167.429 168q-21.714 20.571-21.714 51.429t21.714 51.429l42.857 42.857q21.714 21.714 51.429 21.714 30.286 0 52-21.714l372-372q21.143-20 21.143-51.429z" />
<glyph unicode="&#xf062;" glyph-name="uniF062" horiz-adv-x="951" d="M920.571 309.143q0-29.143-21.143-51.429l-42.857-42.857q-21.714-21.714-52-21.714-30.857 0-51.429 21.714l-168 167.429v-402.286q0-29.714-21.429-48.286t-51.714-18.571h-73.143q-30.286 0-51.714 18.571t-21.429 48.286v402.286l-168-167.429q-20.571-21.714-51.429-21.714t-51.429 21.714l-42.857 42.857q-21.714 21.714-21.714 51.429 0 30.286 21.714 52l372 372q20 21.143 51.429 21.143 30.857 0 52-21.143l372-372q21.143-22.286 21.143-52z" />
<glyph unicode="&#xf063;" glyph-name="uniF063" horiz-adv-x="951" d="M920.571 388.571q0-30.286-21.143-51.429l-372-372.571q-22.286-21.143-52-21.143-30.286 0-51.429 21.143l-372 372.571q-21.714 20.571-21.714 51.429 0 30.286 21.714 52l42.286 42.857q22.286 21.143 52 21.143 30.286 0 51.429-21.143l168-168v402.286q0 29.714 21.714 51.429t51.429 21.714h73.143q29.714 0 51.429-21.714t21.714-51.429v-402.286l168 168q21.143 21.143 51.429 21.143 29.714 0 52-21.143l42.857-42.857q21.143-22.286 21.143-52z" />
<glyph unicode="&#xf064;" glyph-name="uniF064" d="M1024 498.286q0-14.857-10.857-25.714l-292.571-292.571q-10.857-10.857-25.714-10.857t-25.714 10.857-10.857 25.714v146.286h-128q-56 0-100.286-3.429t-88-12.286-76-24.286-60.286-39.714-45.714-57.714-27.714-79.143-10-103.429q0-31.429 2.857-70.286 0-3.429 1.429-13.429t1.429-15.143q0-8.571-4.857-14.286t-13.429-5.714q-9.143 0-16 9.714-4 5.143-7.429 12.571t-7.714 17.143-6 13.714q-72.571 162.857-72.571 257.714 0 113.714 30.286 190.286 92.571 230.286 500 230.286h128v146.286q0 14.857 10.857 25.714t25.714 10.857 25.714-10.857l292.571-292.571q10.857-10.857 10.857-25.714z" />
<glyph unicode="&#xf065;" glyph-name="uniF065" d="M431.429 260.571q0-7.429-5.714-13.143l-189.714-189.714 82.286-82.286q10.857-10.857 10.857-25.714t-10.857-25.714-25.714-10.857h-256q-14.857 0-25.714 10.857t-10.857 25.714v256q0 14.857 10.857 25.714t25.714 10.857 25.714-10.857l82.286-82.286 189.714 189.714q5.714 5.714 13.143 5.714t13.143-5.714l65.143-65.143q5.714-5.714 5.714-13.143zM877.714 754.286v-256q0-14.857-10.857-25.714t-25.714-10.857-25.714 10.857l-82.286 82.286-189.714-189.714q-5.714-5.714-13.143-5.714t-13.143 5.714l-65.143 65.143q-5.714 5.714-5.714 13.143t5.714 13.143l189.714 189.714-82.286 82.286q-10.857 10.857-10.857 25.714t10.857 25.714 25.714 10.857h256q14.857 0 25.714-10.857t10.857-25.714z" />
<glyph unicode="&#xf066;" glyph-name="uniF066" d="M438.857 315.429v-256q0-14.857-10.857-25.714t-25.714-10.857-25.714 10.857l-82.286 82.286-189.714-189.714q-5.714-5.714-13.143-5.714t-13.143 5.714l-65.143 65.143q-5.714 5.714-5.714 13.143t5.714 13.143l189.714 189.714-82.286 82.286q-10.857 10.857-10.857 25.714t10.857 25.714 25.714 10.857h256q14.857 0 25.714-10.857t10.857-25.714zM870.286 699.429q0-7.429-5.714-13.143l-189.714-189.714 82.286-82.286q10.857-10.857 10.857-25.714t-10.857-25.714-25.714-10.857h-256q-14.857 0-25.714 10.857t-10.857 25.714v256q0 14.857 10.857 25.714t25.714 10.857 25.714-10.857l82.286-82.286 189.714 189.714q5.714 5.714 13.143 5.714t13.143-5.714l65.143-65.143q5.714-5.714 5.714-13.143z" />
<glyph unicode="&#xf067;" glyph-name="uniF067" horiz-adv-x="805" d="M804.571 443.429v-109.714q0-22.857-16-38.857t-38.857-16h-237.714v-237.714q0-22.857-16-38.857t-38.857-16h-109.714q-22.857 0-38.857 16t-16 38.857v237.714h-237.714q-22.857 0-38.857 16t-16 38.857v109.714q0 22.857 16 38.857t38.857 16h237.714v237.714q0 22.857 16 38.857t38.857 16h109.714q22.857 0 38.857-16t16-38.857v-237.714h237.714q22.857 0 38.857-16t16-38.857z" />
<glyph unicode="&#xf068;" glyph-name="uniF068" horiz-adv-x="805" d="M804.571 443.429v-109.714q0-22.857-16-38.857t-38.857-16h-694.857q-22.857 0-38.857 16t-16 38.857v109.714q0 22.857 16 38.857t38.857 16h694.857q22.857 0 38.857-16t16-38.857z" />
<glyph unicode="&#xf069;" glyph-name="uniF069" horiz-adv-x="951" d="M846.857 264q26.286-14.857 34-44.286t-7.143-55.714l-36.571-62.857q-14.857-26.286-44.286-34t-55.714 7.143l-152 87.429v-175.429q0-29.714-21.714-51.429t-51.429-21.714h-73.143q-29.714 0-51.429 21.714t-21.714 51.429v175.429l-152-87.429q-26.286-14.857-55.714-7.143t-44.286 34l-36.571 62.857q-14.857 26.286-7.143 55.714t34 44.286l152 88-152 88q-26.286 14.857-34 44.286t7.143 55.714l36.571 62.857q14.857 26.286 44.286 34t55.714-7.143l152-87.429v175.429q0 29.714 21.714 51.429t51.429 21.714h73.143q29.714 0 51.429-21.714t21.714-51.429v-175.429l152 87.429q26.286 14.857 55.714 7.143t44.286-34l36.571-62.857q14.857-26.286 7.143-55.714t-34-44.286l-152-88z" />
<glyph unicode="&#xf06a;" glyph-name="uniF06A" d="M438.857 790.857q119.429 0 220.286-58.857t159.714-159.714 58.857-220.286-58.857-220.286-159.714-159.714-220.286-58.857-220.286 58.857-159.714 159.714-58.857 220.286 58.857 220.286 159.714 159.714 220.286 58.857zM512 78.286v108.571q0 8-5.143 13.429t-12.571 5.429h-109.714q-7.429 0-13.143-5.714t-5.714-13.143v-108.571q0-7.429 5.714-13.143t13.143-5.714h109.714q7.429 0 12.571 5.429t5.143 13.429zM510.857 274.857l10.286 354.857q0 6.857-5.714 10.286-5.714 4.571-13.714 4.571h-125.714q-8 0-13.714-4.571-5.714-3.429-5.714-10.286l9.714-354.857q0-5.714 5.714-10t13.714-4.286h105.714q8 0 13.429 4.286t6 10z" />
<glyph unicode="&#xf06b;" glyph-name="uniF06B" d="M530.286 89.143v409.143h-182.857v-409.143q0-14.286 10.286-22t26.286-7.714h109.714q16 0 26.286 7.714t10.286 22zM269.714 571.429h111.429l-72 92q-14.857 17.714-39.429 17.714-22.857 0-38.857-16t-16-38.857 16-38.857 38.857-16zM662.857 626.286q0 22.857-16 38.857t-38.857 16q-24.571 0-39.429-17.714l-71.429-92h110.857q22.857 0 38.857 16t16 38.857zM877.714 480v-182.857q0-8-5.143-13.143t-13.143-5.143h-54.857v-237.714q0-22.857-16-38.857t-38.857-16h-621.714q-22.857 0-38.857 16t-16 38.857v237.714h-54.857q-8 0-13.143 5.143t-5.143 13.143v182.857q0 8 5.143 13.143t13.143 5.143h251.429q-53.143 0-90.571 37.429t-37.429 90.571 37.429 90.571 90.571 37.429q61.143 0 96-44l73.143-94.286 73.143 94.286q34.857 44 96 44 53.143 0 90.571-37.429t37.429-90.571-37.429-90.571-90.571-37.429h251.429q8 0 13.143-5.143t5.143-13.143z" />
<glyph unicode="&#xf06c;" glyph-name="uniF06C" d="M731.429 461.714q0 14.857-10.857 25.714t-25.714 10.857q-98.286 0-181.714-28.286t-148.286-76.571-134.571-125.429q-10.857-12-10.857-25.714 0-14.857 10.857-25.714t25.714-10.857q13.714 0 25.714 10.857 15.429 13.714 42.286 40.571t38.286 37.714q78.286 70.857 153.429 100.571t179.143 29.714q14.857 0 25.714 10.857t10.857 25.714zM1024 574.857q0-54.286-11.429-110.286-26.286-128-105.429-218.857t-204.286-153.143q-122.286-61.714-250.286-61.714-84.571 0-163.429 26.857-8.571 2.857-50.286 24t-54.857 21.143q-9.143 0-22.571-18.286t-25.714-40-30-40-34.286-18.286q-17.143 0-29.143 6.286t-17.714 13.714-15.429 24q-1.143 2.286-3.429 6.286t-3.143 5.714-1.714 5.429-0.857 7.714q0 20 17.714 42t38.857 37.429 38.857 32 17.714 27.429q0 2.286-8 21.714t-9.143 25.143q-5.143 29.143-5.143 59.429 0 65.714 24.857 125.714t68 105.429 97.429 79.429 116.571 54.571q31.429 10.286 82.857 14.571t102.571 5.143 102 3.429 93.429 13.714 64.857 32.286l16.857 16.857t16.857 16 15.429 11.429 20.857 9.143 24.857 2.571q22.286 0 40.286-26.286t27.143-64 13.714-70.857 4.571-54.857z" />
<glyph unicode="&#xf06d;" glyph-name="uniF06D" horiz-adv-x="805" d="M804.571-105.143v-36.571q0-7.429-5.429-12.857t-12.857-5.429h-768q-7.429 0-12.857 5.429t-5.429 12.857v36.571q0 7.429 5.429 12.857t12.857 5.429h768q7.429 0 12.857-5.429t5.429-12.857zM658.286 498.286q0-44.571-14-82.286t-36.571-64.286-50-50.286-54.857-44.286-50-41.143-36.571-46.571-14-55.143q0-54.857 38.286-128l-2.286 0.571 0.571-0.571q-51.429 23.429-91.429 47.429t-79.143 57.143-64.857 70-41.429 86-15.714 105.143q0 44.571 14 82.286t36.571 64.286 50 50.286 54.857 44.286 50 41.143 36.571 46.571 14 55.143q0 53.714-37.714 128l1.714-0.571-0.571 0.571q51.429-23.429 91.429-47.429t79.143-57.143 64.857-70 41.429-86 15.714-105.143z" />
<glyph unicode="&#xf06e;" glyph-name="uniF06E" d="M950.857 315.429q-86.857 134.857-217.714 201.714 34.857-59.429 34.857-128.571 0-105.714-75.143-180.857t-180.857-75.143-180.857 75.143-75.143 180.857q0 69.143 34.857 128.571-130.857-66.857-217.714-201.714 76-117.143 190.571-186.571t248.286-69.429 248.286 69.429 190.571 186.571zM539.429 534.857q0 11.429-8 19.429t-19.429 8q-71.429 0-122.571-51.143t-51.143-122.571q0-11.429 8-19.429t19.429-8 19.429 8 8 19.429q0 49.143 34.857 84t84 34.857q11.429 0 19.429 8t8 19.429zM1024 315.429q0-19.429-11.429-39.429-80-131.429-215.143-210.571t-285.429-79.143-285.429 79.429-215.143 210.286q-11.429 20-11.429 39.429t11.429 39.429q80 130.857 215.143 210.286t285.429 79.429 285.429-79.429 215.143-210.286q11.429-20 11.429-39.429z" />
<glyph unicode="&#xf070;" glyph-name="uniF070" d="M317.143 101.143l44.571 80.571q-49.714 36-77.714 90.857t-28 116q0 69.143 34.857 128.571-130.857-66.857-217.714-201.714 95.429-147.429 244-214.286zM539.429 534.857q0 11.429-8 19.429t-19.429 8q-71.429 0-122.571-51.143t-51.143-122.571q0-11.429 8-19.429t19.429-8 19.429 8 8 19.429q0 49.143 34.857 84t84 34.857q11.429 0 19.429 8t8 19.429zM746.857 644q0-4-0.571-5.143-60-107.429-180-323.429t-180.571-324l-28-50.857q-5.714-9.143-16-9.143-6.857 0-76.571 40-9.143 5.714-9.143 16 0 6.857 25.143 49.714-81.714 37.143-150.571 98.857t-119.143 140q-11.429 17.714-11.429 39.429t11.429 39.429q87.429 134.286 217.143 212t283.429 77.714q50.857 0 102.857-9.714l30.857 55.429q5.714 9.143 16 9.143 2.857 0 10.286-3.429t17.714-8.857 18.857-10.571 18-10.571 11.143-6.571q9.143-5.714 9.143-15.429zM768 388.571q0-79.429-45.143-144.857t-119.429-94l160 286.857q4.571-25.714 4.571-48zM1024 315.429q0-20-11.429-39.429-22.286-36.571-62.286-82.857-85.714-98.286-198.571-152.571t-239.714-54.286l42.286 75.429q121.143 10.286 224.286 78.286t172.286 175.429q-65.714 102.286-161.143 168l36 64q54.286-36.571 104.286-87.429t82.571-105.143q11.429-19.429 11.429-39.429z" />
<glyph unicode="&#xf071;" glyph-name="uniF071" d="M585.143 78.286v108.571q0 8-5.429 13.429t-12.857 5.429h-109.714q-7.429 0-12.857-5.429t-5.429-13.429v-108.571q0-8 5.429-13.429t12.857-5.429h109.714q7.429 0 12.857 5.429t5.429 13.429zM584 292l10.286 262.286q0 6.857-5.714 10.857-7.429 6.286-13.714 6.286h-125.714q-6.286 0-13.714-6.286-5.714-4-5.714-12l9.714-261.143q0-5.714 5.714-9.429t13.714-3.714h105.714q8 0 13.429 3.714t6 9.429zM576 825.714l438.857-804.571q20-36-1.143-72-9.714-16.571-26.571-26.286t-36.286-9.714h-877.714q-19.429 0-36.286 9.714t-26.571 26.286q-21.143 36-1.143 72l438.857 804.571q9.714 17.714 26.857 28t37.143 10.286 37.143-10.286 26.857-28z" />
<glyph unicode="&#xf072;" glyph-name="uniF072" horiz-adv-x="805" d="M786.286 772.571q25.143-29.714 6.857-84.571t-61.714-98.286l-92-92 91.429-397.714q2.857-10.857-6.857-18.857l-73.143-54.857q-4-3.429-10.857-3.429-2.286 0-4 0.571-8.571 1.714-12 9.143l-159.429 290.286-148-148 30.286-110.857q2.857-9.714-4.571-17.714l-54.857-54.857q-5.143-5.143-13.143-5.143h-1.143q-8.571 1.143-13.714 7.429l-108 144-144 108q-6.286 4-7.429 13.143-0.571 7.429 5.143 14.286l54.857 55.429q5.143 5.143 13.143 5.143 3.429 0 4.571-0.571l110.857-30.286 148 148-290.286 159.429q-8 4.571-9.714 13.714-1.143 9.143 5.143 15.429l73.143 73.143q8 7.429 17.143 4.571l380-90.857 91.429 91.429q43.429 43.429 98.286 61.714t84.571-6.857z" />
<glyph unicode="&#xf073;" glyph-name="uniF073" horiz-adv-x="951" d="M73.143-86.857h164.571v164.571h-164.571v-164.571zM274.286-86.857h182.857v164.571h-182.857v-164.571zM73.143 114.286h164.571v182.857h-164.571v-182.857zM274.286 114.286h182.857v182.857h-182.857v-182.857zM73.143 333.714h164.571v164.571h-164.571v-164.571zM493.714-86.857h182.857v164.571h-182.857v-164.571zM274.286 333.714h182.857v164.571h-182.857v-164.571zM713.143-86.857h164.571v164.571h-164.571v-164.571zM493.714 114.286h182.857v182.857h-182.857v-182.857zM292.571 608v164.571q0 7.429-5.429 12.857t-12.857 5.429h-36.571q-7.429 0-12.857-5.429t-5.429-12.857v-164.571q0-7.429 5.429-12.857t12.857-5.429h36.571q7.429 0 12.857 5.429t5.429 12.857zM713.143 114.286h164.571v182.857h-164.571v-182.857zM493.714 333.714h182.857v164.571h-182.857v-164.571zM713.143 333.714h164.571v164.571h-164.571v-164.571zM731.429 608v164.571q0 7.429-5.429 12.857t-12.857 5.429h-36.571q-7.429 0-12.857-5.429t-5.429-12.857v-164.571q0-7.429 5.429-12.857t12.857-5.429h36.571q7.429 0 12.857 5.429t5.429 12.857zM950.857 644.571v-731.429q0-29.714-21.714-51.429t-51.429-21.714h-804.571q-29.714 0-51.429 21.714t-21.714 51.429v731.429q0 29.714 21.714 51.429t51.429 21.714h73.143v54.857q0 37.714 26.857 64.571t64.571 26.857h36.571q37.714 0 64.571-26.857t26.857-64.571v-54.857h219.429v54.857q0 37.714 26.857 64.571t64.571 26.857h36.571q37.714 0 64.571-26.857t26.857-64.571v-54.857h73.143q29.714 0 51.429-21.714t21.714-51.429z" />
<glyph unicode="&#xf074;" glyph-name="uniF074" d="M380.571 589.143q-34.286-52.571-78.286-156-12.571 25.714-21.143 41.429t-23.143 36.286-29.143 32.286-36 20-46.571 8.286h-128q-8 0-13.143 5.143t-5.143 13.143v109.714q0 8 5.143 13.143t13.143 5.143h128q142.857 0 234.286-128.571zM1024 132.571q0-8-5.143-13.143l-182.857-182.857q-5.143-5.143-13.143-5.143-7.429 0-12.857 5.429t-5.429 12.857v109.714q-18.286 0-48.571-0.286t-46.286-0.571-41.714 0.571-40.571 2.857-36.571 6-36 10.571-33.143 16.286-33.714 22.857-31.429 30.571-32 39.714q33.714 53.143 77.714 156 12.571-25.714 21.143-41.429t23.143-36.286 29.143-32.286 36-20 46.571-8.286h146.286v109.714q0 8 5.143 13.143t13.143 5.143q6.857 0 13.714-5.714l182.286-182.286q5.143-5.143 5.143-13.143zM1024 644.571q0-8-5.143-13.143l-182.857-182.857q-5.143-5.143-13.143-5.143-7.429 0-12.857 5.429t-5.429 12.857v109.714h-146.286q-27.429 0-49.714-8.571t-39.429-25.714-29.143-35.143-25.714-44.286q-18.286-35.429-44.571-97.714-16.571-37.714-28.286-63.429t-30.857-60-36.571-57.143-42.286-47.429-51.429-39.143-60.857-24-73.143-9.429h-128q-8 0-13.143 5.143t-5.143 13.143v109.714q0 8 5.143 13.143t13.143 5.143h128q27.429 0 49.714 8.571t39.429 25.714 29.143 35.143 25.714 44.286q18.286 35.429 44.571 97.714 16.571 37.714 28.286 63.429t30.857 60 36.571 57.143 42.286 47.429 51.429 39.143 60.857 24 73.143 9.429h146.286v109.714q0 8 5.143 13.143t13.143 5.143q6.857 0 13.714-5.714l182.286-182.286q5.143-5.143 5.143-13.143z" />
<glyph unicode="&#xf075;" glyph-name="uniF075" d="M1024 352q0-99.429-68.571-183.714t-186.286-133.143-257.143-48.857q-40 0-82.857 4.571-113.143-100-262.857-138.286-28-8-65.143-12.571-9.714-1.143-17.429 5.143t-10 16.571v0.571q-1.714 2.286-0.286 6.857t1.143 5.714 2.571 5.429l3.429 5.143t4 4.857 4.571 5.143q4 4.571 17.714 19.714t19.714 21.714 17.714 22.571 18.571 29.143 15.429 33.714 14.857 43.429q-89.714 50.857-141.429 125.714t-51.714 160.571q0 74.286 40.571 142t109.143 116.857 163.429 78 198.857 28.857q139.429 0 257.143-48.857t186.286-133.143 68.571-183.714z" />
<glyph unicode="&#xf076;" glyph-name="uniF076" d="M877.714 388.571v-73.143q0-114.857-56.286-206.857t-156.571-143.714-226-51.714-226 51.714-156.571 143.714-56.286 206.857v73.143q0 14.857 10.857 25.714t25.714 10.857h219.429q14.857 0 25.714-10.857t10.857-25.714v-73.143q0-29.714 13.429-51.429t30.571-32.571 40.571-17.143 36.571-7.429 25.143-1.143 25.143 1.143 36.571 7.429 40.571 17.143 30.571 32.571 13.429 51.429v73.143q0 14.857 10.857 25.714t25.714 10.857h219.429q14.857 0 25.714-10.857t10.857-25.714zM292.571 754.286v-219.429q0-14.857-10.857-25.714t-25.714-10.857h-219.429q-14.857 0-25.714 10.857t-10.857 25.714v219.429q0 14.857 10.857 25.714t25.714 10.857h219.429q14.857 0 25.714-10.857t10.857-25.714zM877.714 754.286v-219.429q0-14.857-10.857-25.714t-25.714-10.857h-219.429q-14.857 0-25.714 10.857t-10.857 25.714v219.429q0 14.857 10.857 25.714t25.714 10.857h219.429q14.857 0 25.714-10.857t10.857-25.714z" />
<glyph unicode="&#xf077;" glyph-name="uniF077" d="M961.714 103.429l-94.857-94.286q-10.857-10.857-25.714-10.857t-25.714 10.857l-303.429 303.429-303.429-303.429q-10.857-10.857-25.714-10.857t-25.714 10.857l-94.857 94.286q-10.857 10.857-10.857 26t10.857 26l424 423.429q10.857 10.857 25.714 10.857t25.714-10.857l424-423.429q10.857-10.857 10.857-26t-10.857-26z" />
<glyph unicode="&#xf078;" glyph-name="uniF078" d="M961.714 402.286l-424-423.429q-10.857-10.857-25.714-10.857t-25.714 10.857l-424 423.429q-10.857 10.857-10.857 26t10.857 26l94.857 94.286q10.857 10.857 25.714 10.857t25.714-10.857l303.429-303.429 303.429 303.429q10.857 10.857 25.714 10.857t25.714-10.857l94.857-94.286q10.857-10.857 10.857-26t-10.857-26z" />
<glyph unicode="&#xf079;" glyph-name="uniF079" horiz-adv-x="1097" d="M731.429 4.571q0-7.429-5.429-12.857t-12.857-5.429h-548.571q-4.571 0-7.714 1.143t-5.143 4-3.143 4.571-1.714 6.571-0.571 6.571v342.857h-109.714q-14.857 0-25.714 10.857t-10.857 25.714q0 13.714 8.571 23.429l182.857 219.429q10.857 12.571 28 12.571t28-12.571l182.857-219.429q8.571-9.714 8.571-23.429 0-14.857-10.857-25.714t-25.714-10.857h-109.714v-219.429h329.143q9.143 0 14.286-6.286l91.429-109.714q4-6.286 4-12zM1097.143 242.286q0-13.714-8.571-23.429l-182.857-219.429q-11.429-13.143-28-13.143t-28 13.143l-182.857 219.429q-8.571 9.714-8.571 23.429 0 14.857 10.857 25.714t25.714 10.857h109.714v219.429h-329.143q-9.143 0-14.286 6.857l-91.429 109.714q-4 5.143-4 11.429 0 7.429 5.429 12.857t12.857 5.429h548.571q4.571 0 7.714-1.143t5.143-4 3.143-4.571 1.714-6.571 0.571-6.571v-342.857h109.714q14.857 0 25.714-10.857t10.857-25.714z" />
<glyph unicode="&#xf07a;" glyph-name="uniF07A" horiz-adv-x="951" d="M365.714-13.714q0-29.714-21.714-51.429t-51.429-21.714-51.429 21.714-21.714 51.429 21.714 51.429 51.429 21.714 51.429-21.714 21.714-51.429zM877.714-13.714q0-29.714-21.714-51.429t-51.429-21.714-51.429 21.714-21.714 51.429 21.714 51.429 51.429 21.714 51.429-21.714 21.714-51.429zM950.857 608v-292.571q0-13.714-9.429-24.286t-23.143-12.286l-596.571-69.714q7.429-34.286 7.429-40 0-9.143-13.714-36.571h525.714q14.857 0 25.714-10.857t10.857-25.714-10.857-25.714-25.714-10.857h-585.143q-14.857 0-25.714 10.857t-10.857 25.714q0 6.286 4.571 18t9.143 20.571 12.286 22.857 8.857 16.857l-101.143 470.286h-116.571q-14.857 0-25.714 10.857t-10.857 25.714 10.857 25.714 25.714 10.857h146.286q9.143 0 16.286-3.714t11.143-8.857 7.429-14 4.571-14.857 3.143-16.857 2.571-14.857h686.286q14.857 0 25.714-10.857t10.857-25.714z" />
<glyph unicode="&#xf07b;" glyph-name="uniF07B" horiz-adv-x="951" d="M950.857 516.571v-402.286q0-52.571-37.714-90.286t-90.286-37.714h-694.857q-52.571 0-90.286 37.714t-37.714 90.286v548.571q0 52.571 37.714 90.286t90.286 37.714h182.857q52.571 0 90.286-37.714t37.714-90.286v-18.286h384q52.571 0 90.286-37.714t37.714-90.286z" />
<glyph unicode="&#xf07c;" glyph-name="uniF07C" horiz-adv-x="1097" d="M1073.714 320q0-17.714-17.714-37.714l-192-226.286q-24.571-29.143-68.857-49.429t-82-20.286h-621.714q-19.429 0-34.571 7.429t-15.143 24.571q0 17.714 17.714 37.714l192 226.286q24.571 29.143 68.857 49.429t82 20.286h621.714q19.429 0 34.571-7.429t15.143-24.571zM877.714 516.571v-91.429h-475.429q-53.714 0-112.571-27.143t-93.714-68.286l-195.429-229.714q0 2.286-0.286 7.143t-0.286 7.143v548.571q0 52.571 37.714 90.286t90.286 37.714h182.857q52.571 0 90.286-37.714t37.714-90.286v-18.286h310.857q52.571 0 90.286-37.714t37.714-90.286z" />
<glyph unicode="&#xf07d;" glyph-name="uniF07D" horiz-adv-x="439" d="M402.286 681.143q0-14.857-10.857-25.714t-25.714-10.857h-73.143v-585.143h73.143q14.857 0 25.714-10.857t10.857-25.714-10.857-25.714l-146.286-146.286q-10.857-10.857-25.714-10.857t-25.714 10.857l-146.286 146.286q-10.857 10.857-10.857 25.714t10.857 25.714 25.714 10.857h73.143v585.143h-73.143q-14.857 0-25.714 10.857t-10.857 25.714 10.857 25.714l146.286 146.286q10.857 10.857 25.714 10.857t25.714-10.857l146.286-146.286q10.857-10.857 10.857-25.714z" />
<glyph unicode="&#xf07e;" glyph-name="uniF07E" d="M1024 352q0-14.857-10.857-25.714l-146.286-146.286q-10.857-10.857-25.714-10.857t-25.714 10.857-10.857 25.714v73.143h-585.143v-73.143q0-14.857-10.857-25.714t-25.714-10.857-25.714 10.857l-146.286 146.286q-10.857 10.857-10.857 25.714t10.857 25.714l146.286 146.286q10.857 10.857 25.714 10.857t25.714-10.857 10.857-25.714v-73.143h585.143v73.143q0 14.857 10.857 25.714t25.714 10.857 25.714-10.857l146.286-146.286q10.857-10.857 10.857-25.714z" />
<glyph unicode="&#xf080;" glyph-name="uniF080" horiz-adv-x="1170" d="M365.714 352v-292.571h-146.286v292.571h146.286zM585.143 644.571v-585.143h-146.286v585.143h146.286zM1170.286-13.714v-73.143h-1170.286v877.714h73.143v-804.571h1097.143zM804.571 498.286v-438.857h-146.286v438.857h146.286zM1024 717.714v-658.286h-146.286v658.286h146.286z" />
<glyph unicode="&#xf081;" glyph-name="uniF081" d="M731.429 515.429q-32-14.286-69.143-19.429 38.857 22.857 53.143 66.857-37.143-21.714-76.571-29.143-34.857 37.714-87.429 37.714-49.714 0-84.857-35.143t-35.143-84.857q0-16.571 2.857-27.429-73.714 4-138.286 37.143t-109.714 88.571q-16.571-28.571-16.571-60.571 0-65.143 52-100-26.857 0.571-57.143 14.857v-1.143q0-42.857 28.571-76.286t70.286-41.429q-16.571-4.571-29.143-4.571-7.429 0-22.286 2.286 12-36 42.571-59.429t69.429-24q-66.286-51.429-149.143-51.429-14.857 0-28.571 1.714 84.571-53.714 184-53.714 64 0 120 20.286t96 54.286 68.857 78.286 42.857 92.571 14 96.286q0 10.286-0.571 15.429 36 25.714 60 62.286zM877.714 626.286v-548.571q0-68-48.286-116.286t-116.286-48.286h-548.571q-68 0-116.286 48.286t-48.286 116.286v548.571q0 68 48.286 116.286t116.286 48.286h548.571q68 0 116.286-48.286t48.286-116.286z" />
<glyph unicode="&#xf082;" glyph-name="uniF082" d="M713.143 790.857q68 0 116.286-48.286t48.286-116.286v-548.571q0-68-48.286-116.286t-116.286-48.286h-107.429v340h113.714l17.143 132.571h-130.857v84.571q0 32 13.429 48t52.286 16l69.714 0.571v118.286q-36 5.143-101.714 5.143-77.714 0-124.286-45.714t-46.571-129.143v-97.714h-114.286v-132.571h114.286v-340h-304q-68 0-116.286 48.286t-48.286 116.286v548.571q0 68 48.286 116.286t116.286 48.286h548.571z" />
<glyph unicode="&#xf083;" glyph-name="uniF083" d="M530.286 388.571q0 8-5.143 13.143t-13.143 5.143q-37.714 0-64.571-26.857t-26.857-64.571q0-8 5.143-13.143t13.143-5.143 13.143 5.143 5.143 13.143q0 22.857 16 38.857t38.857 16q8 0 13.143 5.143t5.143 13.143zM658.286 314.286q0-60.571-42.857-103.429t-103.429-42.857-103.429 42.857-42.857 103.429 42.857 103.429 103.429 42.857 103.429-42.857 42.857-103.429zM73.143-13.714h877.714v73.143h-877.714v-73.143zM731.429 314.286q0 90.857-64.286 155.143t-155.143 64.286-155.143-64.286-64.286-155.143 64.286-155.143 155.143-64.286 155.143 64.286 64.286 155.143zM146.286 681.143h219.429v73.143h-219.429v-73.143zM73.143 571.429h877.714v146.286h-473.143l-36.571-73.143h-368v-73.143zM1024 717.714v-731.429q0-30.286-21.429-51.714t-51.714-21.429h-877.714q-30.286 0-51.714 21.429t-21.429 51.714v731.429q0 30.286 21.429 51.714t51.714 21.429h877.714q30.286 0 51.714-21.429t21.429-51.714z" />
<glyph unicode="&#xf084;" glyph-name="uniF084" d="M475.429 571.429q0 45.714-32 77.714t-77.714 32-77.714-32-32-77.714q0-24 10.857-47.429-23.429 10.857-47.429 10.857-45.714 0-77.714-32t-32-77.714 32-77.714 77.714-32 77.714 32 32 77.714q0 24-10.857 47.429 23.429-10.857 47.429-10.857 45.714 0 77.714 32t32 77.714zM961.714 169.143q0-9.714-28-37.714t-37.714-28q-5.143 0-16.286 9.143t-20.857 18.857-22 22.857-14 14.857l-54.857-54.857 125.714-125.714q16-16 16-38.857 0-24-22.286-46.286t-46.286-22.286q-22.857 0-38.857 16l-383.429 383.429q-100.571-74.857-208.571-74.857-93.143 0-151.714 58.571t-58.571 151.714q0 91.429 54.286 178.857t141.714 141.714 178.857 54.286q93.143 0 151.714-58.571t58.571-151.714q0-108-74.857-208.571l202.857-202.857 54.857 54.857q-1.714 1.714-14.857 14t-22.857 22-18.857 20.857-9.143 16.286q0 9.714 28 37.714t37.714 28q7.429 0 13.143-5.714 3.429-3.429 26.286-25.429t46.857-45.429 49.429-49.143 41.714-44.571 16.286-23.429z" />
</font>
</defs>
</svg>
