<?xml version="1.0" standalone="no"?>
<!DOCTYPE svg PUBLIC "-//W3C//DTD SVG 20010904//EN"
 "http://www.w3.org/TR/2001/REC-SVG-20010904/DTD/svg10.dtd">
<svg version="1.0" xmlns="http://www.w3.org/2000/svg"
 width="1994.000000pt" height="1994.000000pt" viewBox="0 0 1994.000000 1994.000000"
 preserveAspectRatio="xMidYMid meet">
<metadata>
Created by potrace 1.11, written by Peter Selinger 2001-2013
</metadata>
<g transform="translate(0.000000,1994.000000) scale(0.100000,-0.100000)"
fill="#000000" stroke="none">
<path d="M4023 19888 c8 -18 694 -1625 1526 -3570 l1512 -3537 -767 -1773
c-421 -975 -767 -1774 -768 -1775 -1 -1 -163 426 -361 948 -198 523 -363 953
-368 956 -4 2 -30 -3 -58 -13 -36 -13 -49 -23 -46 -34 2 -8 184 -490 405
-1070 220 -580 509 -1343 642 -1695 133 -352 244 -643 247 -647 2 -5 -283 -8
-635 -8 l-639 0 -633 1724 c-348 948 -636 1730 -640 1736 -6 10 -20 8 -59 -5
-28 -9 -51 -20 -51 -25 0 -5 281 -775 625 -1711 344 -937 625 -1707 625 -1711
0 -4 -281 -8 -625 -8 l-625 0 0 -3825 0 -3825 3000 0 3000 0 0 55 0 55 -2945
0 -2945 0 0 3710 0 3710 2835 0 2835 0 0 60 0 60 -195 0 c-107 0 -195 2 -195
5 0 3 63 170 140 372 225 596 868 2294 986 2606 60 159 110 283 113 275 11
-34 457 -1271 694 -1923 146 -401 287 -791 313 -865 26 -74 168 -466 314 -871
l266 -736 -111 -114 c-264 -272 -469 -563 -643 -912 l-75 -151 -12 34 c-24 66
-558 1575 -649 1832 -50 141 -94 259 -97 262 -5 5 -465 -1226 -966 -2581
l-178 -483 -663 0 c-648 0 -664 0 -659 19 2 11 197 528 432 1150 l428 1131
379 0 378 0 0 60 0 60 -2380 0 -2380 0 0 -1270 0 -1270 2185 0 2185 0 0 -350
0 -350 -2185 0 -2185 0 0 -1375 0 -1375 2475 0 2475 0 0 60 0 60 -818 2 -818
3 465 1253 464 1252 124 0 123 0 0 334 0 335 168 453 c93 249 292 785 442
1190 151 405 277 735 280 733 3 -2 32 -65 64 -140 33 -75 62 -133 66 -128 5 4
58 121 118 258 63 141 113 243 116 235 3 -8 129 -363 280 -789 l273 -774 -44
-126 c-79 -223 -141 -490 -179 -766 -26 -183 -26 -702 -1 -890 135 -1009 611
-1862 1387 -2483 113 -90 365 -260 495 -334 815 -462 1814 -596 2726 -367 412
103 776 262 1137 496 108 70 124 85 102 98 -6 4 -17 22 -25 41 -8 19 -18 34
-24 34 -5 0 -61 -33 -123 -74 -479 -312 -1037 -507 -1623 -567 -154 -16 -526
-16 -680 0 -869 90 -1660 472 -2260 1093 -675 698 -1041 1641 -1012 2608 18
595 169 1142 458 1658 243 433 591 829 994 1133 823 617 1874 850 2905 643
134 -26 286 -67 335 -88 17 -8 55 -21 85 -31 167 -53 439 -175 615 -276 125
-72 245 -149 245 -159 0 -9 -389 -823 -399 -832 -4 -5 -36 13 -71 39 -329 240
-738 400 -1170 459 -155 22 -566 25 -715 6 -601 -77 -1119 -320 -1534 -717
-354 -339 -614 -785 -736 -1261 -212 -824 -18 -1709 518 -2374 79 -97 291
-309 387 -386 365 -295 782 -483 1242 -563 759 -131 1554 74 2152 556 l28 22
-38 45 -38 46 -30 -25 c-89 -73 -342 -231 -468 -293 -700 -344 -1494 -361
-2214 -46 -57 26 -102 49 -100 53 3 5 1374 3612 1705 4487 l107 282 79 -24
c309 -89 612 -246 855 -442 l75 -61 17 22 c10 12 20 31 24 42 3 11 111 240
240 508 129 268 234 494 234 501 0 12 -182 136 -305 208 -201 118 -423 219
-640 293 -77 27 -143 51 -148 55 -4 3 310 845 698 1869 388 1025 705 1867 705
1872 0 5 -352 9 -803 9 l-804 0 -338 -892 c-186 -491 -341 -896 -344 -900 -10
-11 -1524 3500 -1518 3520 2 9 693 1573 1536 3474 842 1901 1531 3458 1531
3461 0 6 -100 51 -104 46 -2 -2 -685 -1540 -1517 -3416 -832 -1877 -1515
-3413 -1518 -3413 -6 0 -991 2269 -991 2283 0 4 453 1014 1006 2245 554 1230
1008 2242 1010 2248 6 14 -94 60 -105 48 -4 -5 -451 -995 -992 -2200 -541
-1206 -986 -2190 -988 -2188 -2 2 -390 895 -861 1985 -471 1089 -860 1981
-865 1982 -5 1 -404 -915 -888 -2035 -484 -1121 -883 -2038 -886 -2038 -3 0
-438 1019 -967 2263 l-961 2262 -1122 3 -1121 2 13 -32z m2165 -125 c289 -673
1922 -4527 1922 -4535 0 -13 -969 -2268 -980 -2281 -5 -5 -2888 6717 -2936
6846 -6 16 45 17 984 17 l990 0 20 -47z m4609 -2540 c464 -1072 1083 -2501
1376 -3178 1573 -3625 2088 -4820 2084 -4834 -4 -15 -471 -1253 -577 -1531
l-52 -136 -133 -22 c-118 -20 -344 -71 -385 -86 -12 -5 -44 63 -145 304 l-130
310 -855 0 -855 0 -74 203 c-41 111 -96 263 -122 337 -26 74 -124 348 -218
609 -94 261 -171 476 -171 478 0 2 344 3 765 3 507 0 765 3 765 10 0 6 -85
205 -189 443 -235 536 -1115 2553 -1543 3537 -176 404 -323 738 -327 743 -9 9
-111 -22 -111 -34 0 -4 142 -332 315 -729 l316 -721 -331 -737 c-182 -405
-334 -740 -338 -744 -4 -4 -128 280 -277 630 -148 350 -280 662 -293 692 l-24
55 -25 -55 c-14 -30 -28 -64 -33 -76 -6 -16 66 -196 314 -780 177 -417 327
-758 332 -758 6 1 711 1548 737 1617 3 9 997 -2264 1003 -2293 2 -8 -63 -163
-144 -345 l-148 -330 -404 -3 -405 -2 -255 707 c-281 783 -279 777 -287 770
-3 -3 -130 -336 -283 -739 l-277 -733 -464 -3 -464 -2 -124 290 c-69 160 -128
287 -131 283 -4 -5 -20 -36 -35 -71 l-28 -63 91 -214 c51 -117 92 -216 92
-219 0 -3 -90 -6 -200 -6 l-200 0 0 -60 0 -60 706 0 c668 0 706 -1 702 -17 -6
-20 -559 -1483 -603 -1595 -7 -17 -58 -18 -828 -20 l-821 -3 -84 -188 -85
-187 -400 2 -400 3 -265 697 -265 697 763 1768 c1380 3198 1469 3403 1686
3908 804 1867 1910 4425 1914 4425 3 0 384 -876 847 -1947z m5659 -6171 c-2
-4 -200 -523 -439 -1152 -534 -1405 -890 -2341 -913 -2398 -12 -30 -22 -41
-33 -37 -46 14 -331 66 -433 80 -215 28 -489 38 -684 27 -98 -6 -180 -9 -182
-7 -2 2 132 360 299 797 166 436 461 1212 656 1723 194 512 357 940 363 953
l10 22 680 0 c375 0 679 -4 676 -8z m-4666 -1002 l108 -245 -226 -3 c-124 -1
-227 0 -230 2 -2 3 46 121 109 262 79 179 116 253 122 243 5 -8 57 -124 117
-259z m-3110 -2127 c0 -4 -21 -62 -46 -130 l-47 -123 -768 0 -767 0 54 121
c30 67 57 126 60 130 6 11 1514 12 1514 2z m4185 -254 c61 -143 111 -264 113
-268 2 -5 -28 -19 -65 -32 -401 -133 -878 -406 -1201 -687 -70 -61 -72 -62
-81 -40 -24 65 -461 1280 -461 1284 0 2 357 4 793 4 l792 0 110 -261z m-2921
-936 l-87 -194 -35 81 -34 80 52 142 c29 79 66 179 83 222 l30 79 39 -108 39
-109 -87 -193z m-4871 -391 c75 -207 137 -380 137 -384 0 -5 -169 -8 -375 -8
l-375 0 0 250 0 251 57 134 57 135 181 0 180 0 138 -378z m1336 216 c35 -90
229 -604 433 -1143 203 -539 372 -983 375 -987 2 -5 -292 -8 -654 -8 l-658 0
-275 748 c-151 411 -332 905 -402 1097 -70 193 -137 374 -148 403 l-19 52 643
0 643 0 62 -162z m1809 150 c-51 -150 -865 -2285 -870 -2280 -6 6 -165 424
-704 1850 -90 239 -164 435 -164 438 0 2 392 4 871 4 693 0 870 -3 867 -12z
m6127 -318 c151 -12 289 -30 305 -40 9 -6 -9 -64 -69 -221 -44 -118 -166 -439
-270 -714 -521 -1381 -1435 -3791 -1441 -3798 -8 -9 -126 65 -270 172 -146
107 -399 360 -507 504 -265 356 -430 757 -500 1214 -21 136 -23 526 -5 658 52
368 168 706 344 1003 33 57 64 100 68 95 5 -4 101 -266 215 -582 113 -316 210
-582 215 -590 8 -14 9 -14 14 -1 3 8 190 499 415 1090 l409 1074 53 19 c85 29
277 74 395 92 211 33 422 42 629 25z m-1237 -212 c-49 -136 -663 -1745 -668
-1750 -3 -5 -85 211 -182 479 l-176 487 61 76 c96 119 302 318 427 412 139
104 265 181 412 254 116 56 133 62 126 42z m-7840 -365 c17 -48 490 -1337 501
-1365 l11 -28 -660 0 -660 0 0 710 0 710 399 0 399 0 10 -27z m1314 -3583
c252 -685 458 -1248 458 -1252 0 -5 -580 -8 -1290 -8 l-1290 0 0 1255 0 1255
832 -2 832 -3 458 -1245z m1876 1236 c-2 -8 -210 -573 -463 -1255 l-460 -1241
-182 0 -181 0 -10 28 c-5 15 -204 556 -442 1202 -238 646 -441 1199 -451 1228
l-18 52 1105 0 c954 0 1105 -2 1102 -14z"/>
</g>
</svg>
