<svg id="Calque_1" data-name="Calque 1" xmlns="http://www.w3.org/2000/svg" viewBox="0 0 77.58 116.18"><defs><style>.cls-1{fill:#fff;}</style></defs><title>logo</title><path class="cls-1" d="M28.32,27.39l-.17-.4L16.81.31H4.48l17.5,41,.18.4.16.39.17-.37h0L28.31,28.2l.18-.4v0ZM16.6.63,28,27.39h0L22.16,40.89,5,.63ZM39.52,75l-.84-2.39L37.3,76.34l-.15.42.17.41.18.43L38.1,79l1.2-2.71h0l.19-.43.17-.39v0ZM38.1,78.22l-.44-1h0l1-2.69h0l.49,1.37v0h0ZM48.67,54.38h0L42.76,40.82h0l-.17-.36-.17.36-.17.39L38.1,50.41l-3.61-8.52h0l-.17.4,3.78,8.9,4.32-9.6,5.91,13.55h0l-1.77,4H41.81l-3.13-8.67L35.4,59.14H30l-1.46-3.4h0l-.15.37,1.28,3,.14.32.13.31h5.27L32.84,65.9l-.16.42h0l.19.41.17.41.15-.4h0l2.64-7h0l0-.08.09-.23.08-.23,0-.08h0l2.59-6.85h0l2.47,6.86h0l.11.31.12.31,2.21,6.09v0l.15.41.19-.43.17-.39L43.94,65,42,59.78h4.59l.13-.31.14-.32,1.61-3.6.16-.39.17-.37h0ZM72.63.31h0L54.94,40.21,49.1,26.72,60.91.44,60.65.31h0l-11.69,26-.18.39-.18.39.18.38L54.59,41h0l.17.39.18-.39.16-.4L73,.32h-.32Z"/><polygon class="cls-1" points="42.76 40.81 42.58 41.2 42.41 41.59 38.09 51.2 34.31 42.3 34.48 41.9 34.66 41.49 38.11 49.63 42.07 40.81 42.24 40.44 42.42 40.05 42.58 40.43 42.76 40.81"/><polygon class="cls-1" points="60.91 0.44 49.1 26.72 48.75 27.49 48.57 27.11 48.41 26.73 48.76 25.95 60.35 0.18 60.62 0.31 60.65 0.31 60.91 0.44"/><polygon class="cls-1" points="28.66 27.39 28.48 27.8 28.31 28.2 28.14 27.8 27.97 27.39 16.59 0.63 4.94 0.63 22.16 40.89 22.32 41.29 22.49 41.69 22.32 42.07 22.16 42.47 21.98 42.07 21.82 41.68 4 0 17.01 0 17.09 0.19 28.32 26.59 28.5 26.99 28.66 27.39"/><polygon class="cls-1" points="30.21 59.77 29.54 59.77 29.41 59.46 29.27 59.15 28.16 56.52 28.33 56.13 28.5 55.74 29.95 59.15 30.09 59.46 30.21 59.77"/><polygon class="cls-1" points="33.19 66.74 33.04 67.15 32.88 67.58 32.7 67.17 32.52 66.74 32.68 66.33 32.68 66.31 32.84 65.9 33.02 66.33 33.19 66.74"/><polygon class="cls-1" points="39.83 75.88 39.64 76.28 39.45 76.71 38.1 79.78 37.81 79.12 37.35 78.03 37.17 77.61 36.98 77.19 37.15 76.76 37.3 76.33 37.48 76.76 37.66 77.17 38.1 78.22 39.15 75.84 39.34 75.42 39.52 75 39.67 75.43 39.67 75.44 39.83 75.88"/><polygon class="cls-1" points="44.09 65.47 44.24 65.9 44.24 65.91 44.06 66.31 43.87 66.73 43.72 66.3 43.57 65.89 43.57 65.87 43.75 65.45 43.94 65.05 44.09 65.47"/><polygon class="cls-1" points="49.01 55.15 48.66 55.93 47.24 59.15 46.96 59.77 46.27 59.77 46.55 59.15 48.32 55.15 48.49 54.76 48.67 54.37 48.83 54.76 49.01 55.15"/><polygon class="cls-1" points="73.24 0.44 55.27 41 55.1 41.39 54.94 41.78 54.76 41.39 54.58 41 54.76 40.61 54.94 40.23 72.62 0.31 72.67 0.19 72.95 0.31 73.24 0.44"/><path class="cls-1" d="M26.89,59.14v.32l.14-.32Zm11.49-26.8.11.28.18-.4Zm0,0,.11.28.18-.4ZM32.84,65.9l-.16.42h0l-.15.42L32,68.16l-.45,1.18h.34l.82-2.17.17-.43.15-.39v0Zm-6-6.44v.31h8.94l0-.08.09-.23ZM18.08,76.41l.12.31.12.31h.55l.14-.31.15-.31ZM22,69.34l-1,2.22H16.25l.12.31h0l.11.31H21l.15-.32.14-.31.85-1.91h9.24l0-.1.08-.21Zm4.91-10.2v.32l.14-.32Zm0,0v.32l.14-.32Zm11.49-26.8.11.28.18-.4ZM32.84,65.9l-.16.42h0l-.15.42L32,68.16l-.45,1.18h.34l.82-2.17.17-.43.15-.39v0Zm-6-6.44v.31h8.94l0-.08.09-.23Zm28.56,9.88h-10l-1.25-3.42v0l-.15-.42L43.94,65,42,59.78h9l-2-4.61h0l-.17-.39-.17-.38h0L42.76,40.82h0l-.17-.36h0L42.42,40l-3.46-8-.29.13,3.58,8.2v0l.17.37.17.38h0L48.5,54.75h0l.16.39.18.38h0l1.7,3.92H41.25l.12.31,2.21,6.09v0l.15.41.15.41v0l.94,2.6h.34l.11.31h10L56.68,73l.31-.09Zm-17.07-37,.11.28.18-.4ZM18.08,76.41l.12.31.12.31h.55l.14-.31.15-.31ZM22,69.34l-1,2.22H16.25l.12.31h0l.11.31H21l.15-.32.14-.31.85-1.91h9.24l0-.1.08-.21Zm4.91-10.2v.32l.14-.32Zm0,0v.32l.14-.32Zm11.49-26.8.11.28.18-.4ZM32.84,65.9l-.16.42h0l-.15.42L32,68.16l-.45,1.18h.34l.82-2.17.17-.43.15-.39v0Zm-6-6.44v.31h8.94l0-.08.09-.23Zm28.56,9.88h-10l-1.25-3.42v0l-.15-.42L43.94,65,42,59.78h9l-2-4.61h0l-.17-.39-.17-.38h0L42.76,40.82h0l-.17-.36h0L42.42,40l-3.46-8-.29.13,3.58,8.2v0l.17.37.17.38h0L48.5,54.75h0l.16.39.18.38h0l1.7,3.92H41.25l.12.31,2.21,6.09v0l.15.41.15.41v0l.94,2.6h.34l.11.31h10L56.68,73l.31-.09Zm-17.07-37,.11.28.18-.4ZM18.08,76.41l.12.31.12.31h.55l.14-.31.15-.31ZM22,69.34l-1,2.22H16.25l.12.31h0l.11.31H21l.15-.32.14-.31.85-1.91h9.24l0-.1.08-.21Zm4.91-10.2v.32l.14-.32Zm0,0v.32l.14-.32Zm11.49-26.8.11.28.18-.4ZM32.84,65.9l-.16.42h0l-.15.42L32,68.16l-.45,1.18h.34l.82-2.17.17-.43.15-.39v0Zm-6-6.44v.31h8.94l0-.08.09-.23Zm28.56,9.88h-10l-1.25-3.42v0l-.15-.42L43.94,65,42,59.78h9l-2-4.61h0l-.17-.39-.17-.38h0L42.76,40.82h0l-.17-.36h0L42.42,40l-3.46-8-.29.13,3.58,8.2v0l.17.37.17.38h0L48.5,54.75h0l.16.39.18.38h0l1.7,3.92H41.25l.12.31,2.21,6.09v0l.15.41.15.41v0l.94,2.6h.34l.11.31h10L56.68,73l.31-.09Zm-17.07-37,.11.28.18-.4ZM18.08,76.41l.12.31.12.31h.55l.14-.31.15-.31ZM22,69.34l-1,2.22H16.25l.12.31h0l.11.31H21l.15-.32.14-.31.85-1.91h9.24l0-.1.08-.21Zm4.91-10.2v.32l.14-.32Zm0,0v.32l.14-.32Zm11.49-26.8.11.28.18-.4ZM26.89,59.46v.31h8.27L32.84,65.9l-.16.42h0l-.15.42L32,68.16l-.45,1.18h.34l.82-2.17.17-.43.17.41.15-.4h0l2.64-7h0l0-.08.09-.23Zm28.56,9.88h-10l-1.25-3.42v0l-.15-.42L43.94,65,42,59.78h9l-2-4.61h0l-.17-.39-.17-.38h0L42.76,40.82h0l-.17-.36h0L42.42,40l-3.46-8-.29.13,3.58,8.2v0l.17.37.17.38h0L48.5,54.75h0l.16.39.18.38h0l1.7,3.92H41.25l.12.31,2.21,6.09v0l.15.41.15.41v0l.94,2.6h.34l.11.31h10L56.68,73l.31-.09Zm-17.07-37,.11.28.18-.4ZM18.08,76.41l.12.31.12.31h.55l.14-.31.15-.31ZM22,69.34l-1,2.22H16.25l.12.31h0l.11.31H21l.15-.32.14-.31.85-1.91h9.24l0-.1.08-.21Zm4.91-10.2v.32l.14-.32Zm0,0v.32l.14-.32Zm11.49-26.8.11.28.18-.4Zm17.07,37h-10l-1.25-3.42v0l-.15-.42L43.94,65,42,59.78h9l-2-4.61h0l-.17-.39-.17-.38h0L42.76,40.82h0l-.17-.36h0L42.42,40l-3.46-8-.29.13,3.58,8.2v0l.17.37.17.38h0L48.5,54.75h0l.16.39.18.38h0l1.7,3.92H41.25l.12.31,2.21,6.09v0l.15.41.15.41v0l.94,2.6h.34l.11.31h10L56.68,73l.31-.09Zm-17.07-37,.11.28.18-.4ZM26.89,59.46v.31h8.27L32.84,65.9l-.16.42h0l-.15.42L32,68.16l-.45,1.18h.34l.82-2.17.17-.43.17.41.15-.4h0l2.64-7h0l0-.08.09-.23ZM18.08,76.41l.12.31.12.31h.55l.14-.31.15-.31ZM22,69.34l-1,2.22H16.25l.12.31h0l.11.31H21l.15-.32.14-.31.85-1.91h9.24l0-.1.08-.21Zm4.91-10.2v.32l.14-.32Zm0,0v.32l.14-.32Zm11.49-26.8.11.28.18-.4Zm17.07,37h-10l-1.25-3.42v0l-.15-.42L43.94,65,42,59.78h9l-2-4.61h0l-.17-.39-.17-.38h0L42.76,40.82h0l-.17-.36h0L42.42,40l-3.46-8-.29.13,3.58,8.2v0l.17.37.17.38h0L48.5,54.75h0l.16.39.18.38h0l1.7,3.92H41.25l.12.31,2.21,6.09v0l.15.41.15.41v0l.94,2.6h.34l.11.31h10L56.68,73l.31-.09Zm-17.07-37,.11.28.18-.4ZM26.89,59.46v.31h8.27L32.84,65.9l-.16.42h0l-.15.42L32,68.16l-.45,1.18h.34l.82-2.17.17-.43.17.41.15-.4h0l2.64-7h0l0-.08.09-.23ZM18.08,76.41l.12.31.12.31h.55l.14-.31.15-.31ZM22,69.34l-1,2.22H16.25l.12.31h0l.11.31H21l.15-.32.14-.31.85-1.91h9.24l0-.1.08-.21Zm4.91-10.2v.32l.14-.32Zm0,0v.32l.14-.32Zm11.49-26.8.11.28.18-.4Zm17.07,37h-10l-1.25-3.42v0l-.15-.42L43.94,65,42,59.78h9l-2-4.61h0l-.17-.39-.17-.38h0L42.76,40.82h0l-.17-.36h0L42.42,40l-3.46-8-.29.13,3.58,8.2v0l.17.37.17.38h0L48.5,54.75h0l.16.39.18.38h0l1.7,3.92H41.25l.12.31,2.21,6.09v0l.15.41.15.41v0l.94,2.6h.34l.11.31h10L56.68,73l.31-.09Zm-17.07-37,.11.28.18-.4ZM26.89,59.46v.31h8.27L32.84,65.9l-.16.42h0l-.15.42L32,68.16l-.45,1.18h.34l.82-2.17.17-.43.17.41.15-.4h0l2.64-7h0l0-.08.09-.23ZM18.08,76.41l.12.31.12.31h.55l.14-.31.15-.31ZM22,69.34l-1,2.22H16.25l.12.31h0l.11.31H21l.15-.32.14-.31.85-1.91h9.24l0-.1.08-.21Zm4.91-10.2v.32l.14-.32Zm0,0v.32l.14-.32Zm11.49-26.8.11.28.18-.4Zm17.07,37h-10l-1.25-3.42v0l-.15-.42L43.94,65,42,59.78h9l-2-4.61h0l-.17-.39-.17-.38h0L42.76,40.82h0l-.17-.36h0L42.42,40l-3.46-8-.29.13,3.58,8.2v0l.17.37.17.38h0L48.5,54.75h0l.16.39.18.38h0l1.7,3.92H41.25l.12.31,2.21,6.09v0l.15.41.15.41v0l.94,2.6h.34l.11.31h10L56.68,73l.31-.09Zm-17.07-37,.11.28.18-.4ZM26.89,59.46v.31h8.27L32.84,65.9l-.16.42h0l-.15.42L32,68.16l-.45,1.18h.34l.82-2.17.17-.43.17.41.15-.4h0l2.64-7h0l0-.08.09-.23ZM18.08,76.41l.12.31.12.31h.55l.14-.31.15-.31ZM22,69.34l-1,2.22H16.25l.12.31h0l.11.31H21l.15-.32.14-.31.85-1.91h9.24l0-.1.08-.21Zm4.91-10.2v.32l.14-.32Zm0,0v.32l.14-.32Zm11.49-26.8.11.28.18-.4Zm17.07,37h-10l-1.25-3.42v0l-.15-.42L43.94,65,42,59.78h9l-2-4.61h0l-.17-.39-.17-.38h0L42.76,40.82h0l-.17-.36h0L42.42,40l-3.46-8-.29.13,3.58,8.2v0l.17.37.17.38h0L48.5,54.75h0l.16.39.18.38h0l1.7,3.92H41.25l.12.31,2.21,6.09v0l.15.41.15.41v0l.94,2.6h.34l.11.31h10L56.68,73l.31-.09Zm-17.07-37,.11.28.18-.4ZM26.89,59.46v.31h8.27L32.84,65.9l-.16.42h0l-.15.42L32,68.16l-.45,1.18h.34l.82-2.17.17-.43.17.41.15-.4h0l2.64-7h0l0-.08.09-.23ZM18.08,76.41l.12.31.12.31h.55l.14-.31.15-.31ZM22,69.34l-1,2.22H16.25l.12.31h0l.11.31H21l.15-.32.14-.31.85-1.91h9.24l0-.1.08-.21Zm4.91-10.2v.32l.14-.32Zm0,0v.32l.14-.32Zm11.49-26.8.11.28.18-.4Zm17.07,37h-10l-1.25-3.42v0l-.15-.42L43.94,65,42,59.78h9l-2-4.61h0l-.17-.39-.17-.38h0L42.76,40.82h0l-.17-.36h0L42.42,40l-3.46-8-.29.13,3.58,8.2v0l.17.37.17.38h0L48.5,54.75h0l.16.39.18.38h0l1.7,3.92H41.25l.12.31,2.21,6.09v0l.15.41.15.41v0l.94,2.6h.34l.11.31h10L56.68,73l.31-.09Zm-17.07-37,.11.28.18-.4ZM26.89,59.46v.31h8.27L32.84,65.9l-.16.42h0l-.15.42L32,68.16l-.45,1.18h.34l.82-2.17.17-.43.17.41.15-.4h0l2.64-7h0l0-.08.09-.23ZM18.08,76.41l.12.31.12.31h.55l.14-.31.15-.31ZM22,69.34l-1,2.22H16.25l.12.31h0l.11.31H21l.15-.32.14-.31.85-1.91h9.24l0-.1.08-.21Zm4.91-10.2v.32l.14-.32Zm0,0v.32l.14-.32Zm11.49-26.8.11.28.18-.4Zm17.07,37h-10l-1.25-3.42v0l-.15-.42L43.94,65,42,59.78h9l-2-4.61h0l-.17-.39-.17-.38h0L42.76,40.82h0l-.17-.36h0L42.42,40l-3.46-8-.29.13,3.58,8.2v0l.17.37.17.38h0L48.5,54.75h0l.16.39.18.38h0l1.7,3.92H41.25l.12.31,2.21,6.09v0l.15.41.15.41v0l.94,2.6h.34l.11.31h10L56.68,73l.31-.09Zm-17.07-37,.11.28.18-.4ZM26.89,59.46v.31h8.27L32.84,65.9l-.16.42h0l-.15.42L32,68.16l-.45,1.18h.34l.82-2.17.17-.43.17.41.15-.4h0l2.64-7h0l0-.08.09-.23ZM18.08,76.41l.12.31.12.31h.2l.15-.31H19l.15-.31ZM22,69.34l-1,2.22H16.25l.12.31h0l.11.31H21l.15-.32.14-.31.85-1.91h9.24l0-.1.08-.21Zm4.91-10.2v.32l.14-.32Zm0,0v.32l.14-.32Zm11.49-26.8.11.28.18-.4Zm17.07,37h-10l-1.25-3.42v0l-.15-.42L43.94,65,42,59.78h9l-2-4.61h0l-.17-.39-.17-.38h0L42.76,40.82h0l-.17-.36h0L42.42,40l-3.46-8-.29.13,3.58,8.2v0l.17.37.17.38h0L48.5,54.75h0l.16.39.18.38h0l1.7,3.92H41.25l.12.31,2.21,6.09v0l.15.41.15.41v0l.94,2.6h.34l.11.31h10L56.68,73l.31-.09Zm-17.07-37,.11.28.18-.4ZM26.89,59.46v.31h8.27L32.84,65.9l-.16.42h0l-.15.42L32,68.16l-.45,1.18h.34l.82-2.17.17-.43.17.41.15-.4h0l2.64-7h0l0-.08.09-.23ZM18.08,76.41l.12.31.12.31h.2l.15-.31H19l.15-.31ZM22,69.34l-1,2.22H16.25l.12.31h0l.11.31H21l.15-.32.14-.31.85-1.91h9.24l0-.1.08-.21Zm4.91-10.2v.32l.14-.32Zm0,0v.32l.14-.32Zm11.49-26.8.11.28.18-.4ZM26.89,59.14v.32l.14-.32Zm11.49-26.8.11.28.18-.4ZM26.89,59.14v.32l.14-.32Zm11.49-26.8.11.28.18-.4ZM26.89,59.14v.32l.14-.32Zm11.49-26.8.11.28.18-.4ZM26.89,59.14v.32l.14-.32Zm11.49-26.8.11.28.18-.4ZM26.89,59.14v.32l.14-.32Zm11.49-26.8.11.28.18-.4ZM26.89,59.14v.32l.14-.32Zm11.49-26.8.11.28.18-.4ZM26.89,59.14v.32l.14-.32Zm11.49-26.8.11.28.18-.4ZM7.17,76.41,7,76.72,6.9,77l-.31.72-.31.73L6,79.21v2.67h5.87l-.12-.31L10.06,77h7.58l.4,1.06.16.43.19-.42.18-.4-.15-.41v0l-.1-.24h.55l.14-.31.15-.31Zm-.58,5.16v-3L7.24,77H9.39l1.66,4.53Zm20.3-22.43v.32l.14-.32Zm11.49-26.8.11.28.18-.4ZM26.89,59.14v.32l.14-.32Zm11.49-26.8.11.28.18-.4ZM26.89,59.14v.32l.14-.32Zm11.49-26.8.11.28.18-.4ZM26.89,59.14v.32l.14-.32Zm11.49-26.8.11.28.18-.4ZM26.89,59.14v.32l.14-.32Zm11.49-26.8.11.28.18-.4ZM26.89,59.14v.32l.14-.32Zm11.49-26.8.11.28.18-.4ZM26.89,59.14v.32l.14-.32Zm11.49-26.8.11.28.18-.4ZM26.89,59.14v.32l.14-.32Zm11.49-26.8.11.28.18-.4ZM26.89,59.14v.32l.14-.32Zm11.49-26.8.11.28.18-.4ZM26.89,59.14v.32l.14-.32Zm11.49-26.8.11.28.18-.4ZM68.7,72.8l0,0v0a3.37,3.37,0,0,0-.34-.09,22.81,22.81,0,0,0-5.26-.61c-.74,0-1.47,0-2.2.11l3.38-8.89h0l.16-.42h0l-.17-.4-.18-.41L55.1,41.4h0L54.94,41l-.18-.38h0l-5.83-13.5h0l-.18-.38-.16-.38h0L38.67,3.41,28.5,27h0l-.17.38-.17.41h0L22.32,41.29h0l-.16.38-.18.39h0L13,62.94l-.17.41-.19.41v0l.16.41h0l2.79,7.36H9.27l-.14.31L9,72.19H21l.15-.32.14-.31.85-1.91H32.1l0-.1.08-.21.48-1.27.18-.48h0l.16-.42h0l.15-.4h0l2.64-7h0l0-.08.09-.23H26.89v.31h8.27L32.84,65.9l-.16.42h0l-.15.42L32,68.16l-.45,1.18H22l-1,2.22H16.25l-3.11-8.19h0l9-20.88h0l.16-.4.17-.37h0L28.31,28.2l.18-.4v0l.17-.39,10-23.18,9.74,22.52.16.38.18.38L54.59,41h0l.17.39h0l.18.37h0l9,20.69h0l-3.74,9.81a20.6,20.6,0,0,0-3.16.66l-1.54-3.61h-10l-1.25-3.42v0l-.15-.42L43.94,65,42,59.78h9l-2-4.61h0l-.17-.39-.17-.38h0L42.76,40.82h0l-.17-.36h0L42.42,40l-3.46-8-.29.13,3.58,8.2v0l.17.37.17.38h0L48.5,54.75h0l.16.39.18.38h0l1.7,3.92H41.25l.12.31,2.21,6.09v0l.15.41.15.41v0l.94,2.6.11.31H55.25L56.68,73l.13.3.13.29a1.84,1.84,0,0,1,.28-.09,19.5,19.5,0,0,1,2.67-.59h0l.36,0,.34,0,.12-.34h0a19.68,19.68,0,0,1,2.32-.13,21.79,21.79,0,0,1,5.41.67l0,.1,0-.07h0a2,2,0,0,1,.31.08ZM38.49,32.62l.18-.4-.29.12ZM26.89,59.14v.32l.14-.32Zm11.49-26.8.11.28.18-.4ZM26.89,59.14v.32l.14-.32Zm11.49-26.8.11.28.18-.4ZM26.89,59.14v.32l.14-.32Zm11.49-26.8.11.28.18-.4ZM26.89,59.14v.32l.14-.32Zm11.49-26.8.11.28.18-.4ZM26.89,59.14v.32l.14-.32Zm11.49-26.8.11.28.18-.4ZM26.89,59.14v.32l.14-.32Zm11.49-26.8.11.28.18-.4ZM26.89,59.14v.32l.14-.32Zm11.49-26.8.11.28.18-.4ZM26.89,59.14v.32l.14-.32Zm11.49-26.8.11.28.18-.4ZM26.89,59.14v.32l.14-.32Zm11.49-26.8.11.28.18-.4ZM26.89,59.14v.32l.14-.32Zm11.49-26.8.11.28.18-.4ZM26.89,59.14v.32l.14-.32Zm11.49-26.8.11.28.18-.4ZM26.89,59.14v.32l.14-.32Zm11.49-26.8.11.28.18-.4ZM26.89,59.14v.32l.14-.32Zm11.49-26.8.11.28.18-.4ZM26.89,59.14v.32l.14-.32Zm11.49-26.8.11.28.18-.4ZM26.89,59.14v.32l.14-.32Zm11.49-26.8.11.28.18-.4ZM26.89,59.14v.32l.14-.32Zm11.49-26.8.11.28.18-.4ZM26.89,59.14v.32l.14-.32Zm11.49-26.8.11.28.18-.4ZM26.89,59.14v.32l.14-.32Zm11.49-26.8.11.28.18-.4ZM26.89,59.14v.32l.14-.32Zm0,0v.32l.14-.32ZM18.08,76.41l.12.31.12.31h.2l.15-.31H19l.15-.31ZM22,69.34l-1,2.22H16.25l.12.31h0l.11.31H21l.15-.32.14-.31.85-1.91h9.24l0-.1.08-.21Zm4.91-9.88v.31h8.27L32.84,65.9l-.16.42h0l-.15.42L32,68.16l-.45,1.18h.34l.82-2.17.17-.43.17.41.15-.4h0l2.64-7h0l0-.08.09-.23ZM38.38,32.34l.11.28.18-.4Zm17.07,37h-10l-1.25-3.42v0l-.15-.42L43.94,65,42,59.78h9l-2-4.61h0l-.17-.39-.17-.38h0L42.76,40.82h0l-.17-.36h0L42.42,40l-3.46-8-.29.13,3.58,8.2v0l.17.37.17.38h0L48.5,54.75h0l.16.39.18.38h0l1.7,3.92H41.25l.12.31,2.21,6.09v0l.15.41.15.41v0l.94,2.6h.34l.11.31h10L56.68,73l.31-.09Zm-17.07-37,.11.28.18-.4ZM26.89,59.14v.32l.14-.32Zm0,0v.32l.14-.32ZM18.08,76.41l.12.31.12.31h.2l.15-.31H19l.15-.31ZM22,69.34l-1,2.22H16.25l.12.31h0l.11.31H21l.15-.32.14-.31.85-1.91h9.24l0-.1.08-.21Zm4.91-9.88v.31h8.27L32.84,65.9l-.16.42h0l-.15.42L32,68.16l-.45,1.18h.34l.82-2.17.17-.43.17.41.15-.4h0l2.64-7h0l0-.08.09-.23ZM38.38,32.34l.11.28.18-.4Zm17.07,37h-10l-1.25-3.42v0l-.15-.42L43.94,65,42,59.78h9l-2-4.61h0l-.17-.39-.17-.38h0L42.76,40.82h0l-.17-.36h0L42.42,40l-3.46-8-.29.13,3.58,8.2v0l.17.37.17.38h0L48.5,54.75h0l.16.39.18.38h0l1.7,3.92H41.25l.12.31,2.21,6.09v0l.15.41.15.41v0l.94,2.6h.34l.11.31h10L56.68,73l.31-.09Zm-17.07-37,.11.28.18-.4ZM26.89,59.14v.32l.14-.32Zm0,0v.32l.14-.32ZM18.08,76.41l.12.31.12.31h.55l.14-.31.15-.31ZM22,69.34l-1,2.22H16.25l.12.31h0l.11.31H21l.15-.32.14-.31.85-1.91h9.24l0-.1.08-.21Zm4.91-9.88v.31h8.27L32.84,65.9l-.16.42h0l-.15.42L32,68.16l-.45,1.18h.34l.82-2.17.17-.43.17.41.15-.4h0l2.64-7h0l0-.08.09-.23ZM38.38,32.34l.11.28.18-.4Zm17.07,37h-10l-1.25-3.42v0l-.15-.42L43.94,65,42,59.78h9l-2-4.61h0l-.17-.39-.17-.38h0L42.76,40.82h0l-.17-.36h0L42.42,40l-3.46-8-.29.13,3.58,8.2v0l.17.37.17.38h0L48.5,54.75h0l.16.39.18.38h0l1.7,3.92H41.25l.12.31,2.21,6.09v0l.15.41.15.41v0l.94,2.6h.34l.11.31h10L56.68,73l.31-.09Zm-17.07-37,.11.28.18-.4ZM26.89,59.14v.32l.14-.32Zm0,0v.32l.14-.32ZM18.08,76.41l.12.31.12.31h.55l.14-.31.15-.31ZM22,69.34l-1,2.22H16.25l.12.31h0l.11.31H21l.15-.32.14-.31.85-1.91h9.24l0-.1.08-.21Zm4.91-9.88v.31h8.27L32.84,65.9l-.16.42h0l-.15.42L32,68.16l-.45,1.18h.34l.82-2.17.17-.43.17.41.15-.4h0l2.64-7h0l0-.08.09-.23ZM38.38,32.34l.11.28.18-.4Zm17.07,37h-10l-1.25-3.42v0l-.15-.42L43.94,65,42,59.78h9l-2-4.61h0l-.17-.39-.17-.38h0L42.76,40.82h0l-.17-.36h0L42.42,40l-3.46-8-.29.13,3.58,8.2v0l.17.37.17.38h0L48.5,54.75h0l.16.39.18.38h0l1.7,3.92H41.25l.12.31,2.21,6.09v0l.15.41.15.41v0l.94,2.6h.34l.11.31h10L56.68,73l.31-.09Zm-17.07-37,.11.28.18-.4ZM26.89,59.14v.32l.14-.32Zm0,0v.32l.14-.32ZM18.08,76.41l.12.31.12.31h.55l.14-.31.15-.31ZM22,69.34l-1,2.22H16.25l.12.31h0l.11.31H21l.15-.32.14-.31.85-1.91h9.24l0-.1.08-.21Zm4.91-9.88v.31h8.27L32.84,65.9l-.16.42h0l-.15.42L32,68.16l-.45,1.18h.34l.82-2.17.17-.43.17.41.15-.4h0l2.64-7h0l0-.08.09-.23ZM38.38,32.34l.11.28.18-.4Zm17.07,37h-10l-1.25-3.42v0l-.15-.42L43.94,65,42,59.78h9l-2-4.61h0l-.17-.39-.17-.38h0L42.76,40.82h0l-.17-.36h0L42.42,40l-3.46-8-.29.13,3.58,8.2v0l.17.37.17.38h0L48.5,54.75h0l.16.39.18.38h0l1.7,3.92H41.25l.12.31,2.21,6.09v0l.15.41.15.41v0l.94,2.6h.34l.11.31h10L56.68,73l.31-.09Zm-17.07-37,.11.28.18-.4ZM26.89,59.14v.32l.14-.32Zm0,0v.32l.14-.32ZM18.08,76.41l.12.31.12.31h.55l.14-.31.15-.31ZM22,69.34l-1,2.22H16.25l.12.31h0l.11.31H21l.15-.32.14-.31.85-1.91h9.24l0-.1.08-.21Zm4.91-9.88v.31h8.27L32.84,65.9l-.16.42h0l-.15.42L32,68.16l-.45,1.18h.34l.82-2.17.17-.43.17.41.15-.4h0l2.64-7h0l0-.08.09-.23ZM38.38,32.34l.11.28.18-.4Zm17.07,37h-10l-1.25-3.42v0l-.15-.42L43.94,65,42,59.78h9l-2-4.61h0l-.17-.39-.17-.38h0L42.76,40.82h0l-.17-.36h0L42.42,40l-3.46-8-.29.13,3.58,8.2v0l.17.37.17.38h0L48.5,54.75h0l.16.39.18.38h0l1.7,3.92H41.25l.12.31,2.21,6.09v0l.15.41.15.41v0l.94,2.6h.34l.11.31h10L56.68,73l.31-.09Zm-17.07-37,.11.28.18-.4ZM26.89,59.14v.32l.14-.32Zm45.73,22.7-.26-.57a2.83,2.83,0,0,0-.48-.34v0a14.56,14.56,0,0,0-4.8-2.16l-.31-.07a1.8,1.8,0,0,0-.32-.06,16.79,16.79,0,0,0-7.05.07,1.7,1.7,0,0,1-.31.06l.13.32.13.29.3-.08a15.23,15.23,0,0,1,3.41-.37,18,18,0,0,1,3.18.28l-.91,2.38-.11.31h.67l.12-.31.84-2.24a13.76,13.76,0,0,1,4.87,2.24l.43.31h.48ZM26.89,59.14v.32l.14-.32ZM18.08,76.41l.12.31.12.31h.55l.14-.31.15-.31ZM22,69.34l-1,2.22H16.25l.12.31h0l.11.31H21l.15-.32.14-.31.85-1.91h9.24l0-.1.08-.21Zm4.91-9.88v.31h8.27L32.84,65.9l-.16.42h0l-.15.42L32,68.16l-.45,1.18h.34l.82-2.17.17-.43.17.41.15-.4h0l2.64-7h0l0-.08.09-.23ZM38.38,32.34l.11.28.18-.4Zm17.07,37h-10l-1.25-3.42v0l-.15-.42L43.94,65,42,59.78h9l-2-4.61h0l-.17-.39-.17-.38h0L42.76,40.82h0l-.17-.36h0L42.42,40l-3.46-8-.29.13,3.58,8.2v0l.17.37.17.38h0L48.5,54.75h0l.16.39.18.38h0l1.7,3.92H41.25l.12.31,2.21,6.09v0l.15.41.15.41v0l.94,2.6h.34l.11.31h10L56.68,73l.31-.09Zm-17.07-37,.11.28.18-.4ZM26.89,59.14v.32l.14-.32Zm0,0v.32l.14-.32ZM18.08,76.41l.12.31.12.31h.55l.14-.31.15-.31ZM22,69.34l-1,2.22H16.25l.12.31h0l.11.31H21l.15-.32.14-.31.85-1.91h9.24l0-.1.08-.21Zm4.91-9.88v.31h8.27L32.84,65.9l-.16.42h0l-.15.42L32,68.16l-.45,1.18h.34l.82-2.17.17-.43.17.41.15-.4h0l2.64-7h0l0-.08.09-.23ZM38.38,32.34l.11.28.18-.4Zm17.07,37h-10l-1.25-3.42v0l-.15-.42L43.94,65,42,59.78h9l-2-4.61h0l-.17-.39-.17-.38h0L42.76,40.82h0l-.17-.36h0L42.42,40l-3.46-8-.29.13,3.58,8.2v0l.17.37.17.38h0L48.5,54.75h0l.16.39.18.38h0l1.7,3.92H41.25l.12.31,2.21,6.09v0l.15.41.15.41v0l.94,2.6h.34l.11.31h10L56.68,73l.31-.09Zm-17.07-37,.11.28.18-.4ZM26.89,59.14v.32l.14-.32Zm0,0v.32l.14-.32ZM18.08,76.41l.12.31.12.31h.55l.14-.31.15-.31ZM22,69.34l-1,2.22H16.25l.12.31h0l.11.31H21l.15-.32.14-.31.85-1.91h9.24l0-.1.08-.21ZM32.84,65.9l-.16.42h0l-.15.42L32,68.16l-.45,1.18h.34l.82-2.17.17-.43.15-.39v0Zm5.54-33.56.11.28.18-.4ZM26.89,59.46v.31h8.94l0-.08.09-.23Zm28.56,9.88h-10l-1.25-3.42v0l-.15-.42L43.94,65,42,59.78h9l-2-4.61h0l-.17-.39-.17-.38h0L42.76,40.82h0l-.17-.36h0L42.42,40l-3.46-8-.29.13,3.58,8.2v0l.17.37.17.38h0L48.5,54.75h0l.16.39.18.38h0l1.7,3.92H41.25l.12.31,2.21,6.09v0l.15.41.15.41v0l.94,2.6h.34l.11.31h10L56.68,73l.31-.09Zm-17.07-37,.11.28.18-.4ZM26.89,59.14v.32l.14-.32Zm0,0v.32l.14-.32ZM18.08,76.41l.12.31.12.31h.55l.14-.31.15-.31ZM22,69.34l-1,2.22H16.25l.12.31h0l.11.31H21l.15-.32.14-.31.85-1.91h9.24l0-.1.08-.21Zm16.4-37,.11.28.18-.4ZM32.84,65.9l-.16.42h0l-.15.42L32,68.16l-.45,1.18h.34l.82-2.17.17-.43.15-.39v0Zm-6-6.44v.31h8.94l0-.08.09-.23Zm28.56,9.88h-10l-1.25-3.42v0l-.15-.42L43.94,65,42,59.78h9l-2-4.61h0l-.17-.39-.17-.38h0L42.76,40.82h0l-.17-.36h0L42.42,40l-3.46-8-.29.13,3.58,8.2v0l.17.37.17.38h0L48.5,54.75h0l.16.39.18.38h0l1.7,3.92H41.25l.12.31,2.21,6.09v0l.15.41.15.41v0l.94,2.6h.34l.11.31h10L56.68,73l.31-.09Zm-17.07-37,.11.28.18-.4ZM26.89,59.14v.32l.14-.32Zm0,0v.32l.14-.32ZM18.08,76.41l.12.31.12.31h.55l.14-.31.15-.31ZM22,69.34l-1,2.22H16.25l.12.31h0l.11.31H21l.15-.32.14-.31.85-1.91h9.24l0-.1.08-.21Zm16.4-37,.11.28.18-.4ZM32.84,65.9l-.16.42h0l-.15.42L32,68.16l-.45,1.18h.34l.82-2.17.17-.43.15-.39v0Zm-6-6.44v.31h8.94l0-.08.09-.23Zm28.56,9.88h-10l-1.25-3.42v0l-.15-.42L43.94,65,42,59.78h9l-2-4.61h0l-.17-.39-.17-.38h0L42.76,40.82h0l-.17-.36h0L42.42,40l-3.46-8-.29.13,3.58,8.2v0l.17.37.17.38h0L48.5,54.75h0l.16.39.18.38h0l1.7,3.92H41.25l.12.31,2.21,6.09v0l.15.41.15.41v0l.94,2.6h.34l.11.31h10L56.68,73l.31-.09Zm-17.07-37,.11.28.18-.4ZM26.89,59.14v.32l.14-.32Zm0,0v.32l.14-.32ZM18.08,76.41l.12.31.12.31h.55l.14-.31.15-.31ZM22,69.34l-1,2.22H16.25l.12.31h0l.11.31H21l.15-.32.14-.31.85-1.91h9.24l0-.1.08-.21Zm16.4-37,.11.28.18-.4ZM32.84,65.9l-.16.42h0l-.15.42L32,68.16l-.45,1.18h.34l.82-2.17.17-.43.15-.39v0Zm-6-6.44v.31h8.94l0-.08.09-.23Zm28.56,9.88h-10l-1.25-3.42v0l-.15-.42L43.94,65,42,59.78h9l-2-4.61h0l-.17-.39-.17-.38h0L42.76,40.82h0l-.17-.36h0L42.42,40l-3.46-8-.29.13,3.58,8.2v0l.17.37.17.38h0L48.5,54.75h0l.16.39.18.38h0l1.7,3.92H41.25l.12.31,2.21,6.09v0l.15.41.15.41v0l.94,2.6h.34l.11.31h10L56.68,73l.31-.09Zm-17.07-37,.11.28.18-.4ZM26.89,59.14v.32l.14-.32Zm0,0v.32l.14-.32ZM22,69.34l-1,2.22h.35l.85-1.91h9.24l0-.1.08-.21ZM32.84,65.9l-.16.42h0l-.15.42L32,68.16l-.45,1.18h.34l.82-2.17.17-.43.15-.39v0Zm-6-6.44v.31H35.5l.12-.31ZM38.38,32.34l.11.28.18-.4Zm0,0,.11.28.18-.4ZM26.89,59.14v.32l.14-.32Z"/><path class="cls-1" d="M72.84,81.59l-.16-.39-.1.22a1.43,1.43,0,0,0-.22-.15,2.83,2.83,0,0,0-.48-.34l.22.52.05.12h-.43l.43.31.34.28.05,0h.36L73,82ZM26.89,59.14v.63h8.94l0-.08.09-.23.08-.23,0-.08H26.89Zm22.12-4h0l-.17-.39-.17-.38h0L42.76,40.82h0l-.17-.36h0L42.42,40l-3.46-8-.29.13-.29.12.11.28,3.58,8.19h0l.18.38.16.39h0l5.91,13.55h0l.18.38.16.39h0l1.41,3.2H41.14l.11.31.12.31H51Zm8.1,18.1L57,72.95l-1.54-3.61H44.82l.11.31h.34l.11.32H55l1.34,3.17.13.3.11.28a2.45,2.45,0,0,1,.32-.09,1.84,1.84,0,0,1,.28-.09ZM26.89,59.14v.63h8.94l0-.08.09-.23.08-.23,0-.08H26.89Zm22.12-4h0l-.17-.39-.17-.38h0L42.76,40.82h0l-.17-.36h0L42.42,40l-3.46-8-.29.13-.29.12.11.28,3.58,8.19h0l.18.38.16.39h0l5.91,13.55h0l.18.38.16.39h0l1.41,3.2H41.14l.11.31.12.31H51ZM18.81,76.41l-.14.31-.15.31h.69l.15-.31.14-.31Zm-.39.88-.19.4.16.41.18-.4Zm3.56-8-1,2.22-.14.31-.14.32h.69l.14-.32.14-.31L22.38,70h9.27l.11-.32h.34l0-.1.08-.21Zm4.91-10.2v.63h8.94l0-.08.09-.23.08-.23,0-.08H26.89Zm22.12-4h0l-.17-.39-.17-.38h0L42.76,40.82h0l-.17-.36h0L42.42,40l-3.46-8-.29.13-.29.12.11.28,3.58,8.19h0l.18.38.16.39h0l5.91,13.55h0l.18.38.16.39h0l1.41,3.2H41.14l.11.31.12.31H51Zm8.1,18.1L57,72.95l-1.54-3.61H44.82l.11.31h.34l.11.32H55l1.34,3.17.13.3.11.28a2.45,2.45,0,0,1,.32-.09,1.84,1.84,0,0,1,.28-.09ZM26.89,59.14v.63h8.94l0-.08.09-.23.08-.23,0-.08H26.89Zm22.12-4h0l-.17-.39-.17-.38h0L42.76,40.82h0l-.17-.36h0L42.42,40l-3.46-8-.29.13-.29.12.11.28,3.58,8.19h0l.18.38.16.39h0l5.91,13.55h0l.18.38.16.39h0l1.41,3.2H41.14l.11.31.12.31H51ZM18.81,76.41l-.14.31-.15.31h.69l.15-.31.14-.31ZM22,69.34l-1,2.22-.14.31-.14.32h.69l.14-.32.14-.31L22.38,70h9.27l.11-.32h.34l0-.1.08-.21Zm4.91-10.2v.63h8.94l0-.08.09-.23.08-.23,0-.08H26.89Zm22.12-4h0l-.17-.39-.17-.38h0L42.76,40.82h0l-.17-.36h0L42.42,40l-3.46-8-.29.13-.29.12.11.28,3.58,8.19h0l.18.38.16.39h0l5.91,13.55h0l.18.38.16.39h0l1.41,3.2H41.14l.11.31.12.31H51Zm8.1,18.1L57,72.95l-1.54-3.61H44.82l.11.31h.34l.11.32H55l1.34,3.17.13.3.11.28a2.45,2.45,0,0,1,.32-.09,1.84,1.84,0,0,1,.28-.09ZM26.89,59.14v.63h8.94l0-.08.09-.23.08-.23,0-.08H26.89Zm22.12-4h0l-.17-.39-.17-.38h0L42.76,40.82h0l-.17-.36h0L42.42,40l-3.46-8-.29.13-.29.12.11.28,3.58,8.19h0l.18.38.16.39h0l5.91,13.55h0l.18.38.16.39h0l1.41,3.2H41.14l.11.31.12.31H51ZM18.81,76.41l-.14.31-.15.31h.35l.14-.31.15-.31ZM22,69.34l-1,2.22-.14.31-.14.32h.69l.14-.32.14-.31h-.34l.85-1.91h9.24l0-.1.08-.21Zm4.91-10.2v.63h8.94l0-.08.09-.23.08-.23,0-.08H26.89Zm22.12-4h0l-.17-.39-.17-.38h0L42.76,40.82h0l-.17-.36h0L42.42,40l-3.46-8-.29.13-.29.12.11.28,3.58,8.19h0l.18.38.16.39h0l5.91,13.55h0l.18.38.16.39h0l1.41,3.2H41.14l.11.31.12.31H51Zm8.1,18.1L57,72.95l-1.54-3.61H45.16l.11.31h10L56.68,73l-.3.1.13.3.11.28a2.45,2.45,0,0,1,.32-.09,1.84,1.84,0,0,1,.28-.09ZM26.89,59.14v.63h8.94l0-.08.09-.23.08-.23,0-.08H26.89Zm22.12-4h0l-.17-.39-.17-.38h0L42.76,40.82h0l-.17-.36h0L42.42,40l-3.46-8-.29.13-.29.12.11.28,3.58,8.19h0l.18.38.16.39h0l5.91,13.55h0l.18.38.16.39h0l1.41,3.2H41.14l.11.31.12.31H51ZM18.81,76.41l-.14.31-.15.31h.35l.14-.31.15-.31ZM22,69.34l-1,2.22-.14.31-.14.32H21l.15-.32.14-.31.85-1.91h9.24l0-.1.08-.21Zm4.91-10.2v.63h8.94l0-.08.09-.23.08-.23,0-.08H26.89Zm22.12-4h0l-.17-.39-.17-.38h0L42.76,40.82h0l-.17-.36h0L42.42,40l-3.46-8-.29.13-.29.12.11.28,3.58,8.19h0l.18.38.16.39h0l5.91,13.55h0l.18.38.16.39h0l1.41,3.2H41.14l.11.31.12.31H51Zm8.1,18.1L57,72.95l-1.54-3.61H45.16l.11.31h10L56.68,73l-.3.1.13.3.11.28a2.45,2.45,0,0,1,.32-.09,1.84,1.84,0,0,1,.28-.09ZM26.89,59.14v.63h8.94l0-.08.09-.23.08-.23,0-.08H26.89Zm22.12-4h0l-.17-.39-.17-.38h0L42.76,40.82h0l-.17-.36h0L42.42,40l-3.46-8-.29.13-.29.12.11.28,3.58,8.19h0l.18.38.16.39h0l5.91,13.55h0l.18.38.16.39h0l1.41,3.2H41.14l.11.31.12.31H51ZM18.81,76.41l-.14.31-.15.31h.35l.14-.31.15-.31ZM22,69.34l-1,2.22-.14.31-.14.32H21l.15-.32.14-.31.85-1.91h9.24l0-.1.08-.21Zm4.91-10.2v.63h8.94l0-.08.09-.23.08-.23,0-.08H26.89Zm22.12-4h0l-.17-.39-.17-.38h0L42.76,40.82h0l-.17-.36h0L42.42,40l-3.46-8-.29.13-.29.12.11.28,3.58,8.19h0l.18.38.16.39h0l5.91,13.55h0l.18.38.16.39h0l1.41,3.2H41.14l.11.31.12.31H51Zm8.1,18.1L57,72.95l-1.54-3.61H45.16l.11.31h10L56.68,73l-.3.1.13.3.11.28a2.45,2.45,0,0,1,.32-.09,1.84,1.84,0,0,1,.28-.09ZM26.89,59.14v.63h8.94l0-.08.09-.23.08-.23,0-.08H26.89Zm22.12-4h0l-.17-.39-.17-.38h0L42.76,40.82h0l-.17-.36h0L42.42,40l-3.46-8-.29.13-.29.12.11.28,3.58,8.19h0l.18.38.16.39h0l5.91,13.55h0l.18.38.16.39h0l1.41,3.2H41.14l.11.31.12.31H51ZM18.81,76.41l-.14.31-.15.31h.35l.14-.31.15-.31ZM22,69.34l-1,2.22-.14.31-.14.32H21l.15-.32.14-.31.85-1.91h9.24l0-.1.08-.21Zm4.91-10.2v.63h8.94l0-.08.09-.23.08-.23,0-.08H26.89Zm22.12-4h0l-.17-.39-.17-.38h0L42.76,40.82h0l-.17-.36h0L42.42,40l-3.46-8-.29.13-.29.12.11.28,3.58,8.19h0l.18.38.16.39h0l5.91,13.55h0l.18.38.16.39h0l1.41,3.2H41.14l.11.31.12.31H51Zm8.1,18.1L57,72.95l-1.54-3.61H45.16l.11.31h10L56.68,73l-.3.1.13.3.11.28a2.45,2.45,0,0,1,.32-.09,1.84,1.84,0,0,1,.28-.09ZM26.89,59.14v.63h8.94l0-.08.09-.23.08-.23,0-.08H26.89Zm22.12-4h0l-.17-.39-.17-.38h0L42.76,40.82h0l-.17-.36h0L42.42,40l-3.46-8-.29.13-.29.12.11.28,3.58,8.19h0l.18.38.16.39h0l5.91,13.55h0l.18.38.16.39h0l1.41,3.2H41.14l.11.31.12.31H51ZM18.81,76.41l-.14.31-.15.31h.35l.14-.31.15-.31ZM22,69.34l-1,2.22-.14.31-.14.32H21l.15-.32.14-.31.85-1.91h9.24l0-.1.08-.21Zm4.91-10.2v.63h8.94l0-.08.09-.23.08-.23,0-.08H26.89Zm22.12-4h0l-.17-.39-.17-.38h0L42.76,40.82h0l-.17-.36h0L42.42,40l-3.46-8-.29.13-.29.12.11.28,3.58,8.19h0l.18.38.16.39h0l5.91,13.55h0l.18.38.16.39h0l1.41,3.2H41.14l.11.31.12.31H51Zm8.1,18.1L57,72.95l-1.54-3.61H45.16l.11.31h10L56.68,73l-.3.1.13.3.11.28a2.45,2.45,0,0,1,.32-.09,1.84,1.84,0,0,1,.28-.09ZM49,55.16h0l-.17-.39-.17-.38h0L42.76,40.82h0l-.17-.36h0L42.42,40l-3.46-8-.29.13-.29.12.11.28,3.58,8.19h0l.18.38.16.39h0l5.91,13.55h0l.18.38.16.39h0l1.41,3.2H41.14l.11.31.12.31H51Zm-22.12,4v.63h8.94l0-.08.09-.23.08-.23,0-.08H26.89ZM18.81,76.41l-.14.31-.15.31h.35l.14-.31.15-.31ZM22,69.34l-1,2.22-.14.31-.14.32H21l.15-.32.14-.31.85-1.91h9.24l0-.1.08-.21Zm4.91-10.2v.63h8.94l0-.08.09-.23.08-.23,0-.08H26.89Zm22.12-4h0l-.17-.39-.17-.38h0L42.76,40.82h0l-.17-.36h0L42.42,40l-3.46-8-.29.13-.29.12.11.28,3.58,8.19h0l.18.38.16.39h0l5.91,13.55h0l.18.38.16.39h0l1.41,3.2H41.14l.11.31.12.31H51Zm-22.12,4v.63h8.94l0-.08.09-.23.08-.23,0-.08H26.89Zm22.12-4h0l-.17-.39-.17-.38h0L42.76,40.82h0l-.17-.36h0L42.42,40l-3.46-8-.29.13-.29.12.11.28,3.58,8.19h0l.18.38.16.39h0l5.91,13.55h0l.18.38.16.39h0l1.41,3.2H41.14l.11.31.12.31H51Zm-22.12,4v.63h8.94l0-.08.09-.23.08-.23,0-.08H26.89Zm22.12-4h0l-.17-.39-.17-.38h0L42.76,40.82h0l-.17-.36h0L42.42,40l-3.46-8-.29.13-.29.12.11.28,3.58,8.19h0l.18.38.16.39h0l5.91,13.55h0l.18.38.16.39h0l1.41,3.2H41.14l.11.31.12.31H51Zm-22.12,4v.63h8.94l0-.08.09-.23.08-.23,0-.08H26.89Zm22.12-4h0l-.17-.39-.17-.38h0L42.76,40.82h0l-.17-.36h0L42.42,40l-3.46-8-.29.13-.29.12.11.28,3.58,8.19h0l.18.38.16.39h0l5.91,13.55h0l.18.38.16.39h0l1.41,3.2H41.14l.11.31.12.31H51Zm-22.12,4v.63h8.94l0-.08.09-.23.08-.23,0-.08H26.89Zm22.12-4h0l-.17-.39-.17-.38h0L42.76,40.82h0l-.17-.36h0L42.42,40l-3.46-8-.29.13-.29.12.11.28,3.58,8.19h0l.18.38.16.39h0l5.91,13.55h0l.18.38.16.39h0l1.41,3.2H41.14l.11.31.12.31H51Zm-22.12,4v.63h8.94l0-.08.09-.23.08-.23,0-.08H26.89Zm22.12-4h0l-.17-.39-.17-.38h0L42.76,40.82h0l-.17-.36h0L42.42,40l-3.46-8-.29.13-.29.12.11.28,3.58,8.19h0l.18.38.16.39h0l5.91,13.55h0l.18.38.16.39h0l1.41,3.2H41.14l.11.31.12.31H51Zm-22.12,4v.63h8.94l0-.08.09-.23.08-.23,0-.08H26.89Zm22.12-4h0l-.17-.39-.17-.38h0L42.76,40.82h0l-.17-.36h0L42.42,40l-3.46-8-.29.13-.29.12.11.28,3.58,8.19h0l.18.38.16.39h0l5.91,13.55h0l.18.38.16.39h0l1.41,3.2H41.14l.11.31.12.31H51Zm-22.12,4v.63h8.94l0-.08.09-.23.08-.23,0-.08H26.89Zm22.12-4h0l-.17-.39-.17-.38h0L42.76,40.82h0l-.17-.36h0L42.42,40l-3.46-8-.29.13-.29.12.11.28,3.58,8.19h0l.18.38.16.39h0l5.91,13.55h0l.18.38.16.39h0l1.41,3.2H41.14l.11.31.12.31H51Zm6.44,14.18H45.16l.11.31h10L56.68,73l.31-.09ZM26.89,59.14v.63h8.94l0-.08.09-.23.08-.23,0-.08H26.89Zm22.12-4h0l-.17-.39-.17-.38h0L42.76,40.82h0l-.17-.36h0L42.42,40l-3.46-8-.29.13-.29.12.11.28,3.58,8.19h0l.18.38.16.39h0l5.91,13.55h0l.18.38.16.39h0l1.41,3.2H41.14l.11.31.12.31H51Zm6.44,14.18H45.16l.11.31h10L56.68,73l.31-.09ZM26.89,59.14v.63h8.94l0-.08.09-.23.08-.23,0-.08H26.89Zm22.12-4h0l-.17-.39-.17-.38h0L42.76,40.82h0l-.17-.36h0L42.42,40l-3.46-8-.29.13-.29.12.11.28,3.58,8.19h0l.18.38.16.39h0l5.91,13.55h0l.18.38.16.39h0l1.41,3.2H41.14l.11.31.12.31H51Zm6.44,14.18H45.16l.11.31h10L56.68,73l.31-.09ZM26.89,59.14v.63h8.94l0-.08.09-.23.08-.23,0-.08H26.89Zm22.12-4h0l-.17-.39-.17-.38h0L42.76,40.82h0l-.17-.36h0L42.42,40l-3.46-8-.29.13-.29.12.11.28,3.58,8.19h0l.18.38.16.39h0l5.91,13.55h0l.18.38.16.39h0l1.41,3.2H41.14l.11.31.12.31H51Zm6.44,14.18H45.16l.11.31h10L56.68,73l.31-.09ZM26.89,59.14v.63h8.94l0-.08.09-.23.08-.23,0-.08H26.89Zm22.12-4h0l-.17-.39-.17-.38h0L42.76,40.82h0l-.17-.36h0L42.42,40l-3.46-8-.29.13-.29.12.11.28,3.58,8.19h0l.18.38.16.39h0l5.91,13.55h0l.18.38.16.39h0l1.41,3.2H41.14l.11.31.12.31H51Zm6.44,14.18H45.16l.11.31h10L56.68,73l.31-.09ZM26.89,59.14v.63h8.94l0-.08.09-.23.08-.23,0-.08H26.89Zm22.12-4h0l-.17-.39-.17-.38h0L42.76,40.82h0l-.17-.36h0L42.42,40l-3.46-8-.29.13-.29.12.11.28,3.58,8.19h0l.18.38.16.39h0l5.91,13.55h0l.18.38.16.39h0l1.41,3.2H41.14l.11.31.12.31H51Zm6.44,14.18H45.16l.11.31h10L56.68,73l.31-.09ZM18.81,76.41l-.14.31-.15.31h.69l.15-.31.14-.31Zm-.24,1.29-.15-.41-.19.4-.19.4.16.43.17.41.17-.41.19-.41ZM22,69.34l-1,2.22-.14.31-.14.32h.69l.14-.32.14-.31L22.38,70H32l.05-.14.07-.17h0l0-.1.08-.21ZM11.71,81.57H6v.62h6ZM26.89,59.14v.63h8.94l0-.08.09-.23.08-.23,0-.08H26.89Zm22.12-4h0l-.17-.39-.17-.38h0L42.76,40.82h0l-.17-.36h0L42.42,40l-3.46-8-.29.13-.29.12.11.28,3.58,8.19h0l.18.38.16.39h0l5.91,13.55h0l.18.38.16.39h0l1.41,3.2H41.14l.11.31.12.31H51Zm6.44,14.18H45.16l.11.31h10L56.68,73l.31-.09ZM18.81,76.41l-.14.31H19l.15-.31ZM22,69.34l-1,2.22-.14.31-.14.32H21l.15-.32.14-.31.85-1.91h9.24l0-.1.08-.21Zm4.91-10.2v.63h8.94l0-.08.09-.23.08-.23,0-.08H26.89Zm22.12-4h0l-.17-.39-.17-.38h0L42.76,40.82h0l-.17-.36h0L42.42,40l-3.46-8-.29.13-.29.12.11.28,3.58,8.19h0l.18.38.16.39h0l5.91,13.55h0l.18.38.16.39h0l1.41,3.2H41.14l.11.31.12.31H51Zm6.44,14.18H45.16l.11.31h10L56.68,73l.31-.09ZM6.83,76.41l-.14.31-.41,1L6,78.42V80l.32-.73.31-.73L7.24,77l.14-.31.13-.31Zm12,0-.14.31H19l.15-.31ZM22,69.34l-1,2.22-.14.31-.14.32H21l.15-.32.14-.31.85-1.91h9.24l0-.1.08-.21Zm4.91-10.2v.63h8.94l0-.08.09-.23.08-.23,0-.08H26.89Zm22.12-4h0l-.17-.39-.17-.38h0L42.76,40.82h0l-.17-.36h0L42.42,40l-3.46-8-.29.13-.29.12.11.28,3.58,8.19h0l.18.38.16.39h0l5.91,13.55h0l.18.38.16.39h0l1.41,3.2H41.14l.11.31.12.31H51Zm6.44,14.18H45.16l.11.31h10L56.68,73l.31-.09ZM26.89,59.14v.63h8.28l.11-.31,0-.14.07-.17H26.89ZM22,69.34l-1,2.22h.35l.85-1.91h9.24l0-.1.08-.21ZM49,55.16h0l-.17-.39-.17-.38h0L42.76,40.82h0l-.17-.36h0L42.42,40l-3.46-8-.29.13-.29.12.11.28,3.58,8.19h0l.18.38.16.39h0l5.91,13.55h0l.18.38.16.39h0l1.41,3.2H41.81l.11.32.11.31h9Zm6.44,14.18h-10l.11.31h9.65L56.68,73l.31-.09ZM26.89,59.14v.63h8.28l.11-.31,0-.14.07-.17H26.89ZM22,69.34l-1,2.22h.35l.85-1.91h9.24l0-.1.08-.21ZM49,55.16h0l-.17-.39-.17-.38h0L42.76,40.82h0l-.17-.36h0L42.42,40l-3.46-8-.29.13-.29.12.11.28,3.58,8.19h0l.18.38.16.39h0l5.91,13.55h0l.18.38.16.39h0l1.41,3.2H41.81l.11.32.11.31h9Zm6.44,14.18h-10l.11.31h9.65L56.68,73l.31-.09ZM8.91,71.56l-.12.31-.14.32h.68l.14-.32.13-.31Zm18-12.42v.63h8.28l.11-.31,0-.14.07-.17H26.89ZM22,69.34l-1,2.22h.35l.85-1.91h9.24l0-.1.08-.21ZM49,55.16h0l-.17-.39-.17-.38h0L42.76,40.82h0l-.17-.36h0L42.42,40l-3.46-8-.29.13-.29.12.11.28,3.58,8.19h0l.18.38.16.39h0l5.91,13.55h0l.18.38.16.39h0l1.41,3.2H41.81l.11.32.11.31h9Zm6.44,14.18h-10l.11.31h9.65L56.68,73l.31-.09ZM26.89,59.14v.63h8.28l.11-.31,0-.14.07-.17H26.89Zm22.12-4h0l-.17-.39-.17-.38h0L42.76,40.82h0l-.17-.36h0L42.42,40l-3.46-8-.29.13-.29.12.11.28,3.58,8.19h0l.18.38.16.39h0l5.91,13.55h0l.18.38.16.39h0l1.41,3.2H41.81l.11.32.11.31h9Zm6.44,14.18h-10l.11.31h9.65L56.68,73l.31-.09ZM26.89,59.14v.63h8.28l.11-.31,0-.14.07-.17H26.89Zm22.12-4h0l-.17-.39-.17-.38h0L42.76,40.82h0l-.17-.36h0L42.42,40l-3.46-8-.29.13-.29.12.11.28,3.58,8.19h0l.18.38.16.39h0l5.91,13.55h0l.18.38.16.39h0l1.41,3.2H41.81l.11.32.11.31h9Zm6.44,14.18h-10l.11.31h9.65L56.68,73l.31-.09ZM26.89,59.14v.63h8.28l.11-.31,0-.14.07-.17H26.89ZM22,69.34l-1,2.22h.35l.85-1.91h9.24l0-.1.08-.21ZM49,55.16h0l-.17-.39-.17-.38h0L42.76,40.82h0l-.17-.36h0L42.42,40l-3.46-8-.29.13-.29.12.11.28,3.58,8.19h0l.18.38.16.39h0l5.91,13.55h0l.18.38.16.39h0l1.41,3.2H41.81l.11.32.11.31h9Zm6.44,14.18h-10l.11.31h9.65L56.68,73l.31-.09ZM22,69.34l-1,2.22h.35l.85-1.91h9.24l0-.1.08-.21Zm4.91-10.2v.63h8.28l.1-.31.06-.14.07-.17H26.89Zm22.12-4h0l-.17-.39-.17-.38h0L42.76,40.82h0l-.17-.36h0L42.42,40l-3.46-8-.29.13-.29.12.11.28,3.58,8.19h0l.18.38.16.39h0l5.91,13.55h0l.18.38.16.39h0l1.41,3.2H41.8l.12.31.11.31h9Zm6.44,14.18h-10l.11.31h9.66L56.68,73l.31-.09ZM22,69.34l-1,2.22h.35l.85-1.91h9.24l0-.1.08-.21Zm4.91-10.2v.63h8.28l.1-.31.06-.14.07-.17H26.89Zm22.12-4h0l-.17-.39-.17-.38h0L42.76,40.82h0l-.17-.36h0L42.42,40l-3.46-8-.29.13-.29.12.11.28,3.58,8.19h0l.18.38.16.39h0l5.91,13.55h0l.18.38.16.39h0l1.41,3.2H41.8l.12.31.11.31h9Zm6.44,14.18h-10l.11.31h9.66L56.68,73l.31-.09ZM22,69.34l-1,2.22h.35l.85-1.91h9.24l0-.1.08-.21Zm4.91-10.2v.63h8.28l.1-.31.06-.14.07-.17H26.89Zm22.12-4h0l-.17-.39-.17-.38h0L42.76,40.82h0l-.17-.36h0L42.42,40l-3.46-8-.29.13-.29.12.11.28,3.58,8.19h0l.18.38.16.39h0l5.91,13.55h0l.18.38.16.39h0l1.41,3.2H41.8l.12.31.11.31h9Zm6.44,14.18h-10l.11.31h9.66L56.68,73l.31-.09Zm9.11-6.88h0L64.39,62l-.19-.39h0L55.28,41h0l-.18-.39-.16-.38h0L49.1,26.72l-.17-.39L48.76,26h0L38.67,2.62l-10.35,24h0l-.17.39-.18.4h0L22.16,40.89h0l-.17.37-.16.4h0l-9,20.82h0l-.17.4-.17.43.15.41v0l.16.41.19-.43.17-.39h0l9-20.88h0l.16-.4.17-.37h0L28.31,28.2l.18-.4v0l.17-.39,10-23.18,9.74,22.52.16.38.18.38L54.59,41h0l.17.39h0l.18.37h0l9,20.69h0l.18.41.17.41.16-.42h0l0-.11.12-.3ZM45.48,69.34l.11.31h9.66L56.68,73l.31-.09-1.54-3.61ZM51,59.77l-2-4.61h0l-.17-.39-.17-.38h0L42.76,40.82h0l-.17-.36h0L42.42,40l-3.46-8-.29.13-.29.12.11.28,3.58,8.19h0l.18.38.16.39h0l5.91,13.55h0l.18.38.16.39h0l1.41,3.2H41.8l.12.31.11.31Zm-24.13-.63v.63h8.28l.1-.31.06-.14.07-.17H26.89ZM22,69.34l-1,2.22h.35l.85-1.91h9.24l0-.1.08-.21Zm33.47,0h-10l.11.31h9.66L56.68,73l.31-.09ZM49,55.16h0l-.17-.39-.17-.38h0L42.76,40.82h0l-.17-.36h0L42.42,40l-3.46-8-.29.13-.29.12.11.28,3.58,8.19h0l.18.38.16.39h0l5.91,13.55h0l.18.38.16.39h0l1.41,3.2H41.8l.12.31.11.31h9Zm-22.12,4v.63h8.28l.1-.31.06-.14.07-.17H26.89ZM22,69.34l-1,2.22h.35l.85-1.91h9.24l0-.1.08-.21Zm33.47,0h-10l.11.31h9.66L56.68,73l.31-.09ZM49,55.16h0l-.17-.39-.17-.38h0L42.76,40.82h0l-.17-.36h0L42.42,40l-3.46-8-.29.13-.29.12.11.28,3.58,8.19h0l.18.38.16.39h0l5.91,13.55h0l.18.38.16.39h0l1.41,3.2H41.8l.12.31.11.31h9Zm-22.12,4v.63h8.28l.1-.31.06-.14.07-.17H26.89ZM22,69.34l-1,2.22h.35l.85-1.91h9.24l0-.1.08-.21Zm33.47,0h-10l.11.31h9.65L56.68,73l.31-.09ZM49,55.16h0l-.17-.39-.17-.38h0L42.76,40.82h0l-.17-.36h0L42.42,40l-3.46-8-.29.13-.29.12.11.28,3.58,8.19h0l.18.38.16.39h0l5.91,13.55h0l.18.38.16.39h0l1.41,3.2H41.81l.11.32.11.31h9ZM22,69.34l-1,2.22h.35l.85-1.91h9.24l0-.1.08-.21Zm4.91-10.2v.63h8.28l.11-.31,0-.14.07-.17H26.89Zm28.56,10.2h-10l.11.31h9.65L56.68,73l.31-.09ZM49,55.16h0l-.17-.39-.17-.38h0L42.76,40.82h0l-.17-.36h0L42.42,40l-3.46-8-.29.13-.29.12.11.28,3.58,8.19h0l.18.38.16.39h0l5.91,13.55h0l.18.38.16.39h0l1.41,3.2H41.81l.11.32.11.31h9ZM22,69.34l-1,2.22h.35l.85-1.91h9.24l0-.1.08-.21Zm4.91-10.2v.63h8.28l.11-.31,0-.14.07-.17H26.89Zm28.56,10.2h-10l.11.31h9.65L56.68,73l.31-.09ZM49,55.16h0l-.17-.39-.17-.38h0L42.76,40.82h0l-.17-.36h0L42.42,40l-3.46-8-.29.13-.29.12.11.28,3.58,8.19h0l.18.38.16.39h0l5.91,13.55h0l.18.38.16.39h0l1.41,3.2H41.81l.11.32.11.31h9Zm-22.12,4v.63h8.28l.11-.31,0-.14.07-.17H26.89Zm28.56,10.2h-10l.11.31h9.65L56.68,73l.31-.09ZM49,55.16h0l-.17-.39-.17-.38h0L42.76,40.82h0l-.17-.36h0L42.42,40l-3.46-8-.29.13-.29.12.11.28,3.58,8.19h0l.18.38.16.39h0l5.91,13.55h0l.18.38.16.39h0l1.41,3.2H41.81l.11.32.11.31h9Zm-22.12,4v.63h8.28l.11-.31,0-.14.07-.17H26.89Zm28.56,10.2h-10l.11.31h9.65L56.68,73l.31-.09ZM49,55.16h0l-.17-.39-.17-.38h0L42.76,40.82h0l-.17-.36h0L42.42,40l-3.46-8-.29.13-.29.12.11.28,3.58,8.19h0l.18.38.16.39h0l5.91,13.55h0l.18.38.16.39h0l1.41,3.2H41.81l.11.32.11.31h9ZM22,69.34l-1,2.22h.35l.85-1.91h9.24l0-.1.08-.21Zm4.91-10.2v.63h8.28l.11-.31,0-.14.07-.17H26.89Zm28.56,10.2h-10l.11.31h9.65L56.68,73l.31-.09ZM49,55.16h0l-.17-.39-.17-.38h0L42.76,40.82h0l-.17-.36h0L42.42,40l-3.46-8-.29.13-.29.12.11.28,3.58,8.19h0l.18.38.16.39h0l5.91,13.55h0l.18.38.16.39h0l1.41,3.2H41.81l.11.32.11.31h9ZM22,69.34l-1,2.22h.35l.85-1.91h9.24l0-.1.08-.21Zm4.91-10.2v.63h8.28l.11-.31,0-.14.07-.17H26.89Zm28.56,10.2h-10l.11.31h9.65L56.68,73l.31-.09ZM49,55.16h0l-.17-.39-.17-.38h0L42.76,40.82h0l-.17-.36h0L42.42,40l-3.46-8-.29.13-.29.12.11.28,3.58,8.19h0l.18.38.16.39h0l5.91,13.55h0l.18.38.16.39h0l1.41,3.2H41.81l.11.32.11.31h9ZM22,69.34l-1,2.22h.35l.85-1.91h9.24l0-.1.08-.21Zm4.91-10.2v.63h8.28l.11-.31,0-.14.07-.17H26.89Zm28.56,10.2H45.16l.11.31h10L56.68,73l.31-.09ZM49,55.16h0l-.17-.39-.17-.38h0L42.76,40.82h0l-.17-.36h0L42.42,40l-3.46-8-.29.13-.29.12.11.28,3.58,8.19h0l.18.38.16.39h0l5.91,13.55h0l.18.38.16.39h0l1.41,3.2H41.14l.11.31.12.31H51Zm-22.12,4v.63h8.94l0-.08.09-.23.08-.23,0-.08H26.89ZM18.81,76.41l-.14.31H19l.15-.31ZM22,69.34l-1,2.22-.14.31-.14.32H21l.15-.32.14-.31.85-1.91h9.24l0-.1.08-.21Zm33.47,0H45.16l.11.31h10L56.68,73l.31-.09ZM49,55.16h0l-.17-.39-.17-.38h0L42.76,40.82h0l-.17-.36h0L42.42,40l-3.46-8-.29.13-.29.12.11.28,3.58,8.19h0l.18.38.16.39h0l5.91,13.55h0l.18.38.16.39h0l1.41,3.2H41.14l.11.31.12.31H51Zm-22.12,4v.63h8.94l0-.08.09-.23.08-.23,0-.08H26.89ZM18.81,76.41l-.14.31H19l.15-.31ZM22,69.34l-1,2.22-.14.31-.14.32H21l.15-.32.14-.31.85-1.91h9.24l0-.1.08-.21Zm33.47,0H45.16l.11.31h10L56.68,73l.31-.09ZM49,55.16h0l-.17-.39-.17-.38h0L42.76,40.82h0l-.17-.36h0L42.42,40l-3.46-8-.29.13-.29.12.11.28,3.58,8.19h0l.18.38.16.39h0l5.91,13.55h0l.18.38.16.39h0l1.41,3.2H41.14l.11.31.12.31H51Zm-22.12,4v.63h8.94l0-.08.09-.23.08-.23,0-.08H26.89Zm28.56,10.2H45.16l.11.31h10L56.68,73l.31-.09ZM49,55.16h0l-.17-.39-.17-.38h0L42.76,40.82h0l-.17-.36h0L42.42,40l-3.46-8-.29.13-.29.12.11.28,3.58,8.19h0l.18.38.16.39h0l5.91,13.55h0l.18.38.16.39h0l1.41,3.2H41.14l.11.31.12.31H51Zm-22.12,4v.63h8.94l0-.08.09-.23.08-.23,0-.08H26.89Zm28.56,10.2H45.16l.11.31h10L56.68,73l.31-.09ZM49,55.16h0l-.17-.39-.17-.38h0L42.76,40.82h0l-.17-.36h0L42.42,40l-3.46-8-.29.13-.29.12.11.28,3.58,8.19h0l.18.38.16.39h0l5.91,13.55h0l.18.38.16.39h0l1.41,3.2H41.14l.11.31.12.31H51Zm-22.12,4v.63h8.94l0-.08.09-.23.08-.23,0-.08H26.89Zm28.56,10.2H45.16l.11.31h10L56.68,73l.31-.09ZM49,55.16h0l-.17-.39-.17-.38h0L42.76,40.82h0l-.17-.36h0L42.42,40l-3.46-8-.29.13-.29.12.11.28,3.58,8.19h0l.18.38.16.39h0l5.91,13.55h0l.18.38.16.39h0l1.41,3.2H41.14l.11.31.12.31H51Zm-22.12,4v.63h8.94l0-.08.09-.23.08-.23,0-.08H26.89Zm28.56,10.2H45.16l.11.31h10L56.68,73l.31-.09ZM49,55.16h0l-.17-.39-.17-.38h0L42.76,40.82h0l-.17-.36h0L42.42,40l-3.46-8-.29.13-.29.12.11.28,3.58,8.19h0l.18.38.16.39h0l5.91,13.55h0l.18.38.16.39h0l1.41,3.2H41.14l.11.31.12.31H51Zm-22.12,4v.63h8.94l0-.08.09-.23.08-.23,0-.08H26.89Zm28.56,10.2H45.16l.11.31h10L56.68,73l.31-.09ZM49,55.16h0l-.17-.39-.17-.38h0L42.76,40.82h0l-.17-.36h0L42.42,40l-3.46-8-.29.13-.29.12.11.28,3.58,8.19h0l.18.38.16.39h0l5.91,13.55h0l.18.38.16.39h0l1.41,3.2H41.14l.11.31.12.31H51Zm-22.12,4v.63h8.94l0-.08.09-.23.08-.23,0-.08H26.89ZM57.11,73.26,57,72.95l-1.54-3.61H44.82l.11.31h0l.12.31H55l1.34,3.17.13.3.11.28a2.45,2.45,0,0,1,.32-.09,1.84,1.84,0,0,1,.28-.09ZM49,55.16h0l-.17-.39-.17-.38h0L42.76,40.82h0l-.17-.36h0L42.42,40l-3.46-8-.29.13-.29.12.11.28,3.58,8.19h0l.18.38.16.39h0l5.91,13.55h0l.18.38.16.39h0l1.41,3.2H41.14l.11.31.12.31H51Zm-22.12,4v.63h8.94l0-.08.09-.23.08-.23,0-.08H26.89Zm22.12-4h0l-.17-.39-.17-.38h0L42.76,40.82h0l-.17-.36h0L42.42,40l-3.46-8-.29.13-.29.12.11.28,3.58,8.19h0l.18.38.16.39h0l5.91,13.55h0l.18.38.16.39h0l1.41,3.2H41.14l.11.31.12.31H51Zm-22.12,4v.63h8.94l0-.08.09-.23.08-.23,0-.08H26.89Zm22.12-4h0l-.17-.39-.17-.38h0L42.76,40.82h0l-.17-.36h0L42.42,40l-3.46-8-.29.13-.29.12.11.28,3.58,8.19h0l.18.38.16.39h0l5.91,13.55h0l.18.38.16.39h0l1.41,3.2H41.14l.11.31.12.31H51Zm-22.12,4v.63h8.94l0-.08.09-.23.08-.23,0-.08H26.89Zm22.12-4h0l-.17-.39-.17-.38h0L42.76,40.82h0l-.17-.36h0L42.42,40l-3.46-8-.29.13-.29.12.11.28,3.58,8.19h0l.18.38.16.39h0l5.91,13.55h0l.18.38.16.39h0l1.41,3.2H41.14l.11.31.12.31H51Zm-22.12,4v.63h8.94l0-.08.09-.23.08-.23,0-.08H26.89Zm22.12-4h0l-.17-.39-.17-.38h0L42.76,40.82h0l-.17-.36h0L42.42,40l-3.46-8-.29.13-.29.12.11.28,3.58,8.19h0l.18.38.16.39h0l5.91,13.55h0l.18.38.16.39h0l1.41,3.2H41.14l.11.31.12.31H51Zm-22.12,4v.63h8.94l0-.08.09-.23.08-.23,0-.08H26.89Zm22.12-4h0l-.17-.39-.17-.38h0L42.76,40.82h0l-.17-.36h0L42.42,40l-3.46-8-.29.13-.29.12.11.28,3.58,8.19h0l.18.38.16.39h0l5.91,13.55h0l.18.38.16.39h0l1.41,3.2H41.14l.11.31.12.31H51Zm-22.12,4v.63h8.94l0-.08.09-.23.08-.23,0-.08H26.89Zm22.12-4h0l-.17-.39-.17-.38h0L42.76,40.82h0l-.17-.36h0L42.42,40l-3.46-8-.29.13-.29.12.11.28,3.58,8.19h0l.18.38.16.39h0l5.91,13.55h0l.18.38.16.39h0l1.41,3.2H41.14l.11.31.12.31H51Zm-22.12,4v.63h8.94l0-.08.09-.23.08-.23,0-.08H26.89Zm42.31,14-.11-.27L69,72.74l-.17-.4-.12.3,0,.12v0a3.37,3.37,0,0,0-.34-.09l.15.37,0,.1,0-.07h0a2,2,0,0,1,.31.08,1.71,1.71,0,0,1,.3.09l.09,0Zm-3.87,8.4-.11.31-.12.31h.67l.24-.62ZM59.53,79l-.13-.3a1.7,1.7,0,0,1-.31.06,1.81,1.81,0,0,1-.31.09l.14.3.11.29.32-.07.3-.08ZM49,55.16h0l-.17-.39-.17-.38h0L42.76,40.82h0l-.17-.36h0L42.42,40l-3.46-8-.29.13-.29.12.11.28,3.58,8.19h0l.18.38.16.39h0l5.91,13.55h0l.18.38.16.39h0l1.41,3.2H41.14l.11.31.12.31H51Zm-22.12,4v.63h8.94l0-.08.09-.23.08-.23,0-.08H26.89ZM18.81,76.41l-.14.31-.15.31h.35l.14-.31.15-.31ZM22,69.34l-1,2.22-.14.31-.14.32H21l.15-.32.14-.31.85-1.91h9.24l0-.1.08-.21Zm4.91-10.2v.63h8.94l0-.08.09-.23.08-.23,0-.08H26.89Zm22.12-4h0l-.17-.39-.17-.38h0L42.76,40.82h0l-.17-.36h0L42.42,40l-3.46-8-.29.13-.29.12.11.28,3.58,8.19h0l.18.38.16.39h0l5.91,13.55h0l.18.38.16.39h0l1.41,3.2H41.14l.11.31.12.31H51Zm8.1,18.1L57,72.95l-1.54-3.61H45.16l.11.31h10L56.68,73l-.3.1.13.3.11.28a2.45,2.45,0,0,1,.32-.09,1.84,1.84,0,0,1,.28-.09ZM26.89,59.14v.63h8.94l0-.08.09-.23.08-.23,0-.08H26.89Zm22.12-4h0l-.17-.39-.17-.38h0L42.76,40.82h0l-.17-.36h0L42.42,40l-3.46-8-.29.13-.29.12.11.28,3.58,8.19h0l.18.38.16.39h0l5.91,13.55h0l.18.38.16.39h0l1.41,3.2H41.14l.11.31.12.31H51ZM18.81,76.41l-.14.31-.15.31h.35l.14-.31.15-.31ZM22,69.34l-1,2.22-.14.31-.14.32H21l.15-.32.14-.31.85-1.91h9.24l0-.1.08-.21Zm4.91-10.2v.63h8.94l0-.08.09-.23.08-.23,0-.08H26.89Zm22.12-4h0l-.17-.39-.17-.38h0L42.76,40.82h0l-.17-.36h0L42.42,40l-3.46-8-.29.13-.29.12.11.28,3.58,8.19h0l.18.38.16.39h0l5.91,13.55h0l.18.38.16.39h0l1.41,3.2H41.14l.11.31.12.31H51Zm8.1,18.1L57,72.95l-1.54-3.61H45.16l.11.31h10L56.68,73l-.3.1.13.3.11.28a2.45,2.45,0,0,1,.32-.09,1.84,1.84,0,0,1,.28-.09ZM26.89,59.14v.63h8.94l0-.08.09-.23.08-.23,0-.08H26.89Zm22.12-4h0l-.17-.39-.17-.38h0L42.76,40.82h0l-.17-.36h0L42.42,40l-3.46-8-.29.13-.29.12.11.28,3.58,8.19h0l.18.38.16.39h0l5.91,13.55h0l.18.38.16.39h0l1.41,3.2H41.14l.11.31.12.31H51ZM18.81,76.41l-.14.31-.15.31h.35l.14-.31.15-.31ZM22,69.34l-1,2.22-.14.31-.14.32H21l.15-.32.14-.31.85-1.91h9.24l0-.1.08-.21Zm4.91-10.2v.63h8.94l0-.08.09-.23.08-.23,0-.08H26.89Zm22.12-4h0l-.17-.39-.17-.38h0L42.76,40.82h0l-.17-.36h0L42.42,40l-3.46-8-.29.13-.29.12.11.28,3.58,8.19h0l.18.38.16.39h0l5.91,13.55h0l.18.38.16.39h0l1.41,3.2H41.14l.11.31.12.31H51Zm8.1,18.1L57,72.95l-1.54-3.61H45.16l.11.31h10L56.68,73l-.3.1.13.3.11.28a2.45,2.45,0,0,1,.32-.09,1.84,1.84,0,0,1,.28-.09ZM26.89,59.14v.63h8.94l0-.08.09-.23.08-.23,0-.08H26.89Zm22.12-4h0l-.17-.39-.17-.38h0L42.76,40.82h0l-.17-.36h0L42.42,40l-3.46-8-.29.13-.29.12.11.28,3.58,8.19h0l.18.38.16.39h0l5.91,13.55h0l.18.38.16.39h0l1.41,3.2H41.14l.11.31.12.31H51ZM18.81,76.41l-.14.31-.15.31h.35l.14-.31.15-.31ZM22,69.34l-1,2.22-.14.31-.14.32H21l.15-.32.14-.31.85-1.91h9.24l0-.1.08-.21Zm4.91-10.2v.63h8.94l0-.08.09-.23.08-.23,0-.08H26.89Zm22.12-4h0l-.17-.39-.17-.38h0L42.76,40.82h0l-.17-.36h0L42.42,40l-3.46-8-.29.13-.29.12.11.28,3.58,8.19h0l.18.38.16.39h0l5.91,13.55h0l.18.38.16.39h0l1.41,3.2H41.14l.11.31.12.31H51Zm8.1,18.1L57,72.95l-1.54-3.61H45.16l.11.31h10L56.68,73l-.3.1.13.3.11.28a2.45,2.45,0,0,1,.32-.09,1.84,1.84,0,0,1,.28-.09ZM26.89,59.14v.63h8.94l0-.08.09-.23.08-.23,0-.08H26.89Zm22.12-4h0l-.17-.39-.17-.38h0L42.76,40.82h0l-.17-.36h0L42.42,40l-3.46-8-.29.13-.29.12.11.28,3.58,8.19h0l.18.38.16.39h0l5.91,13.55h0l.18.38.16.39h0l1.41,3.2H41.14l.11.31.12.31H51ZM18.81,76.41l-.14.31-.15.31h.35l.14-.31.15-.31ZM22,69.34l-1,2.22-.14.31-.14.32H21l.15-.32.14-.31.85-1.91h9.24l0-.1.08-.21Zm4.91-10.2v.63h8.94l0-.08.09-.23.08-.23,0-.08H26.89Zm22.12-4h0l-.17-.39-.17-.38h0L42.76,40.82h0l-.17-.36h0L42.42,40l-3.46-8-.29.13-.29.12.11.28,3.58,8.19h0l.18.38.16.39h0l5.91,13.55h0l.18.38.16.39h0l1.41,3.2H41.14l.11.31.12.31H51Zm8.1,18.1L57,72.95l-1.54-3.61H45.16l.11.31h.33l.11.32H55l1.34,3.17.13.3.11.28a2.45,2.45,0,0,1,.32-.09,1.84,1.84,0,0,1,.28-.09ZM26.89,59.14v.63h8.94l0-.08.09-.23.08-.23,0-.08H26.89Zm22.12-4h0l-.17-.39-.17-.38h0L42.76,40.82h0l-.17-.36h0L42.42,40l-3.46-8-.29.13-.29.12.11.28,3.58,8.19h0l.18.38.16.39h0l5.91,13.55h0l.18.38.16.39h0l1.41,3.2H41.14l.11.31.12.31H51ZM18.81,76.41l-.14.31-.15.31h.35l.14-.31.15-.31ZM22,69.34l-1,2.22-.14.31-.14.32h.69l.14-.32.14-.31h-.34l.85-1.91h9.24l0-.1.08-.21Zm4.91-10.2v.63h8.94l0-.08.09-.23.08-.23,0-.08H26.89Zm22.12-4h0l-.17-.39-.17-.38h0L42.76,40.82h0l-.17-.36h0L42.42,40l-3.46-8-.29.13-.29.12.11.28,3.58,8.19h0l.18.38.16.39h0l5.91,13.55h0l.18.38.16.39h0l1.41,3.2H41.14l.11.31.12.31H51Zm8.1,18.1L57,72.95l-1.54-3.61H44.82l.11.31h.34l.11.32H55l1.34,3.17.13.3.11.28a2.45,2.45,0,0,1,.32-.09,1.84,1.84,0,0,1,.28-.09ZM26.89,59.14v.63h8.94l0-.08.09-.23.08-.23,0-.08H26.89Zm22.12-4h0l-.17-.39-.17-.38h0L42.76,40.82h0l-.17-.36h0L42.42,40l-3.46-8-.29.13-.29.12.11.28,3.58,8.19h0l.18.38.16.39h0l5.91,13.55h0l.18.38.16.39h0l1.41,3.2H41.14l.11.31.12.31H51ZM18.81,76.41l-.14.31-.15.31h.69l.15-.31.14-.31ZM22,69.34l-1,2.22-.14.31-.14.32h.69l.14-.32.14-.31L22.38,70h9.27l.11-.32h.34l0-.1.08-.21Zm4.91-10.2v.63h8.94l0-.08.09-.23.08-.23,0-.08H26.89Zm22.12-4h0l-.17-.39-.17-.38h0L42.76,40.82h0l-.17-.36h0L42.42,40l-3.46-8-.29.13-.29.12.11.28,3.58,8.19h0l.18.38.16.39h0l5.91,13.55h0l.18.38.16.39h0l1.41,3.2H41.14l.11.31.12.31H51Zm8.1,18.1L57,72.95l-1.54-3.61H44.82l.11.31h.34l.11.32H55l1.34,3.17.13.3.11.28a2.45,2.45,0,0,1,.32-.09,1.84,1.84,0,0,1,.28-.09ZM26.89,59.14v.63h8.94l0-.08.09-.23.08-.23,0-.08H26.89Zm22.12-4h0l-.17-.39-.17-.38h0L42.76,40.82h0l-.17-.36h0L42.42,40l-3.46-8-.29.13-.29.12.11.28,3.58,8.19h0l.18.38.16.39h0l5.91,13.55h0l.18.38.16.39h0l1.41,3.2H41.14l.11.31.12.31H51Z"/><path class="cls-1" d="M68.45,51.37,64.39,62l-.16.43-.16.42-3.56,9.35-.12.34-.13.32.34,0,.12-.34h0a19.68,19.68,0,0,1,2.32-.13,21.79,21.79,0,0,1,5.41.67l0,.1,0-.07h0a2,2,0,0,1,.31.08l.1-.3.05-.13,8.11-21.37Zm.39,21-.12.3,0,.12v0a3.37,3.37,0,0,0-.34-.09,22.81,22.81,0,0,0-5.26-.61c-.74,0-1.47,0-2.2.11l3.38-8.89h0l.16-.42h0l0-.11.12-.3,4.09-10.77h8Zm-5.78,5.94a16.16,16.16,0,0,0-3.66.41,1.7,1.7,0,0,1-.31.06,1.81,1.81,0,0,1-.31.09l-.5.15h0l-.14.38h0l-.13.36c.34-.12.69-.23,1-.32l.32-.07.3-.08a15.23,15.23,0,0,1,3.41-.37,18,18,0,0,1,3.18.28l.11-.28.1-.29A16.24,16.24,0,0,0,63.06,78.28ZM41.71,59.77h-.34l2.21,6.09.17-.41Zm0,0h-.34l2.21,6.09.17-.41Zm0,0h-.34l2.21,6.09.17-.41ZM45.38,70l-.11-.32-.11-.31h-.34l.11.31h0l.12.31,3,8.19a1.84,1.84,0,0,1,.25-.23Zm-3.67-10.2h-.34l2.21,6.09.17-.41Zm-8.84,7-.17.43-.82,2.17-.12.31-.11.32L31,71.56h.34l.17-.43L32,70l.05-.14.07-.17h0l0-.1.08-.21.48-1.27.18-.48h0l.16-.42h0ZM45.38,70l-.11-.32-.11-.31h-.34l.11.31h0l.12.31,3,8.19a1.84,1.84,0,0,1,.25-.23Zm-3.67-10.2h-.34l2.21,6.09.17-.41Zm-8.84,7-.17.43-.82,2.17-.12.31-.11.32L31,71.56h.34l.17-.43L32,70l.05-.14.07-.17h0l0-.1.08-.21.48-1.27.18-.48h0l.16-.42h0Zm0,0-.17.43-.82,2.17h.34l.48-1.27.18-.48h0l.16-.42h0ZM45.38,70l-.11-.32-.11-.31h-.34l.11.31h0l.12.31,3,8.19a1.84,1.84,0,0,1,.25-.23Zm-3.67-10.2h-.34l2.21,6.09.17-.41ZM29.54,76.41l-.11.31L29.3,77h4.4v-.62Zm1.83-4.85.17-.43L32,70l.05-.14.07-.17h0l0-.1.08-.21.48-1.27.18-.48h0l.16-.42h0l-.17-.41-.17.43-.82,2.17-.12.31-.11.32L31,71.56l-.11.31-.11.32H33.7v-.63Zm14-1.59-.11-.32-.11-.31h-.34l.11.31h0l.12.31,3,8.19a1.84,1.84,0,0,1,.25-.23Zm-3.67-10.2h-.34l2.21,6.09.17-.41ZM29.54,76.41l-.11.31L29.3,77h4.4v-.62Zm1.83-4.85.17-.43L32,70l.05-.14.07-.17h0l0-.1.08-.21.48-1.27.18-.48h0l.16-.42h0l-.17-.41-.17.43-.82,2.17-.12.31-.11.32L31,71.56l-.11.31-.11.32H33.7v-.63Zm14-1.59-.11-.32-.11-.31h-.34l.11.31h0l.12.31,3,8.19a1.84,1.84,0,0,1,.25-.23Zm-3.67-10.2h-.34l2.21,6.09.17-.41ZM29.54,76.41l-.11.31L29.3,77h4.4v-.62Zm1.83-4.85.17-.43L32,70l.05-.14.07-.17h0l0-.1.08-.21.48-1.27.18-.48h0l.16-.42h0l-.17-.41-.17.43-.82,2.17-.12.31-.11.32L31,71.56l-.11.31-.11.32H33.7v-.63Zm-8.27,19-4.56-12-.15-.42-.16-.41L18,77h-.35l.4,1.06.16.43.17.41,4.39,11.61.11.32h.34Zm0,0-4.56-12-.15-.42-.16-.41L18,77h-.35l.4,1.06.16.43.17.41,4.39,11.61.11.32h.34Zm0,0-4.56-12-.15-.42-.16-.41L18,77h-.35l.4,1.06.16.43.17.41,4.39,11.61.11.32h.34Zm0,0-4.56-12-.15-.42-.16-.41L18,77h-.35l.4,1.06.16.43.17.41,4.39,11.61.11.32h.34Zm0,0-4.56-12-.15-.42-.16-.41L18,77h-.35l.4,1.06.16.43.17.41,4.39,11.61.11.32h.34Zm0,0-4.56-12-.15-.42-.16-.41L18,77h-.35l.4,1.06.16.43.17.41,4.39,11.61.11.32h.34Zm0,0-4.56-12-.15-.42-.16-.41L18,77h-.35l.4,1.06.16.43.17.41,4.39,11.61.11.32h.34Zm6.1-14.13-.11.31L29,77,23.85,90.54l-.11.32-.12.31h7.89v1.68l.32-.84h0l.31-.82v-.64H24.19L29.3,77h4.4v-.62ZM18.54,78.52l-.15-.42-.16-.41L18,77h-.35l.4,1.06.16.43.17.41,4.39,11.61.11.32h.34l-.11-.32Zm4.56,12-4.56-12-.15-.42-.16-.41L18,77h-.35l.4,1.06.16.43.17.41,4.39,11.61.11.32h.34Zm0,0-4.56-12-.15-.42-.16-.41L18,77h-.35l.4,1.06.16.43.17.41,4.39,11.61.11.32h.34Zm0,0-4.56-12-.15-.42-.16-.41L18,77h-.35l.4,1.06.16.43.17.41,4.39,11.61.11.32h.34Zm0,0-4.56-12-.15-.42-.16-.41L18,77h-.35l.4,1.06.16.43.17.41,4.39,11.61.11.32h.34Zm0,0-4.56-12-.15-.42-.16-.41L18,77h-.35l.4,1.06.16.43.17.41,4.39,11.61.11.32h.34Zm0,0-4.56-12-.15-.42-.16-.41L18,77h-.35l.4,1.06.16.43.17.41,4.39,11.61.11.32h.34Zm.11.32-.11-.32-4.56-12-.15-.42-.16-.41L18,77l-.24-.62H9.49l.13.31.11.31,1.66,4.54.11.31.11.31,3.07,8.35.12.32.11.31h8.43ZM12,82.19l-.24-.62L10.06,77h7.58l.4,1.06.16.43.17.41,4.39,11.61H15L12,82.2Zm36.42-3.94-.11-.32-2.88-8-.11-.32-.11-.31-1.09-3h0l-.15-.43-.17-.42-2-5.68-.12-.31-.11-.32-2.8-7.77-2.94,7.77-.12.32-.12.31L33,66.33v0l-.15.39-.17.43-.82,2.17-.12.31-.11.32L31,71.56l-.11.31-.11.32H33.7v-.63H31.37l.17-.43L32,70l.05-.14.07-.17h0l0-.1.08-.21.48-1.27.18-.48h0l.16-.42h0l.15-.4h0l2.64-7h0l0-.08.09-.23.08-.23,0-.08h0l2.59-6.85h0l2.47,6.86h0l.11.31.12.31,2.21,6.09v0l.15.41.15.41v0l.94,2.6.11.31h0l.12.31,3,8.19v0h0a21.15,21.15,0,0,0-4.88,7l-3.28-9.29-.17-.43v0L39.52,75l-.84-2.39L37.3,76.34l-.15.42-.16.43.18.42.15-.44.17-.39v0l1.19-3.23.67,1.87v0l.15.42.15.43h0l3.29,9.3v0l.16.42.15.46.09-.22s0-.07,0-.11a.37.37,0,0,1,0-.11,21,21,0,0,1,4.8-7.23,3,3,0,0,1,.26-.24h0ZM16,71.87l-.11-.31L13,63.76l-.16-.41-.17-.43L8.27,51.38h0l-.3.12,4.5,11.86.15.41v0l.16.41h0l2.79,7.36H8.05L.64,51.38H.32l7.4,20.18.11.31.12.32h8.2Zm15.34-.31.17-.43L32,70l.05-.14.07-.17h0l0-.1.08-.21.48-1.27.18-.48h0l.16-.42h0l-.17-.41-.17.43-.82,2.17-.12.31-.11.32L31,71.56l-.11.31-.11.32H33.7v-.63Zm-1.83,4.85-.11.31L29.3,77h4.4v-.62ZM41.71,59.77h-.34l2.21,6.09.17-.41ZM45.38,70l-.11-.32-.11-.31h-.34l.11.31h0l.12.31,3,8.19a1.84,1.84,0,0,1,.25-.23Zm-14,1.59.17-.43L32,70l.05-.14.07-.17h0l0-.1.08-.21.48-1.27.18-.48h0l.16-.42h0l-.17-.41-.17.43-.82,2.17-.12.31-.11.32L31,71.56l-.11.31-.11.32H33.7v-.63Zm-1.83,4.85-.11.31L29.3,77h4.4v-.62ZM41.71,59.77h-.34l2.21,6.09.17-.41ZM45.38,70l-.11-.32-.11-.31h-.34l.11.31h0l.12.31,3,8.19a1.84,1.84,0,0,1,.25-.23ZM32.87,66.74l-.17.43-.82,2.17-.12.31-.11.32L31,71.56h.34l.17-.43L32,70l.05-.14.07-.17h0l0-.1.08-.21.48-1.27.18-.48h0l.16-.42h0Zm8.84-7h-.34l2.21,6.09.17-.41ZM45.38,70l-.11-.32-.11-.31h-.34l.11.31h0l.12.31,3,8.19a1.84,1.84,0,0,1,.25-.23ZM32.87,66.74l-.17.43-.82,2.17-.12.31-.11.32L31,71.56h.34l.17-.43L32,70l.05-.14.07-.17h0l0-.1.08-.21.48-1.27.18-.48h0l.16-.42h0Zm8.84-7h-.34l2.21,6.09.17-.41ZM45.38,70l-.11-.32-.11-.31h-.34l.11.31h0l.12.31,3,8.19a1.84,1.84,0,0,1,.25-.23ZM32.87,66.74l-.17.43-.82,2.17-.12.31-.11.32L31,71.56h.34l.17-.43L32,70l.05-.14.07-.17h0l0-.1.08-.21.48-1.27.18-.48h0l.16-.42h0Zm8.84-7h-.34l2.21,6.09.17-.41ZM45.38,70l-.11-.32-.11-.31h-.34l.11.31h0l.12.31,3,8.19a1.84,1.84,0,0,1,.25-.23Zm-3.67-10.2h-.34l2.21,6.09.17-.41Zm0,0h-.34l2.21,6.09.17-.41ZM16.45,95.34l.11.31.11.32,5.4,14.72.11.32.12.31h2.37l.11-.31.12-.32L30.36,96l.11-.32.13-.31Zm8.11,15.35H22.41L17,96H30ZM66.45,78.62a16.79,16.79,0,0,0-7.05.07,1.7,1.7,0,0,1-.31.06,1.81,1.81,0,0,1-.31.09l-.5.15h0c-.13,0-.26.07-.38.12l-.15.4-.14.38L53.17,91.55l-2.32-6.46s0,0,0,0l-.13-.32-.14-.38a1.91,1.91,0,0,0-.22.3h0a15.7,15.7,0,0,0,5.13,22.85l.27.15.11-.26.11-.28,9.46-25,.24-.62.87-2.31.11-.29.12-.29A1.8,1.8,0,0,0,66.45,78.62Zm-1.12,3-.11.31-.12.31L55.69,107a15.14,15.14,0,0,1-5.07-21.59l2.54,7L58,79.76h0c.34-.12.69-.23,1-.32l.32-.07.3-.08a15.23,15.23,0,0,1,3.41-.37,18,18,0,0,1,3.18.28Zm-2.27-3.29a16.16,16.16,0,0,0-3.66.41,1.7,1.7,0,0,1-.31.06,1.81,1.81,0,0,1-.31.09l-.5.15h0l-.14.38h0l-.13.36c.34-.12.69-.23,1-.32l.32-.07.3-.08a15.23,15.23,0,0,1,3.41-.37,18,18,0,0,1,3.18.28l.11-.28.1-.29A16.24,16.24,0,0,0,63.06,78.28Z"/><polygon class="cls-1" points="16.48 72.19 15.8 72.19 15.69 71.88 15.56 71.56 12.78 64.19 12.61 63.78 12.61 63.77 12.46 63.35 7.97 51.49 8.27 51.37 8.56 51.26 12.81 62.51 12.98 62.94 13.14 63.36 16.24 71.56 16.37 71.88 16.48 72.19"/><polygon class="cls-1" points="29.54 76.41 29.43 76.72 29.3 77.03 24.19 90.54 24.08 90.86 23.95 91.17 23 91.17 22.87 90.86 22.76 90.54 18.37 78.93 18.2 78.52 18.04 78.09 17.64 77.03 17.53 76.72 17.41 76.41 18.08 76.41 18.32 77.03 18.42 77.27 18.42 77.29 18.57 77.7 18.73 78.11 23.44 90.54 23.48 90.66 23.51 90.54 28.62 77.03 28.75 76.72 28.86 76.41 29.54 76.41"/><path class="cls-1" d="M48.73,78.34a2,2,0,0,0-.25.23l-.25.24-.11-.31L48,78.18h0L45,70l-.11-.31-.11-.31-.94-2.6h0l-.15-.43-.15-.41h0l-2.21-6.1-.11-.31-.11-.31-2.47-6.87-2.6,6.87-.11.31-.13.31-2.64,7-.15.41-.16.43-.67,1.76-.11.31L32,70l-.6,1.59-.11.31-.13.31h-.67l.11-.31.11-.31.6-1.59.13-.31.11-.31,1-2.6.15-.41h0l.16-.41,2.32-6.13.11-.31.13-.31,3.28-8.68,3.13,8.68.11.31.11.31L43.94,65l.15.43.15.43h0l1.24,3.43.11.31.11.31,2.79,7.73.11.31Z"/><path class="cls-1" d="M58.27,79l-.15.39-.14.36h0L53.15,92.45l-2.54-7-.13-.34-.14-.39a2.36,2.36,0,0,1,.23-.3,1.63,1.63,0,0,1,.23-.29l.14.38.11.33,2.11,5.85,4-10.6.14-.38h0l.15-.41.39-.14Z"/><polygon class="cls-1" points="8.27 72.19 7.6 72.19 7.49 71.88 7.38 71.56 0.01 51.49 0.31 51.37 0.32 51.37 0.6 51.27 0.64 51.37 8.04 71.56 8.16 71.88 8.27 72.19"/><polygon class="cls-1" points="15.24 91.17 14.57 91.17 14.46 90.86 14.35 90.54 11.28 82.19 11.16 81.88 11.04 81.57 9.39 77.03 9.27 76.72 9.15 76.41 9.83 76.41 9.94 76.72 10.05 77.03 11.71 81.57 11.82 81.88 11.95 82.19 15.01 90.54 15.12 90.86 15.24 91.17"/><polygon class="cls-1" points="22.63 111.32 21.97 111.32 21.85 111.01 21.74 110.69 16.33 95.97 16.22 95.65 16.1 95.34 16.77 95.34 16.88 95.65 17 95.97 22.41 110.69 22.52 111.01 22.63 111.32"/><polygon class="cls-1" points="30.92 95.34 30.8 95.65 30.69 95.97 25.23 110.69 25.12 111.01 24.99 111.32 24.33 111.32 24.44 111.01 24.55 110.69 30.01 95.97 30.14 95.65 30.25 95.34 30.92 95.34"/><polygon class="cls-1" points="37.17 77.61 34.09 85.87 33.99 86.14 32.14 91.17 32.14 90.54 32.03 90.54 33.97 85.31 34.07 85.05 34.07 85.02 36.98 77.19 37.17 77.61"/><polygon class="cls-1" points="37.35 78.03 34.12 86.7 34.12 86.71 34.03 86.95 34.03 86.97 32.14 92.06 32.14 91.17 33.99 86.14 34.09 85.87 37.17 77.61 37.35 78.03"/><polygon class="cls-1" points="32.03 90.54 32.14 90.54 32.14 92.06 31.82 92.92 31.51 93.76 31.51 91.95 31.82 91.11 32.03 90.54"/><path class="cls-1" d="M43.42,86l-.18.44c-.05.16-.11.31-.16.48l-.18-.48h0L42.76,86l-3.3-9.33-.15-.44-.15-.43-.49-1.38-1,2.71-.16.43-.15.43-.18-.41L37,77.19l.16-.43.15-.43,1.38-3.72L39.52,75l.15.43h0l.16.44,3.29,9.29.15.43Z"/><path class="cls-1" d="M67.08,78.75,67,79l-.12.29L66,81.57l-.24.62-9.53,25.1-.11.29-.1.26-.28-.15-.27-.15.1-.26.11-.28L65.1,82.19l.12-.31.11-.31.91-2.38.11-.28.1-.29a1.8,1.8,0,0,1,.32.06Z"/><path class="cls-1" d="M77.58,51.06l-8.3,21.89h0l-.07.21,0,.09a1.71,1.71,0,0,0-.3-.09,2,2,0,0,0-.31-.08l.11-.29h0v0l0-.12.11-.3,7.84-20.65h-8l-4.1,10.76h0l-.11.3,0,.11h0l-.16.42h0L60.86,72.2h0l-.12.32h0l-.12.34c-.12,0-.23,0-.34,0l-.36,0h0l.12-.31.13-.34,3.74-9.81h0l.16-.41.15-.41h0l4-10.58Z"/><path class="cls-1" d="M50.81,84.09l.14.38a15,15,0,0,1,6.38-4.79h0l.15-.41A15.26,15.26,0,0,0,50.81,84.09Zm6-10.75-.3.1A21.84,21.84,0,0,0,48.61,78h0l.13.32a20.87,20.87,0,0,1,7.88-4.62,2.45,2.45,0,0,1,.32-.09Zm-6,10.75.14.38a15,15,0,0,1,6.38-4.79h0l.15-.41A15.26,15.26,0,0,0,50.81,84.09Zm6-10.75-.3.1A21.84,21.84,0,0,0,48.61,78h0l.13.32a20.87,20.87,0,0,1,7.88-4.62,2.45,2.45,0,0,1,.32-.09Zm-6,10.75.14.38a15,15,0,0,1,6.38-4.79h0l.15-.41A15.26,15.26,0,0,0,50.81,84.09Zm6-10.75-.3.1A21.84,21.84,0,0,0,48.61,78h0l.13.32a20.87,20.87,0,0,1,7.88-4.62,2.45,2.45,0,0,1,.32-.09Zm.69,5.92a15.26,15.26,0,0,0-6.69,4.83l.14.38a15,15,0,0,1,6.38-4.79h0l.39-.15.15-.4Zm-.69-5.92-.3.1A21.84,21.84,0,0,0,48.61,78h0l.13.32a20.87,20.87,0,0,1,7.88-4.62,2.45,2.45,0,0,1,.32-.09ZM72.88,105.7a15.35,15.35,0,0,1-9.82,3.5,15.54,15.54,0,0,1-6.93-1.62l-.27-.15-.28-.15a15.39,15.39,0,0,1-5.09-22.21l.23-.31c.08-.1.14-.19.22-.28h0a15,15,0,0,1,6.38-4.79h0l.39-.15.38-.13h0c.26-.09.53-.16.79-.24l.3-.07.31-.08a15.72,15.72,0,0,1,3.53-.4,16,16,0,0,1,3.29.32,1.59,1.59,0,0,1,.3.06L67,79a14.14,14.14,0,0,1,5.13,2.41l.52.39s0,0,.07.07l.15-.32,2.55-5.32a20,20,0,0,0-6.14-3l.16.38A20.38,20.38,0,0,1,75,76.37L72.68,81.2l-.1.22a1.43,1.43,0,0,0-.22-.15,2.83,2.83,0,0,0-.48-.34v0a14.56,14.56,0,0,0-4.8-2.16l-.31-.07a1.8,1.8,0,0,0-.32-.06,16.79,16.79,0,0,0-7.05.07,1.7,1.7,0,0,1-.31.06,1.81,1.81,0,0,1-.31.09l-.5.15h0c-.13,0-.26.07-.38.12l-.39.14a15.26,15.26,0,0,0-6.69,4.83h0a1.93,1.93,0,0,0-.22.28,1.91,1.91,0,0,0-.22.3h0a15.7,15.7,0,0,0,5.13,22.85l.27.15.28.15A15.78,15.78,0,0,0,73,106l-.14-.29ZM68.47,73.07l0,.1,0-.07h0Zm6.91,38.3-.17-.22A21.08,21.08,0,0,1,54.07,113l-.27-.12-.28-.15c-.28-.14-.54-.28-.8-.43a4.49,4.49,0,0,1-.42-.24l-.42-.26a21.1,21.1,0,0,1-8.79-24.85c0-.16.11-.31.16-.47l.09-.22s0-.07,0-.11a.37.37,0,0,1,0-.11,21,21,0,0,1,4.8-7.23,3,3,0,0,1,.26-.24h0l.12-.11a.58.58,0,0,1,.12-.1,0,0,0,0,1,0,0,20.87,20.87,0,0,1,7.88-4.62,2.45,2.45,0,0,1,.32-.09,1.84,1.84,0,0,1,.28-.09,19.5,19.5,0,0,1,2.67-.59h0l.36,0,.34,0,.12-.34a1.75,1.75,0,0,0-.33,0,2.35,2.35,0,0,0-.37.05,18.83,18.83,0,0,0-2.91.63l-.3.08-.3.1A21.84,21.84,0,0,0,48.61,78h0a2.55,2.55,0,0,1-.24.23,2.77,2.77,0,0,1-.25.24h0a21.44,21.44,0,0,0-4.84,7.1h0c-.06.14-.12.26-.17.41l-.19.44v0A21.48,21.48,0,0,0,52,112.25h0l.41.24.42.24a4.53,4.53,0,0,0,.54.27l.27.15.29.13a21.28,21.28,0,0,0,21.42-1.87Zm-18.57-38-.3.1A21.84,21.84,0,0,0,48.61,78h0l.13.32a20.87,20.87,0,0,1,7.88-4.62,2.45,2.45,0,0,1,.32-.09Zm.69,5.92a15.26,15.26,0,0,0-6.69,4.83l.14.38a15,15,0,0,1,6.38-4.79h0l.39-.15.15-.4Zm-.69-5.92-.3.1A21.84,21.84,0,0,0,48.61,78h0l.13.32a20.87,20.87,0,0,1,7.88-4.62,2.45,2.45,0,0,1,.32-.09Zm-6,10.75.14.38a15,15,0,0,1,6.38-4.79h0l.15-.41A15.26,15.26,0,0,0,50.81,84.09Zm6-10.75-.3.1A21.84,21.84,0,0,0,48.61,78h0l.13.32a20.87,20.87,0,0,1,7.88-4.62,2.45,2.45,0,0,1,.32-.09Zm-6,10.75.14.38a15,15,0,0,1,6.38-4.79h0l.15-.41A15.26,15.26,0,0,0,50.81,84.09Z"/><path class="cls-1" d="M69.41,73.66l-1-.28a21.84,21.84,0,0,0-5.38-.66,19.94,19.94,0,0,0-2.46.15l.12-.34h0a19.68,19.68,0,0,1,2.32-.13,21.79,21.79,0,0,1,5.41.67l0,.1,0-.07h0a2,2,0,0,1,.31.08,1.71,1.71,0,0,1,.3.09l.09,0Z"/><path class="cls-1" d="M75.39,111.41l.19.25a21.7,21.7,0,0,1-21.73,1.93,1.75,1.75,0,0,1-.28-.13l-.28-.14-.26-.14c-.14-.06-.28-.14-.41-.21s-.28-.15-.42-.24A21.8,21.8,0,0,1,41.29,93.87,21.45,21.45,0,0,1,42.76,86a4.07,4.07,0,0,1,.18-.44v0c.05-.13.11-.26.18-.4h0a21.15,21.15,0,0,1,4.88-7h0v0a1.84,1.84,0,0,1,.25-.23l.23-.22h0a22,22,0,0,1,7.88-4.56l.3-.1.31-.09a20.6,20.6,0,0,1,3.16-.66,2.23,2.23,0,0,1,.36,0l.35,0c.73-.07,1.46-.11,2.2-.11a22.81,22.81,0,0,1,5.26.61,3.37,3.37,0,0,1,.34.09h0l.26.07.13,0,.18,0h0A21.16,21.16,0,0,1,75.58,76l.21.16L73,82l-.1.21-.1.22-.26-.22-.05,0-.34-.28-.43-.31a13.76,13.76,0,0,0-4.87-2.24l-.31-.07-.3-.07a18,18,0,0,0-3.18-.28,15.23,15.23,0,0,0-3.41.37l-.3.08-.32.07c-.35.09-.7.2-1,.32h0c-.14,0-.26.09-.39.14l-.4.15h0a14.63,14.63,0,0,0-6.13,4.73h0a1.86,1.86,0,0,0-.21.28s0,0,0,0a2.13,2.13,0,0,0-.23.32A15.14,15.14,0,0,0,55.69,107l.28.15.27.14a15.26,15.26,0,0,0,16.44-1.83l.2.24h0l.2.24L73,106a15.78,15.78,0,0,1-17,1.84l-.28-.15-.27-.15a15.7,15.7,0,0,1-5.13-22.85h0a1.91,1.91,0,0,1,.22-.3,1.93,1.93,0,0,1,.22-.28h0a15.26,15.26,0,0,1,6.69-4.83l.39-.14c.12,0,.25-.08.38-.12h0l.5-.15a1.81,1.81,0,0,0,.31-.09,1.7,1.7,0,0,0,.31-.06,16.79,16.79,0,0,1,7.05-.07,1.8,1.8,0,0,1,.32.06l.31.07a14.56,14.56,0,0,1,4.8,2.16v0a2.83,2.83,0,0,1,.48.34,1.43,1.43,0,0,1,.22.15l.1-.22L75,76.37a20.38,20.38,0,0,0-5.59-2.71l-.16-.38-.09,0a1.71,1.71,0,0,0-.3-.09,2,2,0,0,0-.31-.08h0l0,.07,0-.1a21.79,21.79,0,0,0-5.41-.67,19.68,19.68,0,0,0-2.32.13h0l-.12.34-.34,0-.36,0h0a19.5,19.5,0,0,0-2.67.59,1.84,1.84,0,0,0-.28.09,2.45,2.45,0,0,0-.32.09,20.87,20.87,0,0,0-7.88,4.62,0,0,0,0,0,0,0,.58.58,0,0,0-.12.1l-.12.11h0a3,3,0,0,0-.26.24A21,21,0,0,0,43.43,86a.37.37,0,0,0,0,.11s0,.08,0,.11l-.09.22c0,.16-.11.31-.16.47a21.1,21.1,0,0,0,8.79,24.85l.42.26a4.49,4.49,0,0,0,.42.24c.26.15.52.29.8.43l.28.15.27.12a21.08,21.08,0,0,0,21.14-1.85l.17.22Z"/><path class="cls-1" d="M31.51,92.85v2.49H30.6l-.13.31h1.36V92Zm0,0v2.49H30.6l-.13.31h1.36V92Zm0,0v2.49H30.6l-.13.31h1.36V92Zm0,0v2.49H30.6l-.13.31h1.36V92Zm0,0v2.49H30.6l-.13.31h1.36V92Zm0,0v2.49H30.6l-.13.31h1.36V92Zm0,0v2.49H30.6l-.13.31h1.36V92Zm0,0v2.49H30.6l-.13.31h1.36V92Zm0,0v2.49H30.6l-.13.31h1.36V92Zm0,0v2.49H30.6l-.13.31h1.36V92Zm0,0v2.49H30.6l-.13.31h1.36V92Zm0,0v2.49H30.6l-.13.31h1.36V92ZM35,115.55H.63V72.19H33.7v-.32H.31v44H35ZM6.28,111V95.65H31.83V90.86H6.28V76.72H33.7v-.31H6V91.17H31.51v4.17H6v16H34.81V111Zm28.52-.32v0ZM31.51,92.85v2.49H30.6l-.13.31h1.36V92Zm0,0v2.49H30.6l-.13.31h1.36V92Zm0,0v2.49H30.6l-.13.31h1.36V92Zm0,0v2.49H30.6l-.13.31h1.36V92Zm0,0v2.49H30.6l-.13.31h1.36V92Zm0,0v2.49H30.6l-.13.31h1.36V92Zm0,0v2.49H30.6l-.13.31h1.36V92Zm0,0v2.49H30.6l-.13.31h1.36V92Zm0,0v2.49H30.6l-.13.31h1.36V92Zm0,0v2.49H30.6l-.13.31h1.36V92Zm0,0v2.49H30.6l-.13.31h1.36V92Zm0,0v2.49H30.6l-.13.31h1.36V92Z"/><path class="cls-1" d="M21.33,71.56l-.14.31-.15.32h9.77l.11-.32.11-.31Zm0,0-.14.31-.15.32h9.77l.11-.32.11-.31ZM6.59,110.69V96H32.14V90.54H6.59V77H33.7v-.62H6V91.17H31.51v4.17H6v16H34.81v-.63ZM21.33,71.56l-.14.31-.15.32h9.77l.11-.32.11-.31Zm0,0-.14.31-.15.32h9.77l.11-.32.11-.31ZM9.83,76.41l.11.31h0l.12.3h9.15l.15-.31.14-.31Zm0,0,.11.31h0l.12.3h8.81l.14-.31.15-.31Zm0,0,.11.31h0l.12.3h8.81l.14-.31.15-.31Zm0,0,.11.31h0l.12.3h8.81l.14-.31.15-.31Zm0,0,.11.31h0l.12.3h8.81l.14-.31.15-.31Zm0,0,.11.31h0l.12.3h8.81l.14-.31.15-.31Zm0,0,.11.31h0l.12.3h8.81l.14-.31.15-.31Zm0,0,.11.31h0l.12.3h8.81l.14-.31.15-.31Zm0,0,.11.31h0l.12.3h8.81l.14-.31.15-.31Zm0,0,.11.31h0l.12.3h8.81l.14-.31.15-.31Zm0,0,.11.31h0l.12.3h8.81l.14-.31.15-.31Zm0,0,.11.31h0l.12.3h8.81l.14-.31.15-.31Zm0,0,.11.31h0l.12.3h8.46l.15-.31H19l.15-.31Zm0,0,.11.31h0l.12.3h8.46l.15-.31H19l.15-.31Zm0,0,.11.31h0l.12.3h8.46l.15-.31H19l.15-.31Zm0,0,.11.31h0l.12.3h8.46l.15-.31H19l.15-.31Zm0,0,.11.31h0l.12.3h8.46l.15-.31H19l.15-.31Zm0,0,.11.31h0l.12.3h8.46l.15-.31H19l.15-.31Zm0,0,.11.31h0l.12.3h8.46l.15-.31H19l.15-.31Zm0,0,.11.31h0l.12.3h8.46l.15-.31H19l.15-.31Zm0,0,.11.31h0l.12.3h8.46l.15-.31H19l.15-.31Zm0,0,.11.31h0l.12.3h8.46l.15-.31H19l.15-.31ZM.63,115.55V72.19H33.7v-.63H0v44.62H35v-.63Zm9.2-39.14.11.31h0l.12.3h8.46l.15-.31H19l.15-.31Zm0,0,.11.31h0l.12.3h8.46l.15-.31H19l.15-.31Zm0,0,.11.31h0l.12.3h8.46l.15-.31H19l.15-.31Zm0,0,.11.31h0l.12.3h8.46l.15-.31H19l.15-.31Zm0,0,.11.31h0l.12.3h8.46l.15-.31H19l.15-.31Zm0,0,.11.31h0l.12.3h8.46l.15-.31H19l.15-.31Zm0,0,.11.31h0l.12.3h8.46l.15-.31H19l.15-.31Zm0,0,.11.31h0l.12.3h8.46l.15-.31H19l.15-.31Zm0,0,.11.31h0l.12.3h8.46l.15-.31H19l.15-.31Zm0,0,.11.31h0l.12.3h8.46l.15-.31H19l.15-.31Zm0,0,.11.31h0l.12.3h8.81l.14-.31.15-.31Zm0,0,.11.31h0l.12.3h8.81l.14-.31.15-.31Zm0,0,.11.31h0l.12.3h8.81l.14-.31.15-.31Zm0,0,.11.31h0l.12.3h8.81l.14-.31.15-.31Zm0,0,.11.31h0l.12.3h8.81l.14-.31.15-.31Zm0,0,.11.31h0l.12.3h8.81l.14-.31.15-.31Zm0,0,.11.31h0l.12.3h8.81l.14-.31.15-.31Zm0,0,.11.31h0l.12.3h8.81l.14-.31.15-.31Zm0,0,.11.31h0l.12.3h8.81l.14-.31.15-.31Zm0,0,.11.31h0l.12.3h8.81l.14-.31.15-.31Zm0,0,.11.31h0l.12.3h8.81l.14-.31.15-.31Zm0,0,.11.31h0l.12.3h9.15l.15-.31.14-.31Zm0,0,.11.31h0l.12.3h9.15l.15-.31.14-.31Z"/></svg>